<svg width="44" height="39" viewBox="0 0 44 39" fill="none" xmlns="http://www.w3.org/2000/svg">
<path d="M15.3332 10C15.3332 9.07952 16.0793 8.33333 16.9998 8.33333H26.9998C27.9203 8.33333 28.6665 9.07952 28.6665 10C28.6665 10.9205 27.9203 11.6667 26.9998 11.6667H16.9998C16.0793 11.6667 15.3332 10.9205 15.3332 10Z" fill="#33363F"/>
<path fill-rule="evenodd" clip-rule="evenodd" d="M8.66649 7.5C8.66649 6.64569 8.65841 6.46193 8.63446 6.34152C8.50295 5.68037 7.98612 5.16354 7.32497 5.03202C7.20456 5.00807 7.0208 5 6.16649 5C5.31218 5 5.12842 5.00807 5.008 5.03202C4.34685 5.16354 3.83002 5.68037 3.69851 6.34152C3.67455 6.46196 3.66649 6.64536 3.66649 7.49866V13.3333C3.66649 16.0781 4.58026 18.2817 5.50848 19.8132C5.97206 20.5781 6.43377 21.1659 6.77312 21.5561C6.94238 21.7508 7.0799 21.8948 7.17015 21.9857C7.21523 22.0311 7.24837 22.0631 7.26761 22.0814L7.28574 22.0984C7.96668 22.7146 8.02005 23.7652 7.40531 24.4483C6.78955 25.1325 5.73573 25.1879 5.05154 24.5722L6.16649 23.3333C5.05154 24.5722 5.05208 24.5726 5.05154 24.5722L5.04935 24.5702L5.04676 24.5678L5.04045 24.5621L5.02333 24.5464C5.00995 24.534 4.99268 24.5179 4.97178 24.498C4.92998 24.4583 4.8736 24.4036 4.80475 24.3343C4.66714 24.1957 4.47914 23.9979 4.25777 23.7434C3.81586 23.2352 3.23591 22.4948 2.65782 21.5409C1.50271 19.635 0.333153 16.8385 0.333153 13.3333L0.333079 7.35908C0.332575 6.72524 0.332141 6.1793 0.429227 5.69122C0.82376 3.70776 2.37425 2.15727 4.3577 1.76274C4.84579 1.66565 5.39218 1.66609 6.02668 1.66659L6.16649 1.66667L6.30629 1.66659C6.94079 1.66609 7.48718 1.66565 7.97527 1.76274C8.50255 1.86762 8.99924 2.0542 9.45174 2.30888C10.3401 0.920407 11.8958 0 13.6665 0H30.3332C32.1038 0 33.6595 0.920406 34.5479 2.30888C35.0004 2.0542 35.4971 1.86762 36.0244 1.76274C36.5125 1.66565 37.0588 1.66609 37.6933 1.66659L37.8332 1.66667L37.973 1.66659C38.6075 1.66609 39.1539 1.66565 39.6419 1.76274C41.6254 2.15727 43.1759 3.70776 43.5704 5.69122C43.6675 6.1793 43.6671 6.72524 43.6666 7.35908L43.6665 13.3333C43.6665 16.8385 42.4969 19.635 41.3418 21.5409C40.7637 22.4948 40.1838 23.2352 39.7419 23.7434C39.5205 23.9979 39.3325 24.1957 39.1949 24.3343C39.126 24.4036 39.0697 24.4583 39.0279 24.498C39.007 24.5179 38.9897 24.534 38.9763 24.5464L38.9592 24.5621L38.9529 24.5678L38.9503 24.5702C38.9498 24.5707 38.9481 24.5722 37.8332 23.3333L38.9481 24.5722C38.2639 25.1879 37.2101 25.1325 36.5943 24.4483C35.9796 23.7653 36.0338 22.7139 36.7147 22.0977L36.7164 22.0961L36.732 22.0814C36.7513 22.0631 36.7844 22.0311 36.8295 21.9857C36.9197 21.8948 37.0573 21.7508 37.2265 21.5561C37.5659 21.1659 38.0276 20.5781 38.4912 19.8132C39.4194 18.2817 40.3332 16.0781 40.3332 13.3333V7.49866C40.3332 6.64536 40.3251 6.46196 40.3011 6.34152C40.1696 5.68037 39.6528 5.16354 38.9916 5.03202C38.8712 5.00807 38.6875 5 37.8332 5C36.9788 5 36.7951 5.00807 36.6747 5.03202C36.0135 5.16354 35.4967 5.68037 35.3652 6.34152C35.3412 6.46193 35.3332 6.64569 35.3332 7.5V17.3605C35.3332 20.2372 33.8494 22.9105 31.4082 24.4323L23.7632 29.1981C23.7312 29.218 23.699 29.2374 23.6665 29.2561V33.3333C23.6665 34.2538 22.9203 35 21.9998 35C21.0793 35 20.3332 34.2538 20.3332 33.3333V29.2561C20.3007 29.2374 20.2684 29.218 20.2365 29.1981L12.5914 24.4323C10.1502 22.9105 8.66649 20.2372 8.66649 17.3605V7.5ZM11.9998 5C11.9998 4.07953 12.746 3.33333 13.6665 3.33333H30.3332C31.2536 3.33333 31.9998 4.07953 31.9998 5V7.09303C31.9996 7.18034 31.9997 7.26936 31.9997 7.36019L31.9998 17.3605C31.9998 19.0866 31.1096 20.6905 29.6449 21.6036L21.9998 26.3694L14.3548 21.6036C12.89 20.6905 11.9998 19.0866 11.9998 17.3605L11.9999 7.36019C12 7.26926 12 7.18013 11.9998 7.09273V5Z" fill="#33363F"/>
<path d="M21.9998 35H33.6665C34.587 35 35.3332 35.7462 35.3332 36.6667C35.3332 37.5871 34.587 38.3333 33.6665 38.3333H10.3332C9.41268 38.3333 8.66649 37.5871 8.66649 36.6667C8.66649 35.7462 9.41268 35 10.3332 35H21.9998Z" fill="#33363F"/>
</svg>
