<svg width="50" height="50" viewBox="0 0 50 50" fill="none" xmlns="http://www.w3.org/2000/svg">
<path d="M18.3336 15C18.3336 14.0795 19.0798 13.3333 20.0003 13.3333H30.0003C30.9208 13.3333 31.667 14.0795 31.667 15C31.667 15.9205 30.9208 16.6667 30.0003 16.6667H20.0003C19.0798 16.6667 18.3336 15.9205 18.3336 15Z" fill="white"/>
<path fill-rule="evenodd" clip-rule="evenodd" d="M11.667 12.5C11.667 11.6457 11.6589 11.4619 11.635 11.3415C11.5034 10.6804 10.9866 10.1635 10.3255 10.032C10.205 10.0081 10.0213 10 9.16697 10C8.31266 10 8.12891 10.0081 8.00849 10.032C7.34734 10.1635 6.83051 10.6804 6.699 11.3415C6.67504 11.462 6.66697 11.6454 6.66697 12.4987V18.3333C6.66697 21.0781 7.58075 23.2817 8.50897 24.8132C8.97255 25.5781 9.43426 26.1659 9.77361 26.5561C9.94287 26.7508 10.0804 26.8948 10.1706 26.9857C10.2157 27.0311 10.2489 27.0631 10.2681 27.0814L10.2862 27.0984C10.9672 27.7146 11.0205 28.7652 10.4058 29.4483C9.79003 30.1325 8.73622 30.1879 8.05203 29.5722L9.16697 28.3333C8.05203 29.5722 8.05203 29.5722 8.05203 29.5722L8.04983 29.5702L8.04725 29.5678L8.04094 29.5621L8.02382 29.5464C8.01044 29.534 7.99317 29.5179 7.97227 29.498C7.93047 29.4583 7.87409 29.4036 7.80524 29.3343C7.66762 29.1957 7.47962 28.9979 7.25826 28.7434C6.81635 28.2352 6.2364 27.4948 5.65831 26.5409C4.5032 24.635 3.33364 21.8385 3.33364 18.3333L3.33357 12.3591C3.33306 11.7252 3.33263 11.1793 3.42971 10.6912C3.82425 8.70776 5.37474 7.15727 7.35819 6.76274C7.84628 6.66565 8.39267 6.66609 9.02716 6.66659L9.16697 6.66667L9.30678 6.66659C9.94128 6.66609 10.4877 6.66565 10.9758 6.76274C11.503 6.86762 11.9997 7.0542 12.4522 7.30888C13.3406 5.92041 14.8963 5 16.667 5H33.3336C35.1043 5 36.66 5.92041 37.5484 7.30888C38.0009 7.0542 38.4976 6.86762 39.0249 6.76274C39.5129 6.66565 40.0593 6.66609 40.6938 6.66659L40.8336 6.66667L40.9734 6.66659C41.6079 6.66609 42.1543 6.66565 42.6424 6.76274C44.6259 7.15727 46.1764 8.70776 46.5709 10.6912C46.668 11.1793 46.6676 11.7252 46.667 12.3591L46.667 18.3333C46.667 21.8385 45.4974 24.635 44.3423 26.5409C43.7642 27.4948 43.1843 28.2352 42.7424 28.7434C42.521 28.9979 42.333 29.1957 42.1954 29.3343C42.1265 29.4036 42.0701 29.4583 42.0284 29.498C42.0075 29.5179 41.9902 29.534 41.9768 29.5464L41.9597 29.5621L41.9534 29.5678L41.9508 29.5702C41.9508 29.5702 41.9486 29.5722 40.8336 28.3333L41.9486 29.5722C41.2644 30.1879 40.2106 30.1325 39.5948 29.4483C38.9801 28.7653 39.0343 27.7139 39.7151 27.0977L39.7169 27.0961L39.7325 27.0814C39.7518 27.0631 39.7849 27.0311 39.83 26.9857C39.9202 26.8948 40.0578 26.7508 40.227 26.5561C40.5664 26.1659 41.0281 25.5781 41.4916 24.8132C42.4199 23.2817 43.3336 21.0781 43.3336 18.3333V12.4987C43.3336 11.6454 43.3256 11.462 43.3016 11.3415C43.1701 10.6804 42.6533 10.1635 41.9921 10.032C41.8717 10.0081 41.688 10 40.8336 10C39.9793 10 39.7956 10.0081 39.6752 10.032C39.014 10.1635 38.4972 10.6804 38.3657 11.3415C38.3417 11.4619 38.3336 11.6457 38.3336 12.5V22.3605C38.3336 25.2372 36.8499 27.9105 34.4087 29.4323L26.7637 34.1981C26.7317 34.218 26.6994 34.2374 26.667 34.2561V38.3333C26.667 39.2538 25.9208 40 25.0003 40C24.0798 40 23.3336 39.2538 23.3336 38.3333V34.2561C23.3012 34.2374 23.2689 34.218 23.2369 34.1981L15.5919 29.4323C13.1507 27.9105 11.667 25.2372 11.667 22.3605V12.5ZM15.0003 10C15.0003 9.07953 15.7465 8.33333 16.667 8.33333H33.3336C34.2541 8.33333 35.0003 9.07953 35.0003 10V12.093C35.0001 12.1803 35.0002 12.2694 35.0002 12.3602L35.0003 22.3605C35.0003 24.0866 34.1101 25.6905 32.6453 26.6036L25.0003 31.3694L17.3553 26.6036C15.8905 25.6905 15.0003 24.0866 15.0003 22.3605L15.0004 12.3602C15.0005 12.2693 15.0005 12.1801 15.0003 12.0927V10Z" fill="white"/>
<path d="M25.0003 40H36.667C37.5874 40 38.3336 40.7462 38.3336 41.6667C38.3336 42.5871 37.5874 43.3333 36.667 43.3333H13.3336C12.4132 43.3333 11.667 42.5871 11.667 41.6667C11.667 40.7462 12.4132 40 13.3336 40H25.0003Z" fill="white"/>
</svg>
