<svg width="30" height="25" viewBox="0 0 30 25" fill="none" xmlns="http://www.w3.org/2000/svg">
<path d="M5.69209 12.4407L14.033 4.09976C14.4719 3.6583 14.7182 3.06112 14.7182 2.43864C14.7182 1.81617 14.4719 1.21899 14.033 0.777525C13.814 0.556682 13.5534 0.381394 13.2663 0.261774C12.9791 0.142153 12.6712 0.0805664 12.3601 0.0805664C12.0491 0.0805664 11.7411 0.142153 11.454 0.261774C11.1669 0.381394 10.9063 0.556682 10.6872 0.777525L0.696959 10.7678C0.476116 10.9868 0.300829 11.2474 0.181208 11.5346C0.0615874 11.8217 0 12.1296 0 12.4407C0 12.7517 0.0615874 13.0597 0.181208 13.3468C0.300829 13.634 0.476116 13.8945 0.696959 14.1136L10.6872 24.2217C10.9074 24.44 11.1685 24.6128 11.4556 24.7301C11.7426 24.8473 12.05 24.9068 12.3601 24.905C12.6702 24.9068 12.9776 24.8473 13.2647 24.7301C13.5518 24.6128 13.8129 24.44 14.033 24.2217C14.4719 23.7802 14.7182 23.183 14.7182 22.5605C14.7182 21.9381 14.4719 21.3409 14.033 20.8994L5.69209 12.4407Z" fill="#263843"/>
<path d="M20.9738 12.3601L29.3148 4.01919C29.7536 3.57773 29.9999 2.98055 29.9999 2.35808C29.9999 1.7356 29.7536 1.13842 29.3148 0.696958C29.0957 0.476116 28.8351 0.300828 28.548 0.181207C28.2609 0.0615862 27.9529 0 27.6419 0C27.3308 0 27.0228 0.0615862 26.7357 0.181207C26.4486 0.300828 26.188 0.476116 25.969 0.696958L15.9787 10.6872C15.7579 10.9063 15.5826 11.1669 15.4629 11.454C15.3433 11.7411 15.2817 12.0491 15.2817 12.3601C15.2817 12.6712 15.3433 12.9791 15.4629 13.2663C15.5826 13.5534 15.7579 13.814 15.9787 14.033L25.969 24.1411C26.1891 24.3595 26.4502 24.5322 26.7373 24.6495C27.0244 24.7668 27.3318 24.8262 27.6419 24.8244C27.952 24.8262 28.2593 24.7668 28.5464 24.6495C28.8335 24.5322 29.0946 24.3595 29.3148 24.1411C29.7536 23.6996 29.9999 23.1025 29.9999 22.48C29.9999 21.8575 29.7536 21.2603 29.3148 20.8189L20.9738 12.3601Z" fill="#263843"/>
</svg>
