<svg width="46" height="27" viewBox="0 0 46 27" fill="none" xmlns="http://www.w3.org/2000/svg">
<path d="M30.8627 3.81927C31.5913 2.92876 31.46 1.61621 30.5695 0.887611C29.679 0.159012 28.3665 0.290267 27.6379 1.18078L10.1526 22.5517L3.41695 17.5C2.49648 16.8097 1.19064 16.9962 0.500285 17.9167C-0.190071 18.8372 -0.00352215 20.143 0.916952 20.8334L7.65255 25.8851C9.43877 27.2247 11.9635 26.9183 13.3774 25.1902L30.8627 3.81927Z" fill="white"/>
<path d="M22.1731 25.7563L18.572 22.8753L21.2106 19.6503L24.776 22.5027L42.2212 1.18078C42.9498 0.290267 44.2624 0.159012 45.1529 0.887611C46.0434 1.61621 46.1746 2.92876 45.446 3.81927L28.0009 25.1411C26.555 26.9083 23.9561 27.1827 22.1731 25.7563Z" fill="white"/>
</svg>
