<svg width="38" height="38" viewBox="0 0 38 38" fill="none" xmlns="http://www.w3.org/2000/svg">
<path fill-rule="evenodd" clip-rule="evenodd" d="M6.38668 0.250015C5.5032 0.249841 4.6446 0.249673 3.93645 0.344882C3.13811 0.452215 2.22712 0.713719 1.47042 1.47042C0.713719 2.22712 0.452215 3.13811 0.344882 3.93645C0.249673 4.6446 0.249841 5.5032 0.250015 6.38668V12.8634C0.249841 13.7469 0.249673 14.6055 0.344882 15.3136C0.452215 16.1119 0.713719 17.0229 1.47042 17.7796C2.22712 18.5363 3.13811 18.7978 3.93645 18.9052C4.64458 19.0004 5.50315 19.0002 6.3866 19H10.7801C11.6635 19.0002 12.5221 19.0004 13.2303 18.9052C14.0286 18.7978 14.9396 18.5363 15.6963 17.7796C16.453 17.0229 16.7145 16.1119 16.8218 15.3136C16.9171 14.6055 16.9169 13.7469 16.9167 12.8634V6.38667C16.9169 5.5032 16.9171 4.6446 16.8218 3.93645C16.7145 3.13811 16.453 2.22712 15.6963 1.47042C14.9396 0.713719 14.0286 0.452215 13.2303 0.344882C12.5221 0.249673 11.6635 0.249841 10.78 0.250015H6.38668ZM4.47439 4.49165L4.47648 4.47647L4.49165 4.47439C4.88788 4.42112 5.45904 4.4167 6.50003 4.4167H10.6667C11.7077 4.4167 12.2788 4.42112 12.6751 4.47439L12.6903 4.47647L12.6923 4.49165C12.7456 4.88788 12.75 5.45904 12.75 6.50003V12.75C12.75 13.791 12.7456 14.3622 12.6923 14.7584L12.6903 14.7736L12.6751 14.7757C12.2788 14.8289 11.7077 14.8334 10.6667 14.8334H6.50003C5.45904 14.8334 4.88788 14.8289 4.49165 14.7757L4.47647 14.7736L4.47439 14.7584C4.42112 14.3622 4.4167 13.791 4.4167 12.75V6.50003C4.4167 5.45904 4.42112 4.88788 4.47439 4.49165Z" fill="#263843"/>
<path fill-rule="evenodd" clip-rule="evenodd" d="M6.38668 23.1667C5.5032 23.1665 4.6446 23.1663 3.93645 23.2615C3.13811 23.3689 2.22712 23.6304 1.47042 24.3871C0.713719 25.1438 0.452215 26.0548 0.344882 26.8531C0.249673 27.5613 0.249841 28.4199 0.250015 29.3033V31.6134C0.249841 32.4969 0.249673 33.3555 0.344882 34.0636C0.452215 34.8619 0.713719 35.7729 1.47042 36.5296C2.22712 37.2863 3.13811 37.5478 3.93645 37.6552C4.6446 37.7504 5.5032 37.7502 6.38668 37.75H10.7801C11.6635 37.7502 12.5221 37.7504 13.2303 37.6552C14.0286 37.5478 14.9396 37.2863 15.6963 36.5296C16.453 35.7729 16.7145 34.8619 16.8218 34.0636C16.9171 33.3555 16.9169 32.4969 16.9167 31.6134V29.3033C16.9169 28.4199 16.9171 27.5613 16.8218 26.8531C16.7145 26.0548 16.453 25.1438 15.6963 24.3871C14.9396 23.6304 14.0286 23.3689 13.2303 23.2615C12.5221 23.1663 11.6635 23.1665 10.78 23.1667H6.38668ZM4.47439 27.4083L4.47648 27.3931L4.49165 27.3911C4.88788 27.3378 5.45904 27.3334 6.50003 27.3334H10.6667C11.7077 27.3334 12.2788 27.3378 12.6751 27.3911L12.6903 27.3931L12.6923 27.4083C12.7456 27.8045 12.75 28.3757 12.75 29.4167V31.5C12.75 32.541 12.7456 33.1122 12.6923 33.5084L12.6903 33.5236L12.6751 33.5257C12.2788 33.5789 11.7077 33.5834 10.6667 33.5834H6.50003C5.45904 33.5834 4.88788 33.5789 4.49165 33.5257L4.47647 33.5236L4.47439 33.5084C4.42112 33.1122 4.4167 32.541 4.4167 31.5V29.4167C4.4167 28.3757 4.42112 27.8045 4.47439 27.4083Z" fill="#263843"/>
<path fill-rule="evenodd" clip-rule="evenodd" d="M27.22 0.250015H31.6134C32.4969 0.249841 33.3555 0.249673 34.0636 0.344882C34.8619 0.452215 35.7729 0.713719 36.5296 1.47042C37.2863 2.22712 37.5478 3.13811 37.6552 3.93645C37.7504 4.6446 37.7502 5.5032 37.75 6.38667V8.69672C37.7502 9.58019 37.7504 10.4388 37.6552 11.1469C37.5478 11.9453 37.2863 12.8563 36.5296 13.613C35.7729 14.3697 34.8619 14.6312 34.0636 14.7385C33.3555 14.8337 32.4969 14.8336 31.6134 14.8334H27.22C26.3365 14.8336 25.4779 14.8337 24.7698 14.7385C23.9714 14.6312 23.0605 14.3697 22.3038 13.613C21.5471 12.8563 21.2855 11.9453 21.1782 11.1469C21.083 10.4388 21.0832 9.58019 21.0834 8.69671V6.38668C21.0832 5.5032 21.083 4.6446 21.1782 3.93645C21.2855 3.13811 21.5471 2.22712 22.3038 1.47042C23.0605 0.713719 23.9714 0.452215 24.7698 0.344882C25.4779 0.249673 26.3365 0.249841 27.22 0.250015ZM25.3098 4.47647L25.3077 4.49165C25.2545 4.88788 25.25 5.45904 25.25 6.50003V8.58336C25.25 9.62435 25.2545 10.1955 25.3077 10.5917L25.3098 10.6069L25.325 10.609C25.7212 10.6623 26.2924 10.6667 27.3334 10.6667H31.5C32.541 10.6667 33.1122 10.6623 33.5084 10.609L33.5236 10.6069L33.5257 10.5917C33.5789 10.1955 33.5834 9.62435 33.5834 8.58336V6.50003C33.5834 5.45904 33.5789 4.88788 33.5257 4.49165L33.5236 4.47647L33.5084 4.47439C33.1122 4.42112 32.541 4.4167 31.5 4.4167H27.3334C26.2924 4.4167 25.7212 4.42112 25.325 4.47439L25.3098 4.47647Z" fill="#263843"/>
<path fill-rule="evenodd" clip-rule="evenodd" d="M27.22 19C26.3365 18.9998 25.4779 18.9997 24.7698 19.0949C23.9714 19.2022 23.0605 19.4637 22.3038 20.2204C21.5471 20.9771 21.2855 21.8881 21.1782 22.6864C21.083 23.3946 21.0832 24.2532 21.0834 25.1367V31.6134C21.0832 32.4969 21.083 33.3555 21.1782 34.0636C21.2855 34.8619 21.5471 35.7729 22.3038 36.5296C23.0605 37.2863 23.9714 37.5478 24.7698 37.6552C25.4779 37.7504 26.3364 37.7502 27.2199 37.75H31.6134C32.4968 37.7502 33.3555 37.7504 34.0636 37.6552C34.8619 37.5478 35.7729 37.2863 36.5296 36.5296C37.2863 35.7729 37.5478 34.8619 37.6552 34.0636C37.7504 33.3555 37.7502 32.4969 37.75 31.6134V25.1367C37.7502 24.2532 37.7504 23.3946 37.6552 22.6864C37.5478 21.8881 37.2863 20.9771 36.5296 20.2204C35.7729 19.4637 34.8619 19.2022 34.0636 19.0949C33.3555 18.9997 32.4969 18.9998 31.6134 19H27.22ZM25.3077 23.2416L25.3098 23.2265L25.325 23.2244C25.7212 23.1711 26.2924 23.1667 27.3334 23.1667H31.5C32.541 23.1667 33.1122 23.1711 33.5084 23.2244L33.5236 23.2265L33.5257 23.2416C33.5789 23.6379 33.5834 24.209 33.5834 25.25V31.5C33.5834 32.541 33.5789 33.1122 33.5257 33.5084L33.5236 33.5236L33.5084 33.5257C33.1122 33.5789 32.541 33.5834 31.5 33.5834H27.3334C26.2924 33.5834 25.7212 33.5789 25.325 33.5257L25.3098 33.5236L25.3077 33.5084C25.2545 33.1122 25.25 32.541 25.25 31.5V25.25C25.25 24.209 25.2545 23.6379 25.3077 23.2416Z" fill="#263843"/>
</svg>
