<svg width="89" height="89" viewBox="10 10 69 69" fill="none" xmlns="http://www.w3.org/2000/svg">
<path d="M19.7911 21.5619L12.4068 34.5732C12.0632 35.1785 11.9742 35.8981 12.1591 36.5726C12.3442 37.2479 12.7886 37.8229 13.3934 38.1721L19.4717 41.6776C19.3737 42.6009 19.3285 43.5025 19.3354 44.4022C19.3418 45.3017 19.3997 46.2036 19.5111 47.127L13.4842 50.6359C12.884 50.9853 12.4485 51.5612 12.2731 52.2359C12.098 52.9109 12.197 53.6302 12.5495 54.2357L20.1226 67.2432C20.4752 67.8484 21.0517 68.2901 21.7252 68.4707C22.3956 68.6507 23.1078 68.5574 23.706 68.2121C23.709 68.2103 23.7121 68.2085 23.7148 68.207L29.7472 64.692C31.2158 65.7652 32.7916 66.6724 34.4596 67.4062L34.5105 74.4363C34.5213 75.8914 35.7048 77.0711 37.1538 77.0702L52.1116 77.0664C52.8074 77.0662 53.4724 76.7884 53.9618 76.2945C54.4502 75.8002 54.7221 75.13 54.7165 74.4311L54.6658 67.4001C56.3194 66.6662 57.8866 65.7548 59.3381 64.6834L65.4239 68.196C66.0293 68.5455 66.7467 68.6399 67.4173 68.4593C68.088 68.2781 68.6584 67.8363 69.002 67.231L76.3863 54.2191C77.1014 52.9587 76.6597 51.3475 75.3996 50.6203L69.3204 47.1121C69.4179 46.1944 69.4624 45.2931 69.4558 44.3905C69.4491 43.4879 69.3918 42.5869 69.2807 41.6681L75.3092 38.1563C76.5589 37.4283 76.977 35.8169 76.2436 34.5572L68.6704 21.5496C68.318 20.9446 67.7414 20.5026 67.0678 20.3221C66.3974 20.142 65.6855 20.2353 65.087 20.5808C65.0843 20.5824 65.0813 20.5841 65.0785 20.5857L59.0434 24.1005C57.5764 23.0277 56.0009 22.1202 54.3312 21.386L54.28 14.3563C54.2748 13.6574 53.9937 12.9876 53.4982 12.4932C53.0027 11.9993 52.3331 11.7217 51.6369 11.7219L36.6793 11.7262C36.2056 11.7265 35.7624 11.8527 35.3803 12.0734C34.5934 12.5277 34.0671 13.3823 34.074 14.3621L34.1252 21.3928C32.4678 22.1278 30.901 23.0393 29.4544 24.1087L23.3684 20.5965C22.7628 20.2474 22.0458 20.1529 21.3748 20.3337C20.7047 20.5144 20.1345 20.9562 19.7911 21.5619ZM28.4128 29.5661C29.3815 30.1251 30.5927 30.0099 31.4306 29.2842C33.2388 27.7175 35.3683 26.4795 37.6575 25.6623C38.7033 25.289 39.3957 24.2946 39.3876 23.1781L39.3422 16.9948L49.0512 16.9925L49.0962 23.1755C49.1041 24.292 49.8121 25.287 50.8623 25.659C53.1777 26.4794 55.2916 27.6972 57.1447 29.2788C57.9925 30.0022 59.1983 30.1159 60.1561 29.5629C60.1588 29.5613 60.1619 29.5596 60.1645 29.558L65.4723 26.4671L70.3891 34.9114L65.0823 38.0025C64.1238 38.5612 63.6237 39.6678 63.8344 40.7653C64.077 42.0276 64.1991 43.2141 64.2071 44.3914C64.2157 45.5706 64.1113 46.7564 63.8871 48.0163C63.6918 49.1144 64.2081 50.2212 65.1748 50.7793L70.5263 53.8678L65.7334 62.3145L60.3828 59.227C59.4161 58.6693 58.208 58.7794 57.3687 59.5054C55.5464 61.077 53.4156 62.3162 51.135 63.1297C50.0897 63.5003 49.3964 64.4977 49.4043 65.6138L49.4492 71.7973L39.74 71.7999L39.6952 65.6166C39.6868 64.5006 38.9794 63.5059 37.9293 63.1334C35.6171 62.3135 33.5019 61.095 31.6425 59.5114C30.7947 58.7895 29.5902 58.6768 28.633 59.2294C28.63 59.2312 28.6269 59.233 28.624 59.2347L23.3206 62.325L18.4044 53.8817L23.7084 50.7939C24.666 50.2361 25.1663 49.131 24.9572 48.0343C24.7145 46.7591 24.5921 45.5709 24.5833 44.4011C24.5749 43.2307 24.6797 42.0423 24.9042 40.7676C25.0972 39.6707 24.581 38.566 23.6152 38.009L18.2662 34.924L23.06 26.4775L28.4128 29.5661Z" fill="white"/>
<path d="M30.2046 44.3997C30.2318 48.2062 31.7345 51.7844 34.4344 54.4754C37.1343 57.1664 40.7097 58.648 44.5004 58.6469C46.9722 58.6465 49.4026 57.9974 51.5285 56.77C55.9209 54.2341 58.6266 49.4912 58.5897 44.3927C58.5322 36.5347 52.119 30.1434 44.2935 30.1455C41.8216 30.1463 39.3914 30.7957 37.2655 32.0231C32.8732 34.5586 30.1672 39.3013 30.2046 44.3997ZM35.4527 44.3985C35.4292 41.185 37.1358 38.1949 39.9058 36.5956C41.2427 35.8237 42.7735 35.4155 44.332 35.4149C49.2637 35.4138 53.3052 39.4416 53.3416 44.394C53.3647 47.6075 51.6582 50.5978 48.8883 52.197C47.5514 52.9688 46.0208 53.3769 44.462 53.3769C42.0727 53.3776 39.82 52.4441 38.1181 50.7484C36.4168 49.0523 35.4701 46.7973 35.4527 44.3985Z" fill="white"/>
</svg>
