<svg width="46" height="30" viewBox="0 0 46 30" fill="none" xmlns="http://www.w3.org/2000/svg">
<path d="M43.5 3.23684H2.28947C2.09682 3.23684 1.90133 3.15814 1.74905 3.00061C1.5951 2.84135 1.5 2.61484 1.5 2.36842C1.5 2.122 1.5951 1.89549 1.74905 1.73623C1.90133 1.5787 2.09682 1.5 2.28947 1.5H43.5C43.6927 1.5 43.8881 1.5787 44.0404 1.73623C44.1944 1.89548 44.2895 2.12199 44.2895 2.36842C44.2895 2.61485 44.1944 2.84136 44.0404 3.00061C43.8881 3.15814 43.6927 3.23684 43.5 3.23684Z" fill="#263843" stroke="#263843" stroke-width="3"/>
<path d="M43.5 15.8684H2.28947C2.09682 15.8684 1.90133 15.7897 1.74905 15.6321C1.5951 15.4729 1.5 15.2464 1.5 15C1.5 14.7535 1.5951 14.527 1.74905 14.3678C1.90133 14.2102 2.09682 14.1315 2.28947 14.1315H43.5C43.6927 14.1315 43.8881 14.2102 44.0404 14.3678C44.1944 14.527 44.2895 14.7535 44.2895 15C44.2895 15.2464 44.1944 15.4729 44.0404 15.6321C43.8881 15.7897 43.6927 15.8684 43.5 15.8684Z" fill="#263843" stroke="#263843" stroke-width="3"/>
<path d="M43.5 28.5H2.28947C2.09682 28.5 1.90133 28.4213 1.74905 28.2638C1.5951 28.1045 1.5 27.878 1.5 27.6316C1.5 27.3852 1.5951 27.1587 1.74905 26.9994C1.90133 26.8419 2.09682 26.7632 2.28947 26.7632H43.5C43.6927 26.7632 43.8881 26.8419 44.0404 26.9994C44.1944 27.1587 44.2895 27.3852 44.2895 27.6316C44.2895 27.878 44.1944 28.1045 44.0404 28.2638C43.8881 28.4213 43.6927 28.5 43.5 28.5Z" fill="#263843" stroke="#263843" stroke-width="3"/>
</svg>
