<svg width="34" height="38" viewBox="0 0 34 38" fill="none" xmlns="http://www.w3.org/2000/svg">
<path fill-rule="evenodd" clip-rule="evenodd" d="M33.6663 8.58343C33.6663 8.5834 33.6663 8.58347 33.6663 8.58343C33.6663 7.01598 32.9163 5.69686 31.9198 4.68714C30.9321 3.68639 29.6062 2.88071 28.1323 2.24903C25.1771 0.982491 21.2396 0.25 16.9997 0.25C12.7597 0.25 8.82229 0.982491 5.86704 2.24903C4.39311 2.88071 3.06723 3.68639 2.07956 4.68714C1.08306 5.69686 0.333008 7.01588 0.333008 8.58333C0.333008 8.58331 0.333008 8.58336 0.333008 8.58333V21.0833H0.797888C0.797882 21.0833 0.797895 21.0833 0.797888 21.0833H0.333008V29.4167C0.333008 30.9841 1.08306 32.3031 2.07956 33.3129C3.06723 34.3136 4.39311 35.1193 5.86704 35.751C8.82229 37.0175 12.7597 37.75 16.9997 37.75C21.2396 37.75 25.1771 37.0175 28.1323 35.751C29.6062 35.1193 30.9321 34.3136 31.9198 33.3129C32.9163 32.3031 33.6663 30.9841 33.6663 29.4167V21.0836L33.2014 21.0834C33.2014 21.0834 33.2014 21.0834 33.2014 21.0834L33.6663 21.0836V8.58343ZM5.04518 7.61396C4.56577 8.09972 4.49967 8.4249 4.49967 8.58333C4.49967 8.58331 4.49967 8.58336 4.49967 8.58333C4.4997 8.7418 4.56585 9.06702 5.04518 9.55271C5.53343 10.0474 6.34323 10.5885 7.50837 11.0879C9.83124 12.0834 13.1855 12.75 16.9997 12.75C20.8139 12.75 24.1681 12.0834 26.491 11.0879C27.6561 10.5885 28.4659 10.0474 28.9542 9.55271C29.4335 9.06704 29.4996 8.74191 29.4997 8.58343C29.4997 8.5834 29.4997 8.58347 29.4997 8.58343C29.4997 8.425 29.4336 8.09972 28.9542 7.61396C28.4659 7.11924 27.6561 6.57815 26.491 6.0788C24.1681 5.08329 20.8139 4.41667 16.9997 4.41667C13.1855 4.41667 9.83124 5.08329 7.50837 6.0788C6.34323 6.57815 5.53343 7.11924 5.04518 7.61396ZM29.4997 14.2548C29.0633 14.4942 28.6055 14.7149 28.1323 14.9176C25.1771 16.1842 21.2396 16.9167 16.9997 16.9167C12.7597 16.9167 8.82229 16.1842 5.86704 14.9176C5.3939 14.7149 4.93601 14.4942 4.49967 14.2548V19C4.49967 19.1584 4.56577 19.4836 5.04518 19.9694C5.53343 20.4641 6.34322 21.0052 7.50837 21.5045C9.83124 22.5 13.1855 23.1667 16.9997 23.1667C20.8139 23.1667 24.1681 22.5 26.491 21.5045C27.6561 21.0052 28.4659 20.4641 28.9542 19.9694C29.4336 19.4836 29.4997 19.1584 29.4997 19V14.2548ZM29.4997 24.6715C29.0633 24.9108 28.6055 25.1315 28.1323 25.3343C25.1771 26.6008 21.2396 27.3333 16.9997 27.3333C12.7597 27.3333 8.82229 26.6008 5.86704 25.3343C5.3939 25.1315 4.93601 24.9108 4.49967 24.6715V29.4167C4.49967 29.5751 4.56577 29.9003 5.04518 30.386C5.53343 30.8808 6.34322 31.4219 7.50837 31.9212C9.83124 32.9167 13.1855 33.5833 16.9997 33.5833C20.8139 33.5833 24.1681 32.9167 26.491 31.9212C27.6561 31.4219 28.4659 30.8808 28.9542 30.386C29.4336 29.9003 29.4997 29.5751 29.4997 29.4167V24.6715Z" fill="#263843"/>
</svg>
