<svg width="47" height="44" viewBox="0 0 47 44" fill="none" xmlns="http://www.w3.org/2000/svg">
<path d="M30.6207 5.64742C34.0617 5.07391 36.4228 4.68543 38.2058 4.64236C39.9305 4.60069 40.7266 4.89945 41.2764 5.36523C41.8262 5.831 42.2518 6.56713 42.4942 8.27523C42.7449 10.041 42.7498 12.4339 42.7498 15.9224V28.0775C42.7498 31.566 42.7449 33.9589 42.4942 35.7246C42.2518 37.4327 41.8262 38.1689 41.2764 38.6346C40.7266 39.1004 39.9305 39.3992 38.2058 39.3575C36.4228 39.3144 34.0617 38.926 30.6207 38.3524L27.139 37.7722C25.4234 37.4862 24.3275 37.2998 23.5262 37.0612C22.7805 36.8392 22.5435 36.6409 22.4102 36.4835C22.2769 36.3262 22.1203 36.0598 22.0239 35.2878C21.9203 34.4581 21.9165 33.3465 21.9165 31.6072V30.4707H17.7498L17.7498 31.7302C17.7497 33.3107 17.7497 34.6855 17.8893 35.804C18.0398 37.0092 18.3768 38.1685 19.231 39.1768C20.0851 40.185 21.1732 40.7081 22.3373 41.0546C23.4176 41.3763 24.7736 41.6022 26.3326 41.8619L30.0943 42.4889C33.3374 43.0294 35.9917 43.4719 38.1051 43.523C40.3112 43.5763 42.3093 43.2204 43.9696 41.8139C45.63 40.4074 46.3095 38.495 46.6196 36.3102C46.9167 34.2171 46.9166 31.5263 46.9165 28.2383V15.7616C46.9166 12.4736 46.9167 9.78281 46.6196 7.6897C46.3095 5.50491 45.63 3.59248 43.9696 2.18598C42.3093 0.779469 40.3112 0.423607 38.1051 0.476905C35.9917 0.527966 33.3375 0.970389 30.0943 1.51101L26.3327 2.13793C24.7737 2.39768 23.4176 2.6236 22.3373 2.94525C21.1732 3.2918 20.0851 3.81485 19.231 4.82312C18.3768 5.83138 18.0398 6.99067 17.8893 8.19586C17.7497 9.31441 17.7497 10.6891 17.7498 12.2696L17.7498 13.9415H21.9165V12.3927C21.9165 10.6534 21.9203 9.54177 22.0239 8.71207C22.1203 7.94009 22.2769 7.67369 22.4102 7.51635C22.5435 7.359 22.7805 7.16068 23.5262 6.9387C24.3275 6.70011 25.4234 6.51363 27.139 6.22769L30.6207 5.64742Z" fill="#263843"/>
<path d="M9.87303 10.2818L0.498535 21.9999L9.87303 33.718L13.1266 31.1152L7.50114 24.0833H21.9165C23.0671 24.0833 23.9998 23.1505 23.9998 21.9999C23.9998 20.8493 23.0671 19.9166 21.9165 19.9166H7.50114L13.1266 12.8847L9.87303 10.2818Z" fill="#263843"/>
</svg>
