<svg width="50" height="50" viewBox="0 0 50 50" fill="none" xmlns="http://www.w3.org/2000/svg">
<path d="M29.4771 4C29.4771 2.89543 28.5816 2 27.4771 2C26.3725 2 25.4771 2.89543 25.4771 4H29.4771ZM25.4771 4V6.80966H29.4771V4H25.4771Z" fill="#263843"/>
<path d="M25.4771 47C25.4771 48.1046 26.3725 49 27.4771 49C28.5816 49 29.4771 48.1046 29.4771 47H25.4771ZM29.4771 47V36.25H25.4771V47H29.4771Z" fill="#263843"/>
<path d="M27.4771 18.0483V23.6677" stroke="#263843" stroke-width="4"/>
<path d="M38.7158 26.2676C38.7158 25.7075 38.7158 25.4275 38.6068 25.2136C38.511 25.0254 38.358 24.8725 38.1698 24.7766C37.9559 24.6676 37.6759 24.6676 37.1158 24.6676H11.282C11.0374 24.6676 10.9151 24.6676 10.8 24.6952C10.698 24.7197 10.6004 24.7601 10.5109 24.815C10.41 24.8768 10.3236 24.9633 10.1506 25.1362L6.13128 29.1555C5.73527 29.5516 5.53726 29.7496 5.46307 29.9779C5.39781 30.1787 5.39781 30.3951 5.46307 30.5959C5.53726 30.8243 5.73527 31.0223 6.13128 31.4183L10.1506 35.4376C10.3236 35.6106 10.41 35.697 10.5109 35.7589C10.6004 35.8137 10.698 35.8541 10.8 35.8786C10.9151 35.9062 11.0374 35.9062 11.282 35.9062H37.1158C37.6759 35.9062 37.9559 35.9062 38.1698 35.7972C38.358 35.7014 38.511 35.5484 38.6068 35.3602C38.7158 35.1463 38.7158 34.8663 38.7158 34.3062V26.2676Z" fill="white" stroke="#263843" stroke-width="4"/>
<path d="M13.4292 8.40969C13.4292 7.84964 13.4292 7.56961 13.5382 7.3557C13.6341 7.16754 13.787 7.01456 13.9752 6.91869C14.1891 6.80969 14.4691 6.80969 15.0292 6.80969H40.863C41.1076 6.80969 41.2299 6.80969 41.345 6.83732C41.4471 6.86182 41.5446 6.90222 41.6341 6.95705C41.735 7.01889 41.8215 7.10537 41.9944 7.27832L46.0137 11.2976C46.4098 11.6937 46.6078 11.8917 46.6819 12.12C46.7472 12.3208 46.7472 12.5372 46.6819 12.738C46.6078 12.9664 46.4098 13.1644 46.0137 13.5604L41.9944 17.5797C41.8215 17.7527 41.735 17.8391 41.6341 17.901C41.5446 17.9558 41.4471 17.9962 41.345 18.0207C41.2299 18.0483 41.1076 18.0483 40.863 18.0483H15.0292C14.4691 18.0483 14.1891 18.0483 13.9752 17.9393C13.787 17.8435 13.6341 17.6905 13.5382 17.5023C13.4292 17.2884 13.4292 17.0084 13.4292 16.4483V8.40969Z" fill="white" stroke="#263843" stroke-width="4"/>
</svg>
