<svg width="524" height="92" viewBox="0 0 524 92" fill="none" xmlns="http://www.w3.org/2000/svg">
<g clip-path="url(#clip0_1707_5063)">
<path d="M0 20C0 8.95431 8.95431 0 20 0H504C515.046 0 524 8.95431 524 20V92H0V20Z" fill="#B8C2E3" fill-opacity="0.25"/>
<path d="M470.68 39.6146C470.68 39.5493 470.681 39.4839 470.681 39.4184C470.681 29.2462 462.433 21 452.259 21C442.085 21 433.838 29.2462 433.838 39.4184C433.838 48.4839 440.388 56.0197 449.015 57.5521C450.88 63.8981 456.748 68.5314 463.698 68.5314C472.149 68.5314 479 61.6817 479 53.2322C479 47.2972 475.62 42.1516 470.68 39.6146Z" fill="#0A7650"/>
<path d="M447.261 29.9121C449.549 25.9512 455.267 25.9512 457.554 29.9121L478.01 65.3379C480.298 69.2988 477.439 74.25 472.864 74.25H452.408H431.951C427.377 74.25 424.518 69.2988 426.805 65.3379L447.261 29.9121Z" fill="#82C9A0"/>
<path d="M456.122 92H448.397L449.665 53.3808H454.508L456.122 92Z" fill="#263843"/>
<path d="M452.556 40.7552C452.556 41.9857 451.559 42.9833 450.328 42.9833C449.097 42.9833 448.099 41.9857 448.099 40.7552C448.099 39.5247 449.097 38.5272 450.328 38.5272C451.559 38.5272 452.556 39.5247 452.556 40.7552Z" fill="#0A7650"/>
<path d="M455.527 34.2197C455.527 35.4502 454.53 36.4477 453.299 36.4477C452.068 36.4477 451.071 35.4502 451.071 34.2197C451.071 32.9892 452.068 31.9916 453.299 31.9916C454.53 31.9916 455.527 32.9892 455.527 34.2197Z" fill="#0A7650"/>
<path d="M460.876 42.5377C460.876 43.7682 459.878 44.7657 458.647 44.7657C457.417 44.7657 456.419 43.7682 456.419 42.5377C456.419 41.3071 457.417 40.3096 458.647 40.3096C459.878 40.3096 460.876 41.3071 460.876 42.5377Z" fill="#0A7650"/>
<path d="M446.317 44.4686C446.317 45.289 445.652 45.954 444.831 45.954C444.011 45.954 443.346 45.289 443.346 44.4686C443.346 43.6483 444.011 42.9833 444.831 42.9833C445.652 42.9833 446.317 43.6483 446.317 44.4686Z" fill="#0A7650"/>
<path d="M450.179 48.0335C450.179 48.8538 449.514 49.5188 448.694 49.5188C447.873 49.5188 447.208 48.8538 447.208 48.0335C447.208 47.2131 447.873 46.5481 448.694 46.5481C449.514 46.5481 450.179 47.2131 450.179 48.0335Z" fill="#0A7650"/>
<path d="M457.013 48.9247C457.013 49.745 456.348 50.41 455.527 50.41C454.707 50.41 454.042 49.745 454.042 48.9247C454.042 48.1043 454.707 47.4393 455.527 47.4393C456.348 47.4393 457.013 48.1043 457.013 48.9247Z" fill="#0A7650"/>
<path d="M464.441 45.954C464.441 46.7743 463.776 47.4393 462.955 47.4393C462.135 47.4393 461.47 46.7743 461.47 45.954C461.47 45.1336 462.135 44.4686 462.955 44.4686C463.776 44.4686 464.441 45.1336 464.441 45.954Z" fill="#0A7650"/>
<path d="M442.751 48.0335C442.751 48.8538 442.086 49.5188 441.266 49.5188C440.445 49.5188 439.78 48.8538 439.78 48.0335C439.78 47.2131 440.445 46.5481 441.266 46.5481C442.086 46.5481 442.751 47.2131 442.751 48.0335Z" fill="#0A7650"/>
<path d="M446.317 52.4895C446.317 52.9817 445.918 53.3808 445.425 53.3808C444.933 53.3808 444.534 52.9817 444.534 52.4895C444.534 51.9973 444.933 51.5983 445.425 51.5983C445.918 51.5983 446.317 51.9973 446.317 52.4895Z" fill="#0A7650"/>
<path d="M462.361 51.5983C462.361 52.0905 461.962 52.4895 461.47 52.4895C460.978 52.4895 460.579 52.0905 460.579 51.5983C460.579 51.1061 460.978 50.7071 461.47 50.7071C461.962 50.7071 462.361 51.1061 462.361 51.5983Z" fill="#0A7650"/>
<path d="M459.39 57.5398C459.39 58.032 458.991 58.431 458.499 58.431C458.006 58.431 457.607 58.032 457.607 57.5398C457.607 57.0475 458.006 56.6485 458.499 56.6485C458.991 56.6485 459.39 57.0475 459.39 57.5398Z" fill="#0A7650"/>
<path d="M438.592 53.3808C438.592 53.873 438.193 54.272 437.7 54.272C437.208 54.272 436.809 53.873 436.809 53.3808C436.809 52.8886 437.208 52.4895 437.7 52.4895C438.193 52.4895 438.592 52.8886 438.592 53.3808Z" fill="#0A7650"/>
<path d="M467.709 54.272C467.709 54.7642 467.31 55.1632 466.818 55.1632C466.326 55.1632 465.927 54.7642 465.927 54.272C465.927 53.7798 466.326 53.3808 466.818 53.3808C467.31 53.3808 467.709 53.7798 467.709 54.272Z" fill="#0A7650"/>
<path d="M435.918 61.5502C435.918 61.7963 435.718 61.9958 435.472 61.9958C435.226 61.9958 435.026 61.7963 435.026 61.5502C435.026 61.3041 435.226 61.1046 435.472 61.1046C435.718 61.1046 435.918 61.3041 435.918 61.5502Z" fill="#0A7650"/>
<path d="M446.317 62.1444C446.317 62.3905 446.117 62.59 445.871 62.59C445.625 62.59 445.425 62.3905 445.425 62.1444C445.425 61.8983 445.625 61.6987 445.871 61.6987C446.117 61.6987 446.317 61.8983 446.317 62.1444Z" fill="#0A7650"/>
<path d="M442.751 59.1736C442.751 59.4197 442.552 59.6192 442.306 59.6192C442.059 59.6192 441.86 59.4197 441.86 59.1736C441.86 58.9275 442.059 58.728 442.306 58.728C442.552 58.728 442.751 58.9275 442.751 59.1736Z" fill="#0A7650"/>
<path d="M463.55 59.4707C463.55 59.7168 463.35 59.9163 463.104 59.9163C462.858 59.9163 462.658 59.7168 462.658 59.4707C462.658 59.2246 462.858 59.0251 463.104 59.0251C463.35 59.0251 463.55 59.2246 463.55 59.4707Z" fill="#0A7650"/>
<path d="M365.242 35.0308C361.938 32.6242 357.246 34.6685 356.797 38.7106L356.566 40.7927L353.162 39.5544C349.313 38.1545 345.38 41.4127 346.082 45.4191L348.779 60.8029C349.481 64.8093 354.292 66.5592 357.438 63.9527L362.779 59.5287L376.92 53.3665C380.674 51.731 381.235 46.6784 377.93 44.2718L365.242 35.0308Z" fill="#0A7650"/>
<path d="M385 57.5309C385 67.961 376.477 76.4163 365.962 76.4163C355.448 76.4163 346.925 67.961 346.925 57.5309C346.925 47.1008 355.448 38.6456 365.962 38.6456C376.477 38.6456 385 47.1008 385 57.5309Z" fill="#82C9A0"/>
<path d="M369.291 92H362.368L363.504 57.663H367.844L369.291 92Z" fill="#263843"/>
<path d="M363.727 44.1263C364.188 43.3339 365.341 43.3339 365.802 44.1263C366.263 44.9187 365.687 45.9092 364.764 45.9092C363.842 45.9092 363.265 44.9187 363.727 44.1263Z" fill="#82C9A0"/>
<path d="M374.806 45.5466C374.701 45.4443 374.699 45.2771 374.802 45.1731C374.906 45.069 375.074 45.0676 375.179 45.1698L376.888 46.836C376.993 46.9382 376.995 47.1055 376.891 47.2095C376.788 47.3135 376.62 47.315 376.515 47.2128L374.806 45.5466Z" fill="#0A7650"/>
<path d="M362.025 50.3009C361.92 50.1987 361.919 50.0315 362.022 49.9274C362.125 49.8234 362.294 49.8219 362.398 49.9241L364.108 51.5903C364.213 51.6926 364.214 51.8598 364.111 51.9639C364.008 52.0679 363.839 52.0694 363.734 51.9671L362.025 50.3009Z" fill="#0A7650"/>
<path d="M352.972 47.6596C352.867 47.5574 352.866 47.3901 352.969 47.2861C353.072 47.1821 353.241 47.1806 353.346 47.2828L355.055 48.949C355.16 49.0513 355.161 49.2185 355.058 49.3225C354.955 49.4266 354.786 49.4281 354.682 49.3258L352.972 47.6596Z" fill="#0A7650"/>
<path d="M358.925 53.8878C359.029 53.7847 359.198 53.7847 359.302 53.8878C359.406 53.991 359.406 54.1582 359.302 54.2613L357.607 55.9423C357.503 56.0454 357.335 56.0454 357.231 55.9423C357.127 55.8391 357.127 55.6719 357.231 55.5687L358.925 53.8878Z" fill="#0A7650"/>
<path d="M374.368 69.4715C374.472 69.3684 374.641 69.3684 374.745 69.4715C374.849 69.5747 374.849 69.7419 374.745 69.8451L373.051 71.526C372.947 71.6291 372.778 71.6291 372.674 71.526C372.57 71.4228 372.57 71.2556 372.674 71.1524L374.368 69.4715Z" fill="#0A7650"/>
<path d="M358.659 42.2661C358.763 42.1629 358.932 42.1629 359.036 42.2661C359.14 42.3692 359.14 42.5364 359.036 42.6396L357.341 44.3205C357.237 44.4237 357.069 44.4237 356.965 44.3205C356.861 44.2174 356.861 44.0501 356.965 43.947L358.659 42.2661Z" fill="#0A7650"/>
<path d="M369.98 46.2964C370.018 46.1555 370.164 46.0719 370.306 46.1096C370.448 46.1474 370.532 46.2922 370.494 46.4331L369.874 48.7293C369.836 48.8702 369.69 48.9538 369.548 48.916C369.406 48.8783 369.321 48.7335 369.36 48.5926L369.98 46.2964Z" fill="#0A7650"/>
<path d="M359.596 60.8236C359.634 60.6827 359.78 60.599 359.922 60.6368C360.064 60.6746 360.148 60.8194 360.11 60.9603L359.49 63.2565C359.452 63.3974 359.306 63.481 359.164 63.4432C359.022 63.4055 358.937 63.2607 358.975 63.1197L359.596 60.8236Z" fill="#0A7650"/>
<path d="M371.844 64.2573C371.882 64.1164 372.028 64.0327 372.17 64.0705C372.312 64.1083 372.396 64.2531 372.358 64.394L371.738 66.6902C371.7 66.8311 371.554 66.9147 371.412 66.8769C371.27 66.8392 371.185 66.6944 371.223 66.5534L371.844 64.2573Z" fill="#0A7650"/>
<path d="M376.104 52.1073C376.142 51.9664 376.288 51.8827 376.43 51.9205C376.572 51.9582 376.656 52.1031 376.618 52.244L375.998 54.5402C375.96 54.6811 375.814 54.7647 375.672 54.7269C375.53 54.6892 375.445 54.5443 375.484 54.4034L376.104 52.1073Z" fill="#0A7650"/>
<path d="M350.809 53.9562C350.847 53.8153 350.993 53.7316 351.135 53.7694C351.277 53.8072 351.361 53.952 351.323 54.0929L350.703 56.3891C350.665 56.53 350.519 56.6136 350.377 56.5758C350.235 56.5381 350.151 56.3933 350.189 56.2523L350.809 53.9562Z" fill="#0A7650"/>
<path d="M379.299 62.4084C379.337 62.2674 379.483 62.1838 379.625 62.2216C379.767 62.2593 379.851 62.4042 379.813 62.5451L379.193 64.8413C379.155 64.9822 379.009 65.0658 378.867 65.028C378.725 64.9903 378.641 64.8454 378.679 64.7045L379.299 62.4084Z" fill="#0A7650"/>
<path d="M381.405 57.6276C381.332 57.5013 381.376 57.3397 381.503 57.2668C381.63 57.1939 381.793 57.2372 381.867 57.3635L383.065 59.4222C383.138 59.5485 383.095 59.7101 382.967 59.783C382.84 59.8559 382.677 59.8126 382.604 59.6863L381.405 57.6276Z" fill="#0A7650"/>
<path d="M380.074 50.232C380.001 50.1056 380.044 49.9441 380.172 49.8711C380.299 49.7982 380.462 49.8415 380.535 49.9678L381.734 52.0265C381.807 52.1529 381.763 52.3144 381.636 52.3873C381.509 52.4603 381.346 52.417 381.272 52.2907L380.074 50.232Z" fill="#0A7650"/>
<path d="M365.696 40.7232C365.623 40.5969 365.666 40.4354 365.794 40.3624C365.921 40.2895 366.084 40.3328 366.157 40.4591L367.355 42.5178C367.429 42.6441 367.385 42.8057 367.258 42.8786C367.131 42.9516 366.968 42.9083 366.894 42.7819L365.696 40.7232Z" fill="#0A7650"/>
<path d="M365.696 40.7232C365.623 40.5969 365.666 40.4354 365.794 40.3624C365.921 40.2895 366.084 40.3328 366.157 40.4591L367.355 42.5178C367.429 42.6441 367.385 42.8057 367.258 42.8786C367.131 42.9516 366.968 42.9083 366.894 42.7819L365.696 40.7232Z" fill="#0A7650"/>
<path d="M369.157 54.9863C369.084 54.86 369.128 54.6984 369.255 54.6255C369.382 54.5526 369.545 54.5958 369.619 54.7222L370.817 56.7809C370.89 56.9072 370.847 57.0687 370.719 57.1417C370.592 57.2146 370.429 57.1713 370.356 57.045L369.157 54.9863Z" fill="#0A7650"/>
<path d="M358.241 69.5135C358.167 69.3872 358.211 69.2256 358.338 69.1527C358.466 69.0797 358.628 69.123 358.702 69.2494L359.9 71.3081C359.974 71.4344 359.93 71.5959 359.803 71.6689C359.675 71.7418 359.512 71.6985 359.439 71.5722L358.241 69.5135Z" fill="#0A7650"/>
<path d="M353.866 62.0759C353.97 61.9727 354.139 61.9727 354.243 62.0759C354.347 62.179 354.347 62.3462 354.243 62.4494L352.548 64.1303C352.444 64.2335 352.276 64.2335 352.172 64.1303C352.068 64.0272 352.068 63.8599 352.172 63.7568L353.866 62.0759Z" fill="#0A7650"/>
<path d="M375.966 58.378C376.07 58.2749 376.239 58.2749 376.343 58.378C376.447 58.4812 376.447 58.6484 376.343 58.7516L374.648 60.4325C374.544 60.5356 374.376 60.5356 374.272 60.4325C374.168 60.3293 374.168 60.1621 374.272 60.0589L375.966 58.378Z" fill="#0A7650"/>
<path d="M295.97 10.1016C295.971 9.99955 295.972 9.89732 295.972 9.79498C295.972 -6.10805 283.056 -19 267.123 -19C251.19 -19 238.274 -6.10805 238.274 9.79498C238.274 23.9678 248.533 35.7492 262.043 38.1449C264.963 48.066 274.152 55.3096 285.037 55.3096C298.271 55.3096 309 44.601 309 31.3912C309 22.1126 303.707 14.068 295.97 10.1016Z" fill="#0A7650"/>
<path d="M259.296 -5.06694C262.878 -11.2594 271.833 -11.2594 275.415 -5.06695L307.45 50.3169C311.032 56.5094 306.555 64.25 299.391 64.25H267.355H235.32C228.156 64.25 223.679 56.5094 227.261 50.3169L259.296 -5.06694Z" fill="#82C9A0"/>
<path d="M273.172 92H261.074L263.06 31.6234H270.644L273.172 92Z" fill="#263843"/>
<path d="M267.588 11.8849C267.588 13.8087 266.026 15.3682 264.098 15.3682C262.171 15.3682 260.609 13.8087 260.609 11.8849C260.609 9.96118 262.171 8.40167 264.098 8.40167C266.026 8.40167 267.588 9.96118 267.588 11.8849Z" fill="#0A7650"/>
<path d="M272.241 1.66736C272.241 3.59112 270.679 5.15063 268.751 5.15063C266.824 5.15063 265.262 3.59112 265.262 1.66736C265.262 -0.25639 266.824 -1.8159 268.751 -1.8159C270.679 -1.8159 272.241 -0.25639 272.241 1.66736Z" fill="#0A7650"/>
<path d="M280.617 14.6715C280.617 16.5953 279.054 18.1548 277.127 18.1548C275.199 18.1548 273.637 16.5953 273.637 14.6715C273.637 12.7478 275.199 11.1883 277.127 11.1883C279.054 11.1883 280.617 12.7478 280.617 14.6715Z" fill="#0A7650"/>
<path d="M257.817 17.6904C257.817 18.9729 256.775 20.0126 255.49 20.0126C254.205 20.0126 253.164 18.9729 253.164 17.6904C253.164 16.4079 254.205 15.3682 255.49 15.3682C256.775 15.3682 257.817 16.4079 257.817 17.6904Z" fill="#0A7650"/>
<path d="M263.866 23.2636C263.866 24.5461 262.824 25.5858 261.539 25.5858C260.254 25.5858 259.213 24.5461 259.213 23.2636C259.213 21.9811 260.254 20.9414 261.539 20.9414C262.824 20.9414 263.866 21.9811 263.866 23.2636Z" fill="#0A7650"/>
<path d="M274.568 24.6569C274.568 25.9394 273.526 26.9791 272.241 26.9791C270.956 26.9791 269.915 25.9394 269.915 24.6569C269.915 23.3744 270.956 22.3347 272.241 22.3347C273.526 22.3347 274.568 23.3744 274.568 24.6569Z" fill="#0A7650"/>
<path d="M286.2 20.0126C286.2 21.2951 285.159 22.3347 283.874 22.3347C282.589 22.3347 281.547 21.2951 281.547 20.0126C281.547 18.7301 282.589 17.6904 283.874 17.6904C285.159 17.6904 286.2 18.7301 286.2 20.0126Z" fill="#0A7650"/>
<path d="M252.233 23.2636C252.233 24.5461 251.192 25.5858 249.907 25.5858C248.622 25.5858 247.58 24.5461 247.58 23.2636C247.58 21.9811 248.622 20.9414 249.907 20.9414C251.192 20.9414 252.233 21.9811 252.233 23.2636Z" fill="#0A7650"/>
<path d="M257.817 30.2301C257.817 30.9996 257.192 31.6234 256.421 31.6234C255.65 31.6234 255.025 30.9996 255.025 30.2301C255.025 29.4606 255.65 28.8368 256.421 28.8368C257.192 28.8368 257.817 29.4606 257.817 30.2301Z" fill="#0A7650"/>
<path d="M282.943 28.8368C282.943 29.6063 282.318 30.2301 281.547 30.2301C280.776 30.2301 280.151 29.6063 280.151 28.8368C280.151 28.0673 280.776 27.4435 281.547 27.4435C282.318 27.4435 282.943 28.0673 282.943 28.8368Z" fill="#0A7650"/>
<path d="M278.29 38.1255C278.29 38.895 277.665 39.5188 276.894 39.5188C276.123 39.5188 275.498 38.895 275.498 38.1255C275.498 37.356 276.123 36.7322 276.894 36.7322C277.665 36.7322 278.29 37.356 278.29 38.1255Z" fill="#0A7650"/>
<path d="M245.719 31.6234C245.719 32.3929 245.094 33.0167 244.323 33.0167C243.552 33.0167 242.927 32.3929 242.927 31.6234C242.927 30.8539 243.552 30.2301 244.323 30.2301C245.094 30.2301 245.719 30.8539 245.719 31.6234Z" fill="#0A7650"/>
<path d="M291.319 33.0167C291.319 33.7862 290.694 34.41 289.923 34.41C289.152 34.41 288.527 33.7862 288.527 33.0167C288.527 32.2472 289.152 31.6234 289.923 31.6234C290.694 31.6234 291.319 32.2472 291.319 33.0167Z" fill="#0A7650"/>
<path d="M241.531 44.3954C241.531 44.7801 241.219 45.092 240.833 45.092C240.448 45.092 240.135 44.7801 240.135 44.3954C240.135 44.0106 240.448 43.6987 240.833 43.6987C241.219 43.6987 241.531 44.0106 241.531 44.3954Z" fill="#0A7650"/>
<path d="M257.817 45.3243C257.817 45.709 257.504 46.0209 257.119 46.0209C256.733 46.0209 256.421 45.709 256.421 45.3243C256.421 44.9395 256.733 44.6276 257.119 44.6276C257.504 44.6276 257.817 44.9395 257.817 45.3243Z" fill="#0A7650"/>
<path d="M252.233 40.6799C252.233 41.0647 251.921 41.3766 251.535 41.3766C251.15 41.3766 250.837 41.0647 250.837 40.6799C250.837 40.2952 251.15 39.9833 251.535 39.9833C251.921 39.9833 252.233 40.2952 252.233 40.6799Z" fill="#0A7650"/>
<path d="M284.804 41.1444C284.804 41.5291 284.492 41.841 284.106 41.841C283.721 41.841 283.408 41.5291 283.408 41.1444C283.408 40.7596 283.721 40.4477 284.106 40.4477C284.492 40.4477 284.804 40.7596 284.804 41.1444Z" fill="#0A7650"/>
<path d="M160.057 -6.22272C154.38 -10.3721 146.32 -6.84737 145.549 0.121791L145.152 3.71157L139.303 1.57656C132.691 -0.837063 125.934 4.78049 127.141 11.6881L131.773 38.2119C132.98 45.1196 141.245 48.1366 146.65 43.6426L155.825 36.015L180.12 25.3905C186.567 22.5708 187.531 13.8593 181.854 9.70992L160.057 -6.22272Z" fill="#0A7650"/>
<path d="M194 32.5706C194 50.5535 179.357 65.1315 161.294 65.1315C143.231 65.1315 128.589 50.5535 128.589 32.5706C128.589 14.5877 143.231 0.00963402 161.294 0.00963402C179.357 0.00963402 194 14.5877 194 32.5706Z" fill="#82C9A0"/>
<path d="M167.012 92H155.119L157.072 32.7983H164.527L167.012 92Z" fill="#263843"/>
<path d="M157.453 9.45914C158.246 8.09294 160.226 8.09294 161.018 9.45914C161.811 10.8253 160.82 12.5331 159.236 12.5331C157.651 12.5331 156.661 10.8253 157.453 9.45914Z" fill="#82C9A0"/>
<path d="M176.487 11.9079C176.307 11.7316 176.304 11.4433 176.481 11.2639C176.658 11.0845 176.948 11.082 177.128 11.2583L180.064 14.131C180.244 14.3073 180.247 14.5956 180.07 14.775C179.893 14.9544 179.603 14.9569 179.423 14.7806L176.487 11.9079Z" fill="#0A7650"/>
<path d="M154.53 20.1051C154.35 19.9288 154.348 19.6404 154.525 19.4611C154.702 19.2817 154.992 19.2791 155.172 19.4554L158.108 22.3282C158.288 22.5044 158.291 22.7928 158.114 22.9722C157.937 23.1516 157.647 23.1541 157.467 22.9778L154.53 20.1051Z" fill="#0A7650"/>
<path d="M138.978 15.5511C138.798 15.3748 138.795 15.0865 138.972 14.9071C139.15 14.7277 139.439 14.7252 139.619 14.9015L142.556 17.7742C142.736 17.9505 142.738 18.2388 142.561 18.4182C142.384 18.5976 142.095 18.6001 141.914 18.4238L138.978 15.5511Z" fill="#0A7650"/>
<path d="M149.205 26.2893C149.384 26.1115 149.673 26.1115 149.852 26.2893C150.031 26.4672 150.031 26.7555 149.852 26.9334L146.941 29.8315C146.762 30.0093 146.473 30.0093 146.294 29.8315C146.115 29.6536 146.115 29.3653 146.294 29.1875L149.205 26.2893Z" fill="#0A7650"/>
<path d="M175.736 53.1578C175.914 52.98 176.204 52.98 176.383 53.1578C176.561 53.3356 176.561 53.624 176.383 53.8018L173.471 56.7C173.293 56.8778 173.003 56.8778 172.825 56.7C172.646 56.5221 172.646 56.2338 172.825 56.0559L175.736 53.1578Z" fill="#0A7650"/>
<path d="M148.748 6.25182C148.926 6.07398 149.216 6.07398 149.395 6.25182C149.573 6.42967 149.573 6.71801 149.395 6.89585L146.484 9.79399C146.305 9.97183 146.015 9.97183 145.837 9.79399C145.658 9.61614 145.658 9.3278 145.837 9.14996L148.748 6.25182Z" fill="#0A7650"/>
<path d="M168.196 13.2007C168.261 12.9577 168.512 12.8135 168.756 12.8786C169 12.9437 169.145 13.1934 169.08 13.4364L168.014 17.3953C167.949 17.6383 167.698 17.7824 167.454 17.7173C167.21 17.6522 167.065 17.4025 167.13 17.1596L168.196 13.2007Z" fill="#0A7650"/>
<path d="M150.356 38.2475C150.422 38.0046 150.673 37.8604 150.917 37.9255C151.161 37.9906 151.306 38.2403 151.24 38.4833L150.175 42.4422C150.109 42.6851 149.858 42.8293 149.614 42.7642C149.37 42.6991 149.226 42.4494 149.291 42.2065L150.356 38.2475Z" fill="#0A7650"/>
<path d="M171.398 44.1677C171.463 43.9248 171.714 43.7806 171.958 43.8457C172.202 43.9108 172.347 44.1605 172.282 44.4034L171.216 48.3624C171.151 48.6053 170.9 48.7495 170.656 48.6844C170.412 48.6193 170.267 48.3696 170.332 48.1266L171.398 44.1677Z" fill="#0A7650"/>
<path d="M178.717 23.2194C178.782 22.9765 179.033 22.8323 179.277 22.8974C179.521 22.9625 179.666 23.2122 179.6 23.4551L178.535 27.4141C178.469 27.657 178.219 27.8012 177.975 27.7361C177.731 27.671 177.586 27.4213 177.651 27.1783L178.717 23.2194Z" fill="#0A7650"/>
<path d="M135.262 26.4072C135.327 26.1643 135.578 26.0201 135.822 26.0852C136.066 26.1503 136.211 26.4 136.145 26.6429L135.08 30.6018C135.014 30.8448 134.763 30.989 134.519 30.9239C134.275 30.8588 134.131 30.6091 134.196 30.3661L135.262 26.4072Z" fill="#0A7650"/>
<path d="M184.206 40.9799C184.271 40.737 184.522 40.5928 184.766 40.6579C185.01 40.723 185.155 40.9727 185.089 41.2157L184.024 45.1746C183.959 45.4175 183.708 45.5617 183.464 45.4966C183.22 45.4315 183.075 45.1818 183.14 44.9388L184.206 40.9799Z" fill="#0A7650"/>
<path d="M187.825 32.7373C187.698 32.5195 187.773 32.2409 187.992 32.1152C188.211 31.9894 188.491 32.0641 188.617 32.2819L190.675 35.8313C190.802 36.0492 190.727 36.3277 190.508 36.4534C190.289 36.5792 190.01 36.5046 189.883 36.2867L187.825 32.7373Z" fill="#0A7650"/>
<path d="M185.538 19.9861C185.411 19.7683 185.486 19.4898 185.705 19.364C185.924 19.2383 186.204 19.3129 186.33 19.5307L188.388 23.0802C188.515 23.298 188.44 23.5765 188.221 23.7023C188.002 23.828 187.722 23.7534 187.596 23.5356L185.538 19.9861Z" fill="#0A7650"/>
<path d="M160.837 3.59181C160.711 3.37399 160.785 3.09547 161.004 2.96972C161.223 2.84397 161.503 2.91859 161.629 3.13641L163.688 6.68588C163.814 6.9037 163.739 7.18221 163.52 7.30797C163.301 7.43372 163.022 7.35909 162.895 7.14128L160.837 3.59181Z" fill="#0A7650"/>
<path d="M160.837 3.59181C160.711 3.37399 160.785 3.09547 161.004 2.96972C161.223 2.84397 161.503 2.91859 161.629 3.13641L163.688 6.68588C163.814 6.9037 163.739 7.18221 163.52 7.30797C163.301 7.43372 163.022 7.35909 162.895 7.14128L160.837 3.59181Z" fill="#0A7650"/>
<path d="M166.783 28.1833C166.657 27.9655 166.732 27.687 166.951 27.5612C167.17 27.4355 167.449 27.5101 167.576 27.7279L169.634 31.2774C169.76 31.4952 169.685 31.7737 169.467 31.8995C169.248 32.0252 168.968 31.9506 168.842 31.7328L166.783 28.1833Z" fill="#0A7650"/>
<path d="M148.029 53.2302C147.903 53.0124 147.978 52.7338 148.196 52.6081C148.415 52.4823 148.695 52.557 148.821 52.7748L150.88 56.3242C151.006 56.5421 150.931 56.8206 150.712 56.9463C150.493 57.0721 150.214 56.9975 150.087 56.7796L148.029 53.2302Z" fill="#0A7650"/>
<path d="M140.514 40.4067C140.693 40.2288 140.982 40.2288 141.161 40.4067C141.34 40.5845 141.34 40.8728 141.161 41.0507L138.25 43.9488C138.071 44.1267 137.782 44.1267 137.603 43.9488C137.424 43.771 137.424 43.4826 137.603 43.3048L140.514 40.4067Z" fill="#0A7650"/>
<path d="M178.48 34.0311C178.659 33.8532 178.948 33.8532 179.127 34.0311C179.306 34.2089 179.306 34.4973 179.127 34.6751L176.216 37.5733C176.037 37.7511 175.748 37.7511 175.569 37.5733C175.39 37.3954 175.39 37.1071 175.569 36.9292L178.48 34.0311Z" fill="#0A7650"/>
<path d="M87.3076 43.3037C87.3082 43.243 87.3085 43.1822 87.3085 43.1213C87.3085 33.6655 79.6834 26 70.2773 26C60.8713 26 53.2462 33.6655 53.2462 43.1213C53.2462 51.5484 59.3024 58.5536 67.2781 59.978C69.002 65.8771 74.4273 70.1841 80.8531 70.1841C88.6662 70.1841 95 63.8168 95 55.9623C95 50.4453 91.8751 45.662 87.3076 43.3037Z" fill="#0A7650"/>
<path d="M65.6568 34.2845C67.7714 30.6025 73.058 30.6025 75.1726 34.2845L94.0851 67.2155C96.1997 70.8975 93.5565 75.5 89.3273 75.5H70.4147H51.5021C47.2729 75.5 44.6296 70.8975 46.7442 67.2155L65.6568 34.2845Z" fill="#82C9A0"/>
<path d="M73.8484 92H66.7063L67.8789 56.1004H72.356L73.8484 92Z" fill="#263843"/>
<path d="M70.552 44.364C70.552 45.5079 69.6296 46.4351 68.4918 46.4351C67.354 46.4351 66.4316 45.5079 66.4316 44.364C66.4316 43.2202 67.354 42.2929 68.4918 42.2929C69.6296 42.2929 70.552 43.2202 70.552 44.364Z" fill="#0A7650"/>
<path d="M73.299 38.2887C73.299 39.4326 72.3766 40.3598 71.2388 40.3598C70.1009 40.3598 69.1786 39.4326 69.1786 38.2887C69.1786 37.1448 70.1009 36.2176 71.2388 36.2176C72.3766 36.2176 73.299 37.1448 73.299 38.2887Z" fill="#0A7650"/>
<path d="M78.2435 46.0209C78.2435 47.1648 77.3211 48.092 76.1833 48.092C75.0455 48.092 74.1231 47.1648 74.1231 46.0209C74.1231 44.8771 75.0455 43.9498 76.1833 43.9498C77.3211 43.9498 78.2435 44.8771 78.2435 46.0209Z" fill="#0A7650"/>
<path d="M64.7834 47.8159C64.7834 48.5785 64.1685 49.1967 63.4099 49.1967C62.6514 49.1967 62.0365 48.5785 62.0365 47.8159C62.0365 47.0533 62.6514 46.4351 63.4099 46.4351C64.1685 46.4351 64.7834 47.0533 64.7834 47.8159Z" fill="#0A7650"/>
<path d="M68.3545 51.1297C68.3545 51.8923 67.7395 52.5105 66.981 52.5105C66.2224 52.5105 65.6075 51.8923 65.6075 51.1297C65.6075 50.3671 66.2224 49.749 66.981 49.749C67.7395 49.749 68.3545 50.3671 68.3545 51.1297Z" fill="#0A7650"/>
<path d="M74.6725 51.9582C74.6725 52.7207 74.0575 53.3389 73.299 53.3389C72.5404 53.3389 71.9255 52.7207 71.9255 51.9582C71.9255 51.1956 72.5404 50.5774 73.299 50.5774C74.0575 50.5774 74.6725 51.1956 74.6725 51.9582Z" fill="#0A7650"/>
<path d="M81.5399 49.1967C81.5399 49.9592 80.925 50.5774 80.1664 50.5774C79.4078 50.5774 78.7929 49.9592 78.7929 49.1967C78.7929 48.4341 79.4078 47.8159 80.1664 47.8159C80.925 47.8159 81.5399 48.4341 81.5399 49.1967Z" fill="#0A7650"/>
<path d="M61.4871 51.1297C61.4871 51.8923 60.8721 52.5105 60.1136 52.5105C59.355 52.5105 58.7401 51.8923 58.7401 51.1297C58.7401 50.3671 59.355 49.749 60.1136 49.749C60.8721 49.749 61.4871 50.3671 61.4871 51.1297Z" fill="#0A7650"/>
<path d="M64.7834 55.272C64.7834 55.7295 64.4145 56.1004 63.9593 56.1004C63.5042 56.1004 63.1352 55.7295 63.1352 55.272C63.1352 54.8144 63.5042 54.4435 63.9593 54.4435C64.4145 54.4435 64.7834 54.8144 64.7834 55.272Z" fill="#0A7650"/>
<path d="M79.617 54.4435C79.617 54.9011 79.2481 55.272 78.7929 55.272C78.3378 55.272 77.9688 54.9011 77.9688 54.4435C77.9688 53.986 78.3378 53.6151 78.7929 53.6151C79.2481 53.6151 79.617 53.986 79.617 54.4435Z" fill="#0A7650"/>
<path d="M76.87 59.9665C76.87 60.4241 76.5011 60.795 76.046 60.795C75.5908 60.795 75.2219 60.4241 75.2219 59.9665C75.2219 59.509 75.5908 59.1381 76.046 59.1381C76.5011 59.1381 76.87 59.509 76.87 59.9665Z" fill="#0A7650"/>
<path d="M57.6413 56.1004C57.6413 56.558 57.2724 56.9289 56.8172 56.9289C56.3621 56.9289 55.9931 56.558 55.9931 56.1004C55.9931 55.6429 56.3621 55.272 56.8172 55.272C57.2724 55.272 57.6413 55.6429 57.6413 56.1004Z" fill="#0A7650"/>
<path d="M84.5615 56.9289C84.5615 57.3864 84.1926 57.7573 83.7375 57.7573C83.2823 57.7573 82.9134 57.3864 82.9134 56.9289C82.9134 56.4713 83.2823 56.1004 83.7375 56.1004C84.1926 56.1004 84.5615 56.4713 84.5615 56.9289Z" fill="#0A7650"/>
<path d="M55.169 63.6946C55.169 63.9233 54.9846 64.1088 54.757 64.1088C54.5294 64.1088 54.345 63.9233 54.345 63.6946C54.345 63.4658 54.5294 63.2803 54.757 63.2803C54.9846 63.2803 55.169 63.4658 55.169 63.6946Z" fill="#0A7650"/>
<path d="M64.7834 64.2469C64.7834 64.4756 64.5989 64.6611 64.3714 64.6611C64.1438 64.6611 63.9593 64.4756 63.9593 64.2469C63.9593 64.0181 64.1438 63.8326 64.3714 63.8326C64.5989 63.8326 64.7834 64.0181 64.7834 64.2469Z" fill="#0A7650"/>
<path d="M61.4871 61.4854C61.4871 61.7141 61.3026 61.8996 61.075 61.8996C60.8474 61.8996 60.663 61.7141 60.663 61.4854C60.663 61.2566 60.8474 61.0711 61.075 61.0711C61.3026 61.0711 61.4871 61.2566 61.4871 61.4854Z" fill="#0A7650"/>
<path d="M80.7158 61.7615C80.7158 61.9903 80.5313 62.1757 80.3037 62.1757C80.0762 62.1757 79.8917 61.9903 79.8917 61.7615C79.8917 61.5327 80.0762 61.3473 80.3037 61.3473C80.5313 61.3473 80.7158 61.5327 80.7158 61.7615Z" fill="#0A7650"/>
</g>
<defs>
<clipPath id="clip0_1707_5063">
<rect width="524" height="92" fill="white"/>
</clipPath>
</defs>
</svg>
