<svg width="50" height="52" viewBox="0 0 50 52" fill="none" xmlns="http://www.w3.org/2000/svg">
<path d="M28.5 4C28.5 3.17157 27.8284 2.5 27 2.5C26.1716 2.5 25.5 3.17157 25.5 4H28.5ZM25.5 4V6.875H28.5V4H25.5Z" fill="#263843"/>
<path d="M28.5 50C28.5 50.8284 27.8284 51.5 27 51.5C26.1716 51.5 25.5 50.8284 25.5 50H28.5ZM25.5 50V35.625H28.5V50H25.5Z" fill="#263843"/>
<path d="M27 18.375V24.125" stroke="#263843" stroke-width="3"/>
<path d="M38.5 25.725C38.5 25.1649 38.5 24.8849 38.391 24.671C38.2951 24.4828 38.1422 24.3299 37.954 24.234C37.7401 24.125 37.4601 24.125 36.9 24.125H10.4127C10.1682 24.125 10.0459 24.125 9.93077 24.1526C9.82873 24.1771 9.73119 24.2175 9.64171 24.2724C9.5408 24.3342 9.45432 24.4207 9.28137 24.5936L5.13137 28.7436C4.73536 29.1396 4.53735 29.3377 4.46316 29.566C4.3979 29.7668 4.3979 29.9832 4.46316 30.184C4.53735 30.4123 4.73536 30.6104 5.13137 31.0064L9.28137 35.1564C9.45432 35.3293 9.5408 35.4158 9.64171 35.4776C9.73119 35.5325 9.82873 35.5729 9.93077 35.5974C10.0459 35.625 10.1682 35.625 10.4127 35.625H36.9C37.4601 35.625 37.7401 35.625 37.954 35.516C38.1422 35.4201 38.2951 35.2672 38.391 35.079C38.5 34.8651 38.5 34.5851 38.5 34.025V25.725Z" fill="white" stroke="#263843" stroke-width="3"/>
<path d="M12.625 8.475C12.625 7.91495 12.625 7.63492 12.734 7.42101C12.8299 7.23285 12.9828 7.07987 13.171 6.98399C13.3849 6.875 13.6649 6.875 14.225 6.875H40.7123C40.9568 6.875 41.0791 6.875 41.1942 6.90263C41.2963 6.92713 41.3938 6.96753 41.4833 7.02236C41.5842 7.0842 41.6707 7.17068 41.8436 7.34363L45.9936 11.4936C46.3896 11.8896 46.5877 12.0877 46.6618 12.316C46.7271 12.5168 46.7271 12.7332 46.6618 12.934C46.5877 13.1623 46.3896 13.3604 45.9936 13.7564L41.8436 17.9064C41.6707 18.0793 41.5842 18.1658 41.4833 18.2276C41.3938 18.2825 41.2963 18.3229 41.1942 18.3474C41.0791 18.375 40.9568 18.375 40.7123 18.375H14.225C13.6649 18.375 13.3849 18.375 13.171 18.266C12.9828 18.1701 12.8299 18.0172 12.734 17.829C12.625 17.6151 12.625 17.3351 12.625 16.775V8.475Z" fill="white" stroke="#263843" stroke-width="3"/>
</svg>
