<svg width="42" height="42" viewBox="0 0 42 42" fill="none" xmlns="http://www.w3.org/2000/svg">
<path d="M18.9165 8.49996C18.9165 9.65055 19.8492 10.5833 20.9998 10.5833C22.1504 10.5833 23.0832 9.65055 23.0832 8.49996V2.24996C23.0832 1.09937 22.1504 0.166626 20.9998 0.166626C19.8492 0.166626 18.9165 1.09937 18.9165 2.24996V8.49996Z" fill="white"/>
<path d="M18.9165 39.75C18.9165 40.9006 19.8492 41.8333 20.9998 41.8333C22.1504 41.8333 23.0832 40.9006 23.0832 39.75V35.5833C23.0832 34.4327 22.1504 33.5 20.9998 33.5C19.8492 33.5 18.9165 34.4327 18.9165 35.5833V39.75Z" fill="white"/>
<path d="M33.4998 21C33.4998 19.8494 34.4326 18.9166 35.5832 18.9166H39.7498C40.9004 18.9166 41.8332 19.8494 41.8332 21C41.8332 22.1506 40.9004 23.0833 39.7498 23.0833H35.5832C34.4326 23.0833 33.4998 22.1506 33.4998 21Z" fill="white"/>
<path d="M2.24984 18.9166C1.09924 18.9166 0.166504 19.8494 0.166504 21C0.166504 22.1506 1.09924 23.0833 2.24984 23.0833H8.49984C9.65043 23.0833 10.5832 22.1506 10.5832 21C10.5832 19.8494 9.65043 18.9166 8.49984 18.9166H2.24984Z" fill="white"/>
<path d="M31.3118 10.688C30.4982 9.87439 30.4982 8.5553 31.3118 7.74171L32.785 6.26857C33.5985 5.45498 34.9176 5.45498 35.7312 6.26857C36.5448 7.08216 36.5448 8.40126 35.7312 9.21485L34.2581 10.688C33.4445 11.5016 32.1254 11.5016 31.3118 10.688Z" fill="white"/>
<path d="M6.26845 32.7851C5.45485 33.5987 5.45485 34.9178 6.26845 35.7314C7.08204 36.5449 8.40113 36.5449 9.21472 35.7314L12.161 32.7851C12.9746 31.9715 12.9746 30.6524 12.161 29.8388C11.3474 29.0252 10.0283 29.0252 9.21472 29.8388L6.26845 32.7851Z" fill="white"/>
<path d="M29.8387 29.8388C30.6523 29.0252 31.9714 29.0252 32.785 29.8388L35.7312 32.7851C36.5448 33.5987 36.5448 34.9178 35.7312 35.7314C34.9176 36.5449 33.5985 36.5449 32.785 35.7314L29.8387 32.7851C29.0251 31.9715 29.0251 30.6524 29.8387 29.8388Z" fill="white"/>
<path d="M9.21473 6.26857C8.40114 5.45498 7.08204 5.45498 6.26845 6.26857C5.45486 7.08216 5.45486 8.40125 6.26845 9.21485L10.6879 13.6343C11.5015 14.4479 12.8206 14.4479 13.6341 13.6343C14.4477 12.8207 14.4477 11.5016 13.6341 10.688L9.21473 6.26857Z" fill="white"/>
</svg>
