<svg width="47" height="47" viewBox="0 0 47 47" fill="none" xmlns="http://www.w3.org/2000/svg">
<path d="M17.6674 19.4753C17.6132 17.2844 17.6628 15.0779 17.7213 13.49C19.1257 14.2333 21.0614 15.2936 22.9316 16.436C24.2474 17.2397 25.5049 18.0684 26.514 18.8434C27.5732 19.657 28.1878 20.2851 28.4079 20.6664C28.6281 21.0478 28.8648 21.894 29.0397 23.2181C29.2064 24.4795 29.2953 25.983 29.3334 27.5242C29.3876 29.7151 29.3381 31.9216 29.2796 33.5096C27.8751 32.7663 25.9395 31.7059 24.0692 30.5635C22.7535 29.7599 21.4959 28.9311 20.4869 28.1561C19.4277 27.3426 18.8131 26.7144 18.593 26.3331C18.3728 25.9518 18.1361 25.1055 17.9611 23.7814C17.7945 22.5201 17.7056 21.0166 17.6674 19.4753Z" stroke="white" stroke-width="3"/>
<circle cx="23.5" cy="23.5" r="21.5" stroke="white" stroke-width="3"/>
</svg>
