<svg width="47" height="47" viewBox="0 0 47 47" fill="none" xmlns="http://www.w3.org/2000/svg">
<path d="M28.8336 27.5366C28.8789 29.3672 28.8513 31.2104 28.8067 32.6905C27.5026 31.989 25.8926 31.0913 24.3299 30.1368C23.0215 29.3376 21.7806 28.5193 20.7915 27.7595C19.7353 26.9484 19.1924 26.3714 19.026 26.0831C18.8595 25.7947 18.6313 25.0361 18.4568 23.7159C18.2935 22.4793 18.2052 20.9955 18.1673 19.4629C18.122 17.6322 18.1496 15.7891 18.1941 14.3089C19.4982 15.0104 21.1083 15.9081 22.671 16.8627C23.9794 17.6618 25.2202 18.4801 26.2094 19.2399C27.2655 20.0511 27.8084 20.6281 27.9749 20.9164C28.1414 21.2047 28.3696 21.9634 28.544 23.2836C28.7074 24.5201 28.7956 26.0039 28.8336 27.5366Z" stroke="#33363F" stroke-width="4"/>
<circle cx="23.5" cy="23.5" r="21.5" stroke="#33363F" stroke-width="4"/>
</svg>
