<svg width="429" height="429" viewBox="0 0 429 429" fill="none" xmlns="http://www.w3.org/2000/svg">
<rect y="429" width="429" height="429" transform="rotate(-90 0 429)" fill="#49A772"/>
<rect x="184" y="429" width="429" height="61" transform="rotate(-90 184 429)" fill="#99775E"/>
<path d="M401.68 209.615C401.68 209.549 401.681 209.484 401.681 209.418C401.681 199.246 393.433 191 383.259 191C373.085 191 364.838 199.246 364.838 209.418C364.838 218.484 371.388 226.02 380.015 227.552C381.88 233.898 387.748 238.531 394.698 238.531C403.149 238.531 410 231.682 410 223.232C410 217.297 406.62 212.152 401.68 209.615Z" fill="#0A7650"/>
<path d="M378.261 199.912C380.549 195.951 386.267 195.951 388.554 199.912L409.01 235.338C411.298 239.299 408.439 244.25 403.864 244.25H383.408H362.951C358.377 244.25 355.518 239.299 357.805 235.338L378.261 199.912Z" fill="#82C9A0"/>
<path d="M387.122 262H379.397L380.665 223.381H385.508L387.122 262Z" fill="#263843"/>
<path d="M383.556 210.755C383.556 211.986 382.559 212.983 381.328 212.983C380.097 212.983 379.099 211.986 379.099 210.755C379.099 209.525 380.097 208.527 381.328 208.527C382.559 208.527 383.556 209.525 383.556 210.755Z" fill="#0A7650"/>
<path d="M386.527 204.22C386.527 205.45 385.53 206.448 384.299 206.448C383.068 206.448 382.071 205.45 382.071 204.22C382.071 202.989 383.068 201.992 384.299 201.992C385.53 201.992 386.527 202.989 386.527 204.22Z" fill="#0A7650"/>
<path d="M391.876 212.538C391.876 213.768 390.878 214.766 389.647 214.766C388.417 214.766 387.419 213.768 387.419 212.538C387.419 211.307 388.417 210.31 389.647 210.31C390.878 210.31 391.876 211.307 391.876 212.538Z" fill="#0A7650"/>
<path d="M377.317 214.469C377.317 215.289 376.652 215.954 375.831 215.954C375.011 215.954 374.346 215.289 374.346 214.469C374.346 213.648 375.011 212.983 375.831 212.983C376.652 212.983 377.317 213.648 377.317 214.469Z" fill="#0A7650"/>
<path d="M381.179 218.033C381.179 218.854 380.514 219.519 379.694 219.519C378.873 219.519 378.208 218.854 378.208 218.033C378.208 217.213 378.873 216.548 379.694 216.548C380.514 216.548 381.179 217.213 381.179 218.033Z" fill="#0A7650"/>
<path d="M388.013 218.925C388.013 219.745 387.348 220.41 386.527 220.41C385.707 220.41 385.042 219.745 385.042 218.925C385.042 218.104 385.707 217.439 386.527 217.439C387.348 217.439 388.013 218.104 388.013 218.925Z" fill="#0A7650"/>
<path d="M395.441 215.954C395.441 216.774 394.776 217.439 393.955 217.439C393.135 217.439 392.47 216.774 392.47 215.954C392.47 215.134 393.135 214.469 393.955 214.469C394.776 214.469 395.441 215.134 395.441 215.954Z" fill="#0A7650"/>
<path d="M373.751 218.033C373.751 218.854 373.086 219.519 372.266 219.519C371.445 219.519 370.78 218.854 370.78 218.033C370.78 217.213 371.445 216.548 372.266 216.548C373.086 216.548 373.751 217.213 373.751 218.033Z" fill="#0A7650"/>
<path d="M377.317 222.49C377.317 222.982 376.918 223.381 376.425 223.381C375.933 223.381 375.534 222.982 375.534 222.49C375.534 221.997 375.933 221.598 376.425 221.598C376.918 221.598 377.317 221.997 377.317 222.49Z" fill="#0A7650"/>
<path d="M393.361 221.598C393.361 222.091 392.962 222.49 392.47 222.49C391.978 222.49 391.579 222.091 391.579 221.598C391.579 221.106 391.978 220.707 392.47 220.707C392.962 220.707 393.361 221.106 393.361 221.598Z" fill="#0A7650"/>
<path d="M390.39 227.54C390.39 228.032 389.991 228.431 389.499 228.431C389.006 228.431 388.607 228.032 388.607 227.54C388.607 227.048 389.006 226.649 389.499 226.649C389.991 226.649 390.39 227.048 390.39 227.54Z" fill="#0A7650"/>
<path d="M369.592 223.381C369.592 223.873 369.193 224.272 368.7 224.272C368.208 224.272 367.809 223.873 367.809 223.381C367.809 222.889 368.208 222.49 368.7 222.49C369.193 222.49 369.592 222.889 369.592 223.381Z" fill="#0A7650"/>
<path d="M398.709 224.272C398.709 224.764 398.31 225.163 397.818 225.163C397.326 225.163 396.927 224.764 396.927 224.272C396.927 223.78 397.326 223.381 397.818 223.381C398.31 223.381 398.709 223.78 398.709 224.272Z" fill="#0A7650"/>
<path d="M366.918 231.55C366.918 231.796 366.718 231.996 366.472 231.996C366.226 231.996 366.026 231.796 366.026 231.55C366.026 231.304 366.226 231.105 366.472 231.105C366.718 231.105 366.918 231.304 366.918 231.55Z" fill="#0A7650"/>
<path d="M377.317 232.144C377.317 232.39 377.117 232.59 376.871 232.59C376.625 232.59 376.425 232.39 376.425 232.144C376.425 231.898 376.625 231.699 376.871 231.699C377.117 231.699 377.317 231.898 377.317 232.144Z" fill="#0A7650"/>
<path d="M373.751 229.174C373.751 229.42 373.552 229.619 373.306 229.619C373.059 229.619 372.86 229.42 372.86 229.174C372.86 228.928 373.059 228.728 373.306 228.728C373.552 228.728 373.751 228.928 373.751 229.174Z" fill="#0A7650"/>
<path d="M394.55 229.471C394.55 229.717 394.35 229.916 394.104 229.916C393.858 229.916 393.658 229.717 393.658 229.471C393.658 229.225 393.858 229.025 394.104 229.025C394.35 229.025 394.55 229.225 394.55 229.471Z" fill="#0A7650"/>
<path d="M98.871 61.7234C98.8722 61.6121 98.8728 61.5007 98.8728 61.3891C98.8728 44.0534 84.8675 30 67.591 30C50.3146 30 36.3093 44.0534 36.3093 61.3891C36.3093 76.8388 47.433 89.6815 62.0822 92.2931C65.2486 103.108 75.2133 111.004 87.016 111.004C101.367 111.004 113 99.3308 113 84.931C113 74.8165 107.26 66.0471 98.871 61.7234Z" fill="#0A7650"/>
<path d="M59.1043 45.1883C62.9883 38.438 72.6983 38.438 76.5823 45.1883L111.32 105.562C115.204 112.312 110.349 120.75 102.581 120.75H67.8433H33.1059C25.338 120.75 20.483 112.312 24.367 105.562L59.1043 45.1883Z" fill="#82C9A0"/>
<path d="M74.1501 151H61.032L63.1857 85.1841H71.409L74.1501 151Z" fill="#263843"/>
<path d="M68.0956 63.6674C68.0956 65.7644 66.4014 67.4645 64.3115 67.4645C62.2216 67.4645 60.5274 65.7644 60.5274 63.6674C60.5274 61.5703 62.2216 59.8703 64.3115 59.8703C66.4014 59.8703 68.0956 61.5703 68.0956 63.6674Z" fill="#0A7650"/>
<path d="M73.141 52.5293C73.141 54.6264 71.4468 56.3264 69.3569 56.3264C67.267 56.3264 65.5728 54.6264 65.5728 52.5293C65.5728 50.4322 67.267 48.7322 69.3569 48.7322C71.4468 48.7322 73.141 50.4322 73.141 52.5293Z" fill="#0A7650"/>
<path d="M82.2228 66.705C82.2228 68.8021 80.5286 70.5021 78.4387 70.5021C76.3488 70.5021 74.6546 68.8021 74.6546 66.705C74.6546 64.608 76.3488 62.908 78.4387 62.908C80.5286 62.908 82.2228 64.608 82.2228 66.705Z" fill="#0A7650"/>
<path d="M57.5001 69.9958C57.5001 71.3939 56.3707 72.5272 54.9774 72.5272C53.5842 72.5272 52.4547 71.3939 52.4547 69.9958C52.4547 68.5978 53.5842 67.4645 54.9774 67.4645C56.3707 67.4645 57.5001 68.5978 57.5001 69.9958Z" fill="#0A7650"/>
<path d="M64.0592 76.0711C64.0592 77.4692 62.9298 78.6025 61.5365 78.6025C60.1432 78.6025 59.0138 77.4692 59.0138 76.0711C59.0138 74.6731 60.1432 73.5398 61.5365 73.5398C62.9298 73.5398 64.0592 74.6731 64.0592 76.0711Z" fill="#0A7650"/>
<path d="M75.6637 77.59C75.6637 78.988 74.5343 80.1214 73.141 80.1214C71.7477 80.1214 70.6183 78.988 70.6183 77.59C70.6183 76.1919 71.7477 75.0586 73.141 75.0586C74.5343 75.0586 75.6637 76.1919 75.6637 77.59Z" fill="#0A7650"/>
<path d="M88.2773 72.5272C88.2773 73.9253 87.1479 75.0586 85.7546 75.0586C84.3614 75.0586 83.2319 73.9253 83.2319 72.5272C83.2319 71.1292 84.3614 69.9958 85.7546 69.9958C87.1479 69.9958 88.2773 71.1292 88.2773 72.5272Z" fill="#0A7650"/>
<path d="M51.4456 76.0711C51.4456 77.4692 50.3162 78.6025 48.9229 78.6025C47.5296 78.6025 46.4002 77.4692 46.4002 76.0711C46.4002 74.6731 47.5296 73.5398 48.9229 73.5398C50.3162 73.5398 51.4456 74.6731 51.4456 76.0711Z" fill="#0A7650"/>
<path d="M57.5001 83.6653C57.5001 84.5041 56.8225 85.1841 55.9865 85.1841C55.1506 85.1841 54.4729 84.5041 54.4729 83.6653C54.4729 82.8265 55.1506 82.1465 55.9865 82.1465C56.8225 82.1465 57.5001 82.8265 57.5001 83.6653Z" fill="#0A7650"/>
<path d="M84.7455 82.1465C84.7455 82.9853 84.0678 83.6653 83.2319 83.6653C82.3959 83.6653 81.7183 82.9853 81.7183 82.1465C81.7183 81.3076 82.3959 80.6276 83.2319 80.6276C84.0678 80.6276 84.7455 81.3076 84.7455 82.1465Z" fill="#0A7650"/>
<path d="M79.7001 92.272C79.7001 93.1108 79.0224 93.7908 78.1865 93.7908C77.3505 93.7908 76.6728 93.1108 76.6728 92.272C76.6728 91.4332 77.3505 90.7532 78.1865 90.7532C79.0224 90.7532 79.7001 91.4332 79.7001 92.272Z" fill="#0A7650"/>
<path d="M44.382 85.1841C44.382 86.0229 43.7043 86.7029 42.8684 86.7029C42.0324 86.7029 41.3547 86.0229 41.3547 85.1841C41.3547 84.3453 42.0324 83.6653 42.8684 83.6653C43.7043 83.6653 44.382 84.3453 44.382 85.1841Z" fill="#0A7650"/>
<path d="M93.8273 86.7029C93.8273 87.5418 93.1496 88.2218 92.3137 88.2218C91.4777 88.2218 90.8001 87.5418 90.8001 86.7029C90.8001 85.8641 91.4777 85.1841 92.3137 85.1841C93.1496 85.1841 93.8273 85.8641 93.8273 86.7029Z" fill="#0A7650"/>
<path d="M39.8411 99.1067C39.8411 99.5261 39.5023 99.8661 39.0843 99.8661C38.6663 99.8661 38.3275 99.5261 38.3275 99.1067C38.3275 98.6873 38.6663 98.3473 39.0843 98.3473C39.5023 98.3473 39.8411 98.6873 39.8411 99.1067Z" fill="#0A7650"/>
<path d="M57.5001 100.119C57.5001 100.539 57.1613 100.879 56.7433 100.879C56.3254 100.879 55.9865 100.539 55.9865 100.119C55.9865 99.6999 56.3254 99.3599 56.7433 99.3599C57.1613 99.3599 57.5001 99.6999 57.5001 100.119Z" fill="#0A7650"/>
<path d="M51.4456 95.0565C51.4456 95.4759 51.1068 95.8159 50.6888 95.8159C50.2708 95.8159 49.932 95.4759 49.932 95.0565C49.932 94.6371 50.2708 94.2971 50.6888 94.2971C51.1068 94.2971 51.4456 94.6371 51.4456 95.0565Z" fill="#0A7650"/>
<path d="M86.7637 95.5628C86.7637 95.9822 86.4249 96.3222 86.0069 96.3222C85.5889 96.3222 85.2501 95.9822 85.2501 95.5628C85.2501 95.1434 85.5889 94.8034 86.0069 94.8034C86.4249 94.8034 86.7637 95.1434 86.7637 95.5628Z" fill="#0A7650"/>
<path d="M99.5371 200.866C93.6062 196.509 85.1855 200.21 84.3799 207.528L83.9649 211.297L77.8543 209.055C70.9462 206.521 63.8866 212.42 65.1471 219.673L69.9871 247.523C71.2476 254.776 79.8827 257.943 85.5303 253.225L95.1159 245.216L120.498 234.06C127.235 231.099 128.242 221.952 122.311 217.595L99.5371 200.866Z" fill="#0A7650"/>
<path d="M135 241.599C135 260.481 119.701 275.788 100.83 275.788C81.9582 275.788 66.6597 260.481 66.6597 241.599C66.6597 222.717 81.9582 207.41 100.83 207.41C119.701 207.41 135 222.717 135 241.599Z" fill="#82C9A0"/>
<path d="M106.804 304H94.3781L96.4181 241.838H104.207L106.804 304Z" fill="#263843"/>
<path d="M96.8168 217.332C97.6446 215.898 99.714 215.898 100.542 217.332C101.369 218.767 100.335 220.56 98.6793 220.56C97.0238 220.56 95.9891 218.767 96.8168 217.332Z" fill="#82C9A0"/>
<path d="M116.703 219.903C116.514 219.718 116.512 219.415 116.697 219.227C116.882 219.039 117.184 219.036 117.373 219.221L120.44 222.238C120.629 222.423 120.631 222.725 120.446 222.914C120.261 223.102 119.959 223.105 119.77 222.92L116.703 219.903Z" fill="#0A7650"/>
<path d="M93.7632 228.51C93.5749 228.325 93.5723 228.022 93.7573 227.834C93.9423 227.646 94.2449 227.643 94.4331 227.828L97.5009 230.845C97.6892 231.03 97.6918 231.332 97.5068 231.521C97.3218 231.709 97.0192 231.712 96.831 231.527L93.7632 228.51Z" fill="#0A7650"/>
<path d="M77.5144 223.729C77.3262 223.544 77.3235 223.241 77.5085 223.052C77.6935 222.864 77.9961 222.861 78.1844 223.047L81.2522 226.063C81.4404 226.248 81.4431 226.551 81.2581 226.739C81.0731 226.927 80.7705 226.93 80.5822 226.745L77.5144 223.729Z" fill="#0A7650"/>
<path d="M88.1993 235.004C88.386 234.817 88.6886 234.817 88.8752 235.004C89.0618 235.191 89.0618 235.493 88.8752 235.68L85.8338 238.723C85.6472 238.91 85.3446 238.91 85.158 238.723C84.9713 238.536 84.9713 238.234 85.158 238.047L88.1993 235.004Z" fill="#0A7650"/>
<path d="M115.918 263.216C116.104 263.029 116.407 263.029 116.594 263.216C116.78 263.402 116.78 263.705 116.594 263.892L113.552 266.935C113.366 267.122 113.063 267.122 112.876 266.935C112.69 266.748 112.69 266.445 112.876 266.259L115.918 263.216Z" fill="#0A7650"/>
<path d="M87.7214 213.964C87.9081 213.778 88.2107 213.778 88.3973 213.964C88.5839 214.151 88.5839 214.454 88.3973 214.641L85.3559 217.684C85.1693 217.87 84.8667 217.87 84.6801 217.684C84.4934 217.497 84.4934 217.194 84.6801 217.007L87.7214 213.964Z" fill="#0A7650"/>
<path d="M108.041 221.261C108.109 221.006 108.371 220.854 108.626 220.923C108.881 220.991 109.032 221.253 108.964 221.508L107.851 225.665C107.782 225.92 107.52 226.072 107.265 226.003C107.01 225.935 106.859 225.673 106.927 225.418L108.041 221.261Z" fill="#0A7650"/>
<path d="M89.4023 247.56C89.4706 247.305 89.7327 247.153 89.9876 247.222C90.2425 247.29 90.3938 247.552 90.3255 247.807L89.2123 251.964C89.144 252.219 88.8819 252.371 88.627 252.302C88.3721 252.234 88.2208 251.972 88.2891 251.717L89.4023 247.56Z" fill="#0A7650"/>
<path d="M111.386 253.776C111.454 253.521 111.716 253.37 111.971 253.438C112.226 253.506 112.377 253.769 112.309 254.024L111.196 258.18C111.128 258.436 110.866 258.587 110.611 258.519C110.356 258.45 110.204 258.188 110.273 257.933L111.386 253.776Z" fill="#0A7650"/>
<path d="M119.032 231.78C119.101 231.525 119.363 231.374 119.618 231.442C119.873 231.511 120.024 231.773 119.956 232.028L118.842 236.185C118.774 236.44 118.512 236.591 118.257 236.523C118.002 236.455 117.851 236.192 117.919 235.937L119.032 231.78Z" fill="#0A7650"/>
<path d="M73.6314 235.128C73.6998 234.872 73.9618 234.721 74.2168 234.789C74.4717 234.858 74.623 235.12 74.5547 235.375L73.4415 239.532C73.3732 239.787 73.1111 239.938 72.8562 239.87C72.6012 239.802 72.4499 239.54 72.5182 239.284L73.6314 235.128Z" fill="#0A7650"/>
<path d="M124.767 250.429C124.836 250.174 125.098 250.022 125.353 250.091C125.607 250.159 125.759 250.421 125.69 250.676L124.577 254.833C124.509 255.088 124.247 255.24 123.992 255.171C123.737 255.103 123.586 254.841 123.654 254.586L124.767 250.429Z" fill="#0A7650"/>
<path d="M128.548 241.774C128.416 241.545 128.495 241.253 128.723 241.121C128.952 240.989 129.244 241.067 129.376 241.296L131.527 245.023C131.659 245.252 131.58 245.544 131.352 245.676C131.123 245.808 130.831 245.73 130.699 245.501L128.548 241.774Z" fill="#0A7650"/>
<path d="M126.159 228.385C126.027 228.157 126.105 227.864 126.334 227.732C126.562 227.6 126.855 227.679 126.987 227.907L129.137 231.634C129.269 231.863 129.191 232.155 128.962 232.287C128.734 232.419 128.441 232.341 128.309 232.112L126.159 228.385Z" fill="#0A7650"/>
<path d="M100.352 211.171C100.22 210.943 100.298 210.65 100.527 210.518C100.755 210.386 101.048 210.465 101.18 210.693L103.33 214.42C103.462 214.649 103.384 214.941 103.155 215.073C102.927 215.205 102.634 215.127 102.503 214.898L100.352 211.171Z" fill="#0A7650"/>
<path d="M100.352 211.171C100.22 210.943 100.298 210.65 100.527 210.518C100.755 210.386 101.048 210.465 101.18 210.693L103.33 214.42C103.462 214.649 103.384 214.941 103.155 215.073C102.927 215.205 102.634 215.127 102.503 214.898L100.352 211.171Z" fill="#0A7650"/>
<path d="M106.565 236.992C106.433 236.764 106.511 236.471 106.74 236.339C106.968 236.207 107.26 236.286 107.392 236.514L109.543 240.241C109.675 240.47 109.597 240.762 109.368 240.894C109.14 241.026 108.847 240.948 108.715 240.719L106.565 236.992Z" fill="#0A7650"/>
<path d="M86.9706 263.292C86.8386 263.063 86.917 262.771 87.1455 262.638C87.3741 262.506 87.6664 262.585 87.7984 262.814L89.9489 266.54C90.0809 266.769 90.0026 267.062 89.774 267.194C89.5454 267.326 89.2531 267.247 89.1212 267.019L86.9706 263.292Z" fill="#0A7650"/>
<path d="M79.1192 249.827C79.3058 249.64 79.6084 249.64 79.795 249.827C79.9817 250.014 79.9817 250.317 79.795 250.503L76.7537 253.546C76.567 253.733 76.2644 253.733 76.0778 253.546C75.8912 253.36 75.8912 253.057 76.0778 252.87L79.1192 249.827Z" fill="#0A7650"/>
<path d="M118.785 243.133C118.972 242.946 119.274 242.946 119.461 243.133C119.648 243.319 119.648 243.622 119.461 243.809L116.42 246.852C116.233 247.039 115.93 247.039 115.744 246.852C115.557 246.665 115.557 246.362 115.744 246.176L118.785 243.133Z" fill="#0A7650"/>
<path d="M342.964 278.151C336.101 273.13 326.357 277.395 325.425 285.827L324.945 290.171L317.874 287.588C309.881 284.667 301.712 291.464 303.17 299.823L308.771 331.916C310.229 340.275 320.221 343.925 326.757 338.488L337.848 329.258L367.219 316.403C375.014 312.991 376.179 302.45 369.317 297.429L342.964 278.151Z" fill="#0A7650"/>
<path d="M384 325.09C384 346.85 366.297 364.489 344.46 364.489C322.623 364.489 304.92 346.85 304.92 325.09C304.92 303.331 322.623 285.692 344.46 285.692C366.297 285.692 384 303.331 384 325.09Z" fill="#82C9A0"/>
<path d="M351.373 397H336.995L339.355 325.366H348.368L351.373 397Z" fill="#263843"/>
<path d="M339.817 297.126C340.774 295.472 343.169 295.472 344.127 297.126C345.085 298.779 343.887 300.845 341.972 300.845C340.056 300.845 338.859 298.779 339.817 297.126Z" fill="#82C9A0"/>
<path d="M362.827 300.089C362.609 299.875 362.606 299.526 362.82 299.309C363.035 299.092 363.385 299.089 363.602 299.303L367.152 302.779C367.37 302.992 367.373 303.341 367.159 303.558C366.945 303.775 366.595 303.778 366.377 303.565L362.827 300.089Z" fill="#0A7650"/>
<path d="M336.283 310.007C336.065 309.794 336.062 309.445 336.276 309.228C336.49 309.011 336.84 309.008 337.058 309.221L340.608 312.697C340.826 312.91 340.829 313.259 340.615 313.476C340.401 313.693 340.051 313.696 339.833 313.483L336.283 310.007Z" fill="#0A7650"/>
<path d="M317.481 304.497C317.263 304.284 317.26 303.935 317.474 303.718C317.688 303.501 318.038 303.497 318.256 303.711L321.806 307.187C322.024 307.4 322.027 307.749 321.813 307.966C321.599 308.183 321.249 308.186 321.031 307.973L317.481 304.497Z" fill="#0A7650"/>
<path d="M329.845 317.49C330.061 317.275 330.411 317.275 330.627 317.49C330.843 317.705 330.843 318.054 330.627 318.269L327.108 321.776C326.892 321.991 326.542 321.991 326.326 321.776C326.11 321.561 326.11 321.212 326.326 320.997L329.845 317.49Z" fill="#0A7650"/>
<path d="M361.919 350.001C362.135 349.786 362.485 349.786 362.701 350.001C362.917 350.216 362.917 350.565 362.701 350.78L359.182 354.287C358.966 354.502 358.616 354.502 358.4 354.287C358.184 354.072 358.184 353.723 358.4 353.508L361.919 350.001Z" fill="#0A7650"/>
<path d="M329.292 293.245C329.508 293.03 329.858 293.03 330.074 293.245C330.29 293.46 330.29 293.809 330.074 294.024L326.555 297.531C326.339 297.746 325.989 297.746 325.773 297.531C325.557 297.316 325.557 296.967 325.773 296.751L329.292 293.245Z" fill="#0A7650"/>
<path d="M352.804 301.653C352.883 301.359 353.186 301.184 353.481 301.263C353.776 301.342 353.951 301.644 353.872 301.938L352.584 306.728C352.505 307.022 352.202 307.197 351.907 307.118C351.612 307.039 351.437 306.737 351.516 306.443L352.804 301.653Z" fill="#0A7650"/>
<path d="M331.237 331.96C331.316 331.666 331.619 331.491 331.914 331.57C332.209 331.649 332.384 331.951 332.305 332.245L331.017 337.035C330.938 337.329 330.635 337.503 330.34 337.425C330.045 337.346 329.87 337.044 329.949 336.75L331.237 331.96Z" fill="#0A7650"/>
<path d="M356.675 339.123C356.754 338.829 357.057 338.655 357.352 338.733C357.647 338.812 357.822 339.114 357.743 339.408L356.455 344.198C356.376 344.492 356.073 344.667 355.778 344.588C355.483 344.509 355.308 344.207 355.387 343.913L356.675 339.123Z" fill="#0A7650"/>
<path d="M365.523 313.776C365.602 313.482 365.905 313.307 366.2 313.386C366.495 313.465 366.671 313.767 366.591 314.061L365.303 318.851C365.224 319.145 364.921 319.319 364.626 319.241C364.331 319.162 364.156 318.86 364.235 318.566L365.523 313.776Z" fill="#0A7650"/>
<path d="M312.988 317.633C313.067 317.339 313.37 317.164 313.665 317.243C313.96 317.322 314.135 317.624 314.056 317.918L312.768 322.708C312.689 323.002 312.386 323.177 312.091 323.098C311.796 323.019 311.621 322.717 311.7 322.423L312.988 317.633Z" fill="#0A7650"/>
<path d="M372.159 335.266C372.238 334.972 372.541 334.797 372.837 334.876C373.132 334.955 373.307 335.257 373.228 335.551L371.939 340.341C371.86 340.635 371.557 340.81 371.262 340.731C370.967 340.652 370.792 340.35 370.871 340.056L372.159 335.266Z" fill="#0A7650"/>
<path d="M376.534 325.292C376.382 325.029 376.472 324.692 376.737 324.539C377.001 324.387 377.34 324.478 377.492 324.741L379.981 329.036C380.134 329.3 380.043 329.637 379.778 329.789C379.514 329.941 379.176 329.851 379.023 329.587L376.534 325.292Z" fill="#0A7650"/>
<path d="M373.769 309.863C373.617 309.6 373.707 309.263 373.972 309.111C374.236 308.958 374.575 309.049 374.727 309.312L377.216 313.607C377.368 313.871 377.278 314.208 377.013 314.36C376.749 314.512 376.411 314.422 376.258 314.158L373.769 309.863Z" fill="#0A7650"/>
<path d="M343.907 290.026C343.755 289.763 343.845 289.426 344.11 289.273C344.374 289.121 344.712 289.212 344.865 289.475L347.354 293.77C347.506 294.034 347.416 294.371 347.151 294.523C346.887 294.675 346.548 294.585 346.396 294.321L343.907 290.026Z" fill="#0A7650"/>
<path d="M343.907 290.026C343.755 289.763 343.845 289.426 344.11 289.273C344.374 289.121 344.712 289.212 344.865 289.475L347.354 293.77C347.506 294.034 347.416 294.371 347.151 294.523C346.887 294.675 346.548 294.585 346.396 294.321L343.907 290.026Z" fill="#0A7650"/>
<path d="M351.096 319.782C350.944 319.518 351.034 319.181 351.299 319.029C351.563 318.877 351.901 318.967 352.054 319.231L354.543 323.526C354.695 323.789 354.605 324.126 354.34 324.278C354.076 324.431 353.738 324.34 353.585 324.077L351.096 319.782Z" fill="#0A7650"/>
<path d="M328.423 350.089C328.27 349.825 328.361 349.488 328.626 349.336C328.89 349.184 329.228 349.274 329.381 349.538L331.869 353.832C332.022 354.096 331.932 354.433 331.667 354.585C331.403 354.737 331.064 354.647 330.912 354.383L328.423 350.089Z" fill="#0A7650"/>
<path d="M319.338 334.572C319.554 334.357 319.904 334.357 320.12 334.572C320.336 334.787 320.336 335.136 320.12 335.351L316.601 338.858C316.385 339.073 316.035 339.073 315.819 338.858C315.603 338.643 315.603 338.294 315.819 338.079L319.338 334.572Z" fill="#0A7650"/>
<path d="M365.237 326.858C365.453 326.642 365.803 326.642 366.019 326.858C366.235 327.073 366.235 327.422 366.019 327.637L362.5 331.144C362.284 331.359 361.934 331.359 361.718 331.144C361.502 330.928 361.502 330.58 361.718 330.364L365.237 326.858Z" fill="#0A7650"/>
<path fill-rule="evenodd" clip-rule="evenodd" d="M125.967 335.731C125.307 323.066 114.829 313 102 313C88.8302 313 78.138 323.608 78.0013 336.745C75.2217 335.62 72.1832 335 69 335C55.7452 335 45 345.745 45 359C45 372.255 55.7452 383 69 383C76.2997 383 82.8382 379.741 87.24 374.599C94.3012 379.741 104.79 383 116.5 383C137.763 383 155 372.255 155 359C155 347.782 142.652 338.361 125.967 335.731Z" fill="#0A7650"/>
<path fill-rule="evenodd" clip-rule="evenodd" d="M357.967 87.731C357.307 75.0661 346.829 65 334 65C320.83 65 310.138 75.6077 310.001 88.7451C307.222 87.6197 304.183 87 301 87C287.745 87 277 97.7452 277 111C277 124.255 287.745 135 301 135C308.3 135 314.838 131.741 319.24 126.599C326.301 131.741 336.79 135 348.5 135C369.763 135 387 124.255 387 111C387 99.7815 374.652 90.3608 357.967 87.731Z" fill="#0A7650"/>
<path d="M222.061 78.4101C218.852 78.0172 218.092 73.6311 218.833 69.1641C220.053 67.4061 220.491 65.4108 220.568 63.6148L225.709 62.9597C228.533 67.8228 227.663 77.821 223.137 78.3981C222.78 78.4459 222.418 78.449 222.061 78.4073L222.061 78.4101ZM220.435 61.4916L225.668 60.8266C226.695 51.2235 216.38 54.2756 220.435 61.4916ZM219.523 36.7302C219.881 36.7718 220.243 36.7687 220.6 36.7208C225.126 36.1439 225.996 26.1459 223.171 21.2828L218.031 21.9379C217.953 23.7338 217.514 25.7279 216.296 27.4873C215.555 31.954 216.315 36.3401 219.524 36.7333L219.523 36.7302ZM217.897 19.8115L223.13 19.147C224.155 9.54718 213.84 12.5976 217.899 19.813L217.897 19.8115ZM203.247 59.7314C206.475 59.5596 207.532 55.2358 207.101 50.7302C206.005 48.8928 205.704 46.8722 205.749 45.0759L200.661 44.0679C197.512 48.727 197.694 58.7607 202.17 59.6458C202.523 59.7181 202.884 59.7461 203.243 59.7292L203.247 59.7314ZM206.027 42.9639C210.568 36.0427 200.485 32.2926 200.853 41.9429L206.027 42.9639ZM208.693 100.619C211.778 99.6508 211.725 95.2074 210.2 90.9469C208.681 89.4392 207.894 87.5502 207.489 85.8043L202.315 86.0921C200.412 91.3816 203.071 101.064 207.63 100.806C207.99 100.789 208.346 100.727 208.691 100.622L208.693 100.619ZM207.231 83.689C209.915 75.8582 199.217 74.7226 201.965 83.9819L207.229 83.6878L207.231 83.689Z" fill="#544533"/>
<path d="M222.061 183.617C218.852 183.224 218.092 178.838 218.833 174.371C220.053 172.613 220.491 170.618 220.568 168.822L225.709 168.167C228.533 173.03 227.663 183.028 223.137 183.605C222.78 183.653 222.418 183.656 222.061 183.614L222.061 183.617ZM220.435 166.699L225.668 166.034C226.695 156.431 216.38 159.483 220.435 166.699ZM219.523 141.937C219.881 141.979 220.243 141.976 220.6 141.928C225.126 141.351 225.996 131.353 223.171 126.49L218.031 127.145C217.953 128.941 217.514 130.935 216.296 132.694C215.555 137.161 216.315 141.547 219.524 141.94L219.523 141.937ZM217.897 125.019L223.13 124.354C224.155 114.754 213.84 117.805 217.899 125.02L217.897 125.019ZM203.247 164.938C206.475 164.767 207.532 160.443 207.101 155.937C206.005 154.1 205.704 152.079 205.749 150.283L200.661 149.275C197.512 153.934 197.694 163.968 202.17 164.853C202.523 164.925 202.884 164.953 203.243 164.936L203.247 164.938ZM206.027 148.171C210.568 141.25 200.485 137.5 200.853 147.15L206.027 148.171ZM208.693 205.826C211.778 204.858 211.725 200.414 210.2 196.154C208.681 194.646 207.894 192.757 207.489 191.011L202.315 191.299C200.412 196.589 203.071 206.271 207.63 206.013C207.99 205.996 208.346 205.934 208.691 205.829L208.693 205.826ZM207.231 188.896C209.915 181.065 199.217 179.93 201.965 189.189L207.229 188.895L207.231 188.896Z" fill="#544533"/>
<circle cx="214.5" cy="213.5" r="62.5" fill="white"/>
<path d="M187 214.833L207.833 235.667L242.556 194" stroke="#0A7650" stroke-width="10"/>
</svg>
