<svg width="429" height="429" viewBox="0 0 429 429" fill="none" xmlns="http://www.w3.org/2000/svg">
<rect x="429" width="429" height="429" transform="rotate(90 429 0)" fill="#49A772"/>
<rect x="245" width="245" height="61" transform="rotate(90 245 0)" fill="#99775E"/>
<rect y="184" width="245" height="61" fill="#99775E"/>
<circle cx="214.5" cy="213.5" r="62.5" fill="#263843"/>
<path d="M158.871 313.723C158.872 313.612 158.873 313.501 158.873 313.389C158.873 296.053 144.867 282 127.591 282C110.315 282 96.3093 296.053 96.3093 313.389C96.3093 328.839 107.433 341.682 122.082 344.293C125.249 355.108 135.213 363.004 147.016 363.004C161.367 363.004 173 351.331 173 336.931C173 326.816 167.26 318.047 158.871 313.723Z" fill="#0A7650"/>
<path d="M119.104 297.188C122.988 290.438 132.698 290.438 136.582 297.188L171.32 357.562C175.204 364.312 170.349 372.75 162.581 372.75H127.843H93.1059C85.338 372.75 80.483 364.312 84.367 357.562L119.104 297.188Z" fill="#82C9A0"/>
<path d="M134.15 403H121.032L123.186 337.184H131.409L134.15 403Z" fill="#263843"/>
<path d="M128.096 315.667C128.096 317.764 126.401 319.464 124.311 319.464C122.222 319.464 120.527 317.764 120.527 315.667C120.527 313.57 122.222 311.87 124.311 311.87C126.401 311.87 128.096 313.57 128.096 315.667Z" fill="#0A7650"/>
<path d="M133.141 304.529C133.141 306.626 131.447 308.326 129.357 308.326C127.267 308.326 125.573 306.626 125.573 304.529C125.573 302.432 127.267 300.732 129.357 300.732C131.447 300.732 133.141 302.432 133.141 304.529Z" fill="#0A7650"/>
<path d="M142.223 318.705C142.223 320.802 140.529 322.502 138.439 322.502C136.349 322.502 134.655 320.802 134.655 318.705C134.655 316.608 136.349 314.908 138.439 314.908C140.529 314.908 142.223 316.608 142.223 318.705Z" fill="#0A7650"/>
<path d="M117.5 321.996C117.5 323.394 116.371 324.527 114.977 324.527C113.584 324.527 112.455 323.394 112.455 321.996C112.455 320.598 113.584 319.464 114.977 319.464C116.371 319.464 117.5 320.598 117.5 321.996Z" fill="#0A7650"/>
<path d="M124.059 328.071C124.059 329.469 122.93 330.603 121.536 330.603C120.143 330.603 119.014 329.469 119.014 328.071C119.014 326.673 120.143 325.54 121.536 325.54C122.93 325.54 124.059 326.673 124.059 328.071Z" fill="#0A7650"/>
<path d="M135.664 329.59C135.664 330.988 134.534 332.121 133.141 332.121C131.748 332.121 130.618 330.988 130.618 329.59C130.618 328.192 131.748 327.059 133.141 327.059C134.534 327.059 135.664 328.192 135.664 329.59Z" fill="#0A7650"/>
<path d="M148.277 324.527C148.277 325.925 147.148 327.059 145.755 327.059C144.361 327.059 143.232 325.925 143.232 324.527C143.232 323.129 144.361 321.996 145.755 321.996C147.148 321.996 148.277 323.129 148.277 324.527Z" fill="#0A7650"/>
<path d="M111.446 328.071C111.446 329.469 110.316 330.603 108.923 330.603C107.53 330.603 106.4 329.469 106.4 328.071C106.4 326.673 107.53 325.54 108.923 325.54C110.316 325.54 111.446 326.673 111.446 328.071Z" fill="#0A7650"/>
<path d="M117.5 335.665C117.5 336.504 116.822 337.184 115.987 337.184C115.151 337.184 114.473 336.504 114.473 335.665C114.473 334.826 115.151 334.146 115.987 334.146C116.822 334.146 117.5 334.826 117.5 335.665Z" fill="#0A7650"/>
<path d="M144.746 334.146C144.746 334.985 144.068 335.665 143.232 335.665C142.396 335.665 141.718 334.985 141.718 334.146C141.718 333.308 142.396 332.628 143.232 332.628C144.068 332.628 144.746 333.308 144.746 334.146Z" fill="#0A7650"/>
<path d="M139.7 344.272C139.7 345.111 139.022 345.791 138.186 345.791C137.35 345.791 136.673 345.111 136.673 344.272C136.673 343.433 137.35 342.753 138.186 342.753C139.022 342.753 139.7 343.433 139.7 344.272Z" fill="#0A7650"/>
<path d="M104.382 337.184C104.382 338.023 103.704 338.703 102.868 338.703C102.032 338.703 101.355 338.023 101.355 337.184C101.355 336.345 102.032 335.665 102.868 335.665C103.704 335.665 104.382 336.345 104.382 337.184Z" fill="#0A7650"/>
<path d="M153.827 338.703C153.827 339.542 153.15 340.222 152.314 340.222C151.478 340.222 150.8 339.542 150.8 338.703C150.8 337.864 151.478 337.184 152.314 337.184C153.15 337.184 153.827 337.864 153.827 338.703Z" fill="#0A7650"/>
<path d="M99.8411 351.107C99.8411 351.526 99.5023 351.866 99.0843 351.866C98.6663 351.866 98.3275 351.526 98.3275 351.107C98.3275 350.687 98.6663 350.347 99.0843 350.347C99.5023 350.347 99.8411 350.687 99.8411 351.107Z" fill="#0A7650"/>
<path d="M117.5 352.119C117.5 352.539 117.161 352.879 116.743 352.879C116.325 352.879 115.987 352.539 115.987 352.119C115.987 351.7 116.325 351.36 116.743 351.36C117.161 351.36 117.5 351.7 117.5 352.119Z" fill="#0A7650"/>
<path d="M111.446 347.056C111.446 347.476 111.107 347.816 110.689 347.816C110.271 347.816 109.932 347.476 109.932 347.056C109.932 346.637 110.271 346.297 110.689 346.297C111.107 346.297 111.446 346.637 111.446 347.056Z" fill="#0A7650"/>
<path d="M146.764 347.563C146.764 347.982 146.425 348.322 146.007 348.322C145.589 348.322 145.25 347.982 145.25 347.563C145.25 347.143 145.589 346.803 146.007 346.803C146.425 346.803 146.764 347.143 146.764 347.563Z" fill="#0A7650"/>
<path d="M376.219 271.57C376.221 271.414 376.222 271.257 376.222 271.1C376.222 246.744 356.614 227 332.427 227C308.24 227 288.633 246.744 288.633 271.1C288.633 292.807 304.206 310.85 324.715 314.519C329.148 329.714 343.099 340.808 359.622 340.808C379.713 340.808 396 324.407 396 304.176C396 289.965 387.965 277.645 376.219 271.57Z" fill="#0A7650"/>
<path d="M320.546 248.339C325.984 238.855 339.578 238.855 345.015 248.339L393.647 333.161C399.085 342.645 392.288 354.5 381.413 354.5H332.781H284.148C273.273 354.5 266.476 342.645 271.914 333.161L320.546 248.339Z" fill="#82C9A0"/>
<path d="M341.61 397H323.245L326.26 304.531H337.773L341.61 397Z" fill="#263843"/>
<path d="M333.134 274.301C333.134 277.248 330.762 279.636 327.836 279.636C324.91 279.636 322.538 277.248 322.538 274.301C322.538 271.355 324.91 268.967 327.836 268.967C330.762 268.967 333.134 271.355 333.134 274.301Z" fill="#0A7650"/>
<path d="M340.197 258.653C340.197 261.599 337.826 263.987 334.9 263.987C331.974 263.987 329.602 261.599 329.602 258.653C329.602 255.706 331.974 253.318 334.9 253.318C337.826 253.318 340.197 255.706 340.197 258.653Z" fill="#0A7650"/>
<path d="M352.912 278.569C352.912 281.515 350.54 283.904 347.614 283.904C344.688 283.904 342.317 281.515 342.317 278.569C342.317 275.623 344.688 273.234 347.614 273.234C350.54 273.234 352.912 275.623 352.912 278.569Z" fill="#0A7650"/>
<path d="M318.3 283.192C318.3 285.157 316.719 286.749 314.768 286.749C312.818 286.749 311.237 285.157 311.237 283.192C311.237 281.228 312.818 279.636 314.768 279.636C316.719 279.636 318.3 281.228 318.3 283.192Z" fill="#0A7650"/>
<path d="M327.483 291.728C327.483 293.692 325.902 295.285 323.951 295.285C322.001 295.285 320.419 293.692 320.419 291.728C320.419 289.764 322.001 288.172 323.951 288.172C325.902 288.172 327.483 289.764 327.483 291.728Z" fill="#0A7650"/>
<path d="M343.729 293.862C343.729 295.826 342.148 297.418 340.197 297.418C338.247 297.418 336.666 295.826 336.666 293.862C336.666 291.898 338.247 290.305 340.197 290.305C342.148 290.305 343.729 291.898 343.729 293.862Z" fill="#0A7650"/>
<path d="M361.388 286.749C361.388 288.713 359.807 290.305 357.856 290.305C355.906 290.305 354.325 288.713 354.325 286.749C354.325 284.785 355.906 283.192 357.856 283.192C359.807 283.192 361.388 284.785 361.388 286.749Z" fill="#0A7650"/>
<path d="M309.824 291.728C309.824 293.692 308.243 295.285 306.292 295.285C304.341 295.285 302.76 293.692 302.76 291.728C302.76 289.764 304.341 288.172 306.292 288.172C308.243 288.172 309.824 289.764 309.824 291.728Z" fill="#0A7650"/>
<path d="M318.3 302.397C318.3 303.576 317.351 304.531 316.181 304.531C315.011 304.531 314.062 303.576 314.062 302.397C314.062 301.219 315.011 300.264 316.181 300.264C317.351 300.264 318.3 301.219 318.3 302.397Z" fill="#0A7650"/>
<path d="M356.444 300.264C356.444 301.442 355.495 302.397 354.325 302.397C353.154 302.397 352.206 301.442 352.206 300.264C352.206 299.085 353.154 298.13 354.325 298.13C355.495 298.13 356.444 299.085 356.444 300.264Z" fill="#0A7650"/>
<path d="M349.38 314.49C349.38 315.668 348.431 316.623 347.261 316.623C346.091 316.623 345.142 315.668 345.142 314.49C345.142 313.311 346.091 312.356 347.261 312.356C348.431 312.356 349.38 313.311 349.38 314.49Z" fill="#0A7650"/>
<path d="M299.935 304.531C299.935 305.71 298.986 306.665 297.816 306.665C296.645 306.665 295.697 305.71 295.697 304.531C295.697 303.353 296.645 302.397 297.816 302.397C298.986 302.397 299.935 303.353 299.935 304.531Z" fill="#0A7650"/>
<path d="M369.158 306.665C369.158 307.844 368.21 308.799 367.039 308.799C365.869 308.799 364.92 307.844 364.92 306.665C364.92 305.487 365.869 304.531 367.039 304.531C368.21 304.531 369.158 305.487 369.158 306.665Z" fill="#0A7650"/>
<path d="M293.578 324.092C293.578 324.681 293.103 325.159 292.518 325.159C291.933 325.159 291.458 324.681 291.458 324.092C291.458 323.503 291.933 323.025 292.518 323.025C293.103 323.025 293.578 323.503 293.578 324.092Z" fill="#0A7650"/>
<path d="M318.3 325.515C318.3 326.104 317.826 326.582 317.241 326.582C316.655 326.582 316.181 326.104 316.181 325.515C316.181 324.925 316.655 324.448 317.241 324.448C317.826 324.448 318.3 324.925 318.3 325.515Z" fill="#0A7650"/>
<path d="M309.824 318.402C309.824 318.991 309.349 319.469 308.764 319.469C308.179 319.469 307.705 318.991 307.705 318.402C307.705 317.812 308.179 317.335 308.764 317.335C309.349 317.335 309.824 317.812 309.824 318.402Z" fill="#0A7650"/>
<path d="M359.269 319.113C359.269 319.702 358.795 320.18 358.21 320.18C357.624 320.18 357.15 319.702 357.15 319.113C357.15 318.524 357.624 318.046 358.21 318.046C358.795 318.046 359.269 318.524 359.269 319.113Z" fill="#0A7650"/>
<path d="M376.163 139.351C371.842 136.197 365.707 138.876 365.12 144.173L364.817 146.901L360.365 145.278C355.332 143.444 350.189 147.713 351.107 152.963L354.633 173.121C355.552 178.371 361.843 180.664 365.958 177.248L372.942 171.451L391.434 163.377C396.342 161.234 397.076 154.613 392.755 151.46L376.163 139.351Z" fill="#0A7650"/>
<path d="M402 168.834C402 182.501 390.854 193.58 377.105 193.58C363.355 193.58 352.209 182.501 352.209 168.834C352.209 155.167 363.355 144.087 377.105 144.087C390.854 144.087 402 155.167 402 168.834Z" fill="#82C9A0"/>
<path d="M381.457 214H372.404L373.89 169.007H379.565L381.457 214Z" fill="#263843"/>
<path d="M374.181 151.269C374.784 150.231 376.292 150.231 376.895 151.269C377.498 152.307 376.744 153.605 375.538 153.605C374.332 153.605 373.578 152.307 374.181 151.269Z" fill="#82C9A0"/>
<path d="M388.669 153.13C388.532 152.996 388.53 152.777 388.665 152.641C388.8 152.504 389.02 152.502 389.157 152.636L391.392 154.82C391.529 154.954 391.531 155.173 391.397 155.309C391.262 155.445 391.041 155.447 390.904 155.313L388.669 153.13Z" fill="#0A7650"/>
<path d="M371.956 159.36C371.819 159.226 371.817 159.007 371.952 158.87C372.087 158.734 372.307 158.732 372.444 158.866L374.679 161.049C374.816 161.183 374.818 161.403 374.684 161.539C374.549 161.675 374.328 161.677 374.191 161.543L371.956 159.36Z" fill="#0A7650"/>
<path d="M360.118 155.899C359.981 155.765 359.979 155.546 360.113 155.409C360.248 155.273 360.469 155.271 360.606 155.405L362.841 157.588C362.978 157.722 362.98 157.941 362.845 158.078C362.71 158.214 362.49 158.216 362.353 158.082L360.118 155.899Z" fill="#0A7650"/>
<path d="M367.902 164.06C368.038 163.925 368.259 163.925 368.395 164.06C368.531 164.195 368.531 164.414 368.395 164.549L366.179 166.752C366.043 166.887 365.823 166.887 365.687 166.752C365.551 166.617 365.551 166.398 365.687 166.262L367.902 164.06Z" fill="#0A7650"/>
<path d="M388.097 184.48C388.233 184.345 388.454 184.345 388.59 184.48C388.726 184.615 388.726 184.834 388.59 184.969L386.374 187.172C386.238 187.307 386.017 187.307 385.881 187.172C385.745 187.037 385.745 186.818 385.881 186.683L388.097 184.48Z" fill="#0A7650"/>
<path d="M367.554 148.831C367.69 148.696 367.911 148.696 368.047 148.831C368.183 148.967 368.183 149.186 368.047 149.321L365.831 151.523C365.695 151.659 365.474 151.659 365.338 151.523C365.202 151.388 365.202 151.169 365.338 151.034L367.554 148.831Z" fill="#0A7650"/>
<path d="M382.358 154.112C382.408 153.928 382.599 153.818 382.785 153.868C382.97 153.917 383.081 154.107 383.031 154.292L382.22 157.3C382.17 157.485 381.979 157.595 381.793 157.545C381.608 157.496 381.497 157.306 381.547 157.121L382.358 154.112Z" fill="#0A7650"/>
<path d="M368.779 173.148C368.829 172.963 369.02 172.854 369.205 172.903C369.391 172.953 369.501 173.143 369.451 173.327L368.64 176.336C368.591 176.521 368.4 176.63 368.214 176.581C368.028 176.531 367.918 176.342 367.968 176.157L368.779 173.148Z" fill="#0A7650"/>
<path d="M384.795 177.647C384.845 177.463 385.036 177.353 385.222 177.403C385.408 177.452 385.518 177.642 385.468 177.827L384.657 180.835C384.607 181.02 384.416 181.13 384.231 181.08C384.045 181.031 383.935 180.841 383.984 180.656L384.795 177.647Z" fill="#0A7650"/>
<path d="M390.366 161.727C390.416 161.542 390.607 161.433 390.793 161.482C390.979 161.531 391.089 161.721 391.039 161.906L390.228 164.915C390.178 165.099 389.987 165.209 389.802 165.159C389.616 165.11 389.506 164.92 389.555 164.736L390.366 161.727Z" fill="#0A7650"/>
<path d="M357.289 164.149C357.338 163.965 357.529 163.855 357.715 163.905C357.901 163.954 358.011 164.144 357.961 164.329L357.15 167.337C357.1 167.522 356.91 167.632 356.724 167.582C356.538 167.533 356.428 167.343 356.478 167.158L357.289 164.149Z" fill="#0A7650"/>
<path d="M394.545 175.225C394.594 175.04 394.785 174.931 394.971 174.98C395.157 175.029 395.267 175.219 395.217 175.404L394.406 178.413C394.357 178.597 394.166 178.707 393.98 178.657C393.794 178.608 393.684 178.418 393.734 178.234L394.545 175.225Z" fill="#0A7650"/>
<path d="M397.299 168.96C397.203 168.795 397.26 168.583 397.427 168.488C397.593 168.392 397.806 168.449 397.903 168.614L399.469 171.312C399.566 171.477 399.508 171.689 399.342 171.785C399.175 171.88 398.962 171.823 398.866 171.658L397.299 168.96Z" fill="#0A7650"/>
<path d="M395.559 159.269C395.462 159.104 395.519 158.892 395.686 158.797C395.853 158.701 396.065 158.758 396.162 158.923L397.728 161.621C397.825 161.786 397.768 161.998 397.601 162.094C397.434 162.189 397.222 162.133 397.125 161.967L395.559 159.269Z" fill="#0A7650"/>
<path d="M376.756 146.81C376.66 146.644 376.717 146.433 376.884 146.337C377.05 146.241 377.263 146.298 377.359 146.464L378.926 149.161C379.022 149.327 378.965 149.538 378.799 149.634C378.632 149.73 378.419 149.673 378.323 149.507L376.756 146.81Z" fill="#0A7650"/>
<path d="M376.756 146.81C376.66 146.644 376.717 146.433 376.884 146.337C377.05 146.241 377.263 146.298 377.359 146.464L378.926 149.161C379.022 149.327 378.965 149.538 378.799 149.634C378.632 149.73 378.419 149.673 378.323 149.507L376.756 146.81Z" fill="#0A7650"/>
<path d="M381.283 165.499C381.187 165.334 381.244 165.122 381.41 165.027C381.577 164.931 381.79 164.988 381.886 165.153L383.453 167.851C383.549 168.016 383.492 168.228 383.325 168.324C383.159 168.419 382.946 168.362 382.85 168.197L381.283 165.499Z" fill="#0A7650"/>
<path d="M367.007 184.535C366.911 184.369 366.968 184.158 367.135 184.062C367.301 183.967 367.514 184.023 367.61 184.189L369.177 186.886C369.273 187.052 369.216 187.264 369.05 187.359C368.883 187.455 368.67 187.398 368.574 187.233L367.007 184.535Z" fill="#0A7650"/>
<path d="M361.287 174.789C361.423 174.654 361.643 174.654 361.779 174.789C361.915 174.924 361.915 175.143 361.779 175.279L359.563 177.481C359.427 177.616 359.207 177.616 359.071 177.481C358.935 177.346 358.935 177.127 359.071 176.992L361.287 174.789Z" fill="#0A7650"/>
<path d="M390.186 169.944C390.322 169.808 390.543 169.808 390.679 169.944C390.815 170.079 390.815 170.298 390.679 170.433L388.463 172.636C388.327 172.771 388.107 172.771 387.971 172.636C387.835 172.501 387.835 172.281 387.971 172.146L390.186 169.944Z" fill="#0A7650"/>
<path d="M90.9644 66.1505C84.1014 61.1298 74.3575 65.3947 73.4253 73.8274L72.9451 78.171L65.8742 75.5876C57.8806 72.6672 49.7117 79.4644 51.1703 87.8227L56.7708 119.916C58.2294 128.275 68.2214 131.925 74.7565 126.487L85.8484 117.258L115.219 104.403C123.014 100.991 124.179 90.4498 117.317 85.429L90.9644 66.1505Z" fill="#0A7650"/>
<path d="M132 113.09C132 134.85 114.297 152.489 92.4602 152.489C70.623 152.489 52.9205 134.85 52.9205 113.09C52.9205 91.3311 70.623 73.6917 92.4602 73.6917C114.297 73.6917 132 91.3311 132 113.09Z" fill="#82C9A0"/>
<path d="M99.3728 185H84.9947L87.3553 113.366H96.3684L99.3728 185Z" fill="#263843"/>
<path d="M87.8166 85.1256C88.7744 83.4725 91.169 83.4725 92.1268 85.1256C93.0847 86.7787 91.8874 88.845 89.9717 88.845C88.0561 88.845 86.8588 86.7787 87.8166 85.1256Z" fill="#82C9A0"/>
<path d="M110.827 88.0886C110.609 87.8753 110.606 87.5264 110.82 87.3093C111.035 87.0922 111.385 87.0892 111.602 87.3025L115.152 90.7785C115.37 90.9918 115.373 91.3407 115.159 91.5578C114.945 91.7748 114.595 91.7779 114.377 91.5646L110.827 88.0886Z" fill="#0A7650"/>
<path d="M84.2831 98.0071C84.0653 97.7938 84.0622 97.4449 84.2763 97.2279C84.4904 97.0108 84.8405 97.0078 85.0583 97.2211L88.6082 100.697C88.826 100.91 88.8291 101.259 88.615 101.476C88.401 101.693 88.0508 101.696 87.833 101.483L84.2831 98.0071Z" fill="#0A7650"/>
<path d="M65.481 92.4968C65.2631 92.2835 65.2601 91.9346 65.4742 91.7176C65.6882 91.5005 66.0384 91.4975 66.2562 91.7108L69.8061 95.1868C70.0239 95.4001 70.027 95.7489 69.8129 95.966C69.5988 96.1831 69.2487 96.1861 69.0309 95.9728L65.481 92.4968Z" fill="#0A7650"/>
<path d="M77.845 105.49C78.0609 105.275 78.4111 105.275 78.627 105.49C78.843 105.705 78.843 106.054 78.627 106.269L75.1077 109.776C74.8918 109.991 74.5416 109.991 74.3257 109.776C74.1097 109.561 74.1097 109.212 74.3257 108.997L77.845 105.49Z" fill="#0A7650"/>
<path d="M109.919 138.001C110.135 137.786 110.485 137.786 110.701 138.001C110.917 138.216 110.917 138.565 110.701 138.78L107.182 142.287C106.966 142.502 106.616 142.502 106.4 142.287C106.184 142.072 106.184 141.723 106.4 141.508L109.919 138.001Z" fill="#0A7650"/>
<path d="M77.2919 81.2447C77.5079 81.0295 77.8581 81.0295 78.074 81.2447C78.29 81.4599 78.29 81.8088 78.074 82.024L74.5547 85.5307C74.3388 85.7459 73.9886 85.7459 73.7727 85.5307C73.5567 85.3155 73.5567 84.9666 73.7727 84.7514L77.2919 81.2447Z" fill="#0A7650"/>
<path d="M100.804 89.6528C100.883 89.3588 101.186 89.1844 101.481 89.2632C101.776 89.3419 101.951 89.6441 101.872 89.938L100.584 94.7283C100.505 95.0223 100.202 95.1967 99.907 95.118C99.612 95.0392 99.4369 94.737 99.5159 94.4431L100.804 89.6528Z" fill="#0A7650"/>
<path d="M79.2369 119.96C79.316 119.666 79.6192 119.491 79.9142 119.57C80.2092 119.649 80.3843 119.951 80.3053 120.245L79.0171 125.035C78.9381 125.329 78.6348 125.503 78.3398 125.425C78.0448 125.346 77.8697 125.044 77.9488 124.75L79.2369 119.96Z" fill="#0A7650"/>
<path d="M104.675 127.123C104.754 126.829 105.057 126.655 105.352 126.733C105.647 126.812 105.822 127.114 105.743 127.408L104.455 132.198C104.376 132.492 104.073 132.667 103.778 132.588C103.483 132.509 103.308 132.207 103.387 131.913L104.675 127.123Z" fill="#0A7650"/>
<path d="M113.523 101.775C113.602 101.482 113.905 101.307 114.2 101.386C114.495 101.465 114.671 101.767 114.591 102.061L113.303 106.851C113.224 107.145 112.921 107.319 112.626 107.241C112.331 107.162 112.156 106.86 112.235 106.566L113.523 101.775Z" fill="#0A7650"/>
<path d="M60.9878 105.633C61.0669 105.339 61.3701 105.164 61.6651 105.243C61.9601 105.322 62.1352 105.624 62.0561 105.918L60.768 110.708C60.6889 111.002 60.3857 111.177 60.0907 111.098C59.7957 111.019 59.6206 110.717 59.6997 110.423L60.9878 105.633Z" fill="#0A7650"/>
<path d="M120.159 123.266C120.238 122.972 120.541 122.797 120.836 122.876C121.132 122.955 121.307 123.257 121.228 123.551L119.939 128.341C119.86 128.635 119.557 128.81 119.262 128.731C118.967 128.652 118.792 128.35 118.871 128.056L120.159 123.266Z" fill="#0A7650"/>
<path d="M124.534 113.292C124.382 113.029 124.472 112.692 124.737 112.539C125.001 112.387 125.34 112.478 125.492 112.741L127.981 117.036C128.134 117.299 128.043 117.636 127.778 117.789C127.514 117.941 127.176 117.851 127.023 117.587L124.534 113.292Z" fill="#0A7650"/>
<path d="M121.769 97.8632C121.617 97.5997 121.707 97.2627 121.972 97.1105C122.236 96.9583 122.575 97.0486 122.727 97.3122L125.216 101.607C125.368 101.871 125.278 102.208 125.013 102.36C124.749 102.512 124.411 102.422 124.258 102.158L121.769 97.8632Z" fill="#0A7650"/>
<path d="M91.9072 78.0261C91.7545 77.7625 91.8452 77.4255 92.1097 77.2734C92.3741 77.1212 92.7124 77.2115 92.8651 77.4751L95.3536 81.7699C95.5063 82.0335 95.4157 82.3705 95.1512 82.5226C94.8867 82.6748 94.5485 82.5845 94.3958 82.321L91.9072 78.0261Z" fill="#0A7650"/>
<path d="M91.9072 78.0261C91.7545 77.7625 91.8452 77.4255 92.1097 77.2734C92.3741 77.1212 92.7124 77.2115 92.8651 77.4751L95.3536 81.7699C95.5063 82.0335 95.4157 82.3705 95.1512 82.5226C94.8867 82.6748 94.5485 82.5845 94.3958 82.321L91.9072 78.0261Z" fill="#0A7650"/>
<path d="M99.0963 107.782C98.9436 107.518 99.0342 107.181 99.2987 107.029C99.5632 106.877 99.9014 106.967 100.054 107.231L102.543 111.526C102.695 111.789 102.605 112.126 102.34 112.278C102.076 112.431 101.738 112.34 101.585 112.077L99.0963 107.782Z" fill="#0A7650"/>
<path d="M76.4231 138.089C76.2704 137.825 76.361 137.488 76.6255 137.336C76.89 137.184 77.2283 137.274 77.381 137.537L79.8695 141.832C80.0222 142.096 79.9316 142.433 79.6671 142.585C79.4026 142.737 79.0644 142.647 78.9116 142.383L76.4231 138.089Z" fill="#0A7650"/>
<path d="M67.3379 122.572C67.5538 122.357 67.904 122.357 68.1199 122.572C68.3359 122.787 68.3359 123.136 68.1199 123.351L64.6007 126.858C64.3847 127.073 64.0346 127.073 63.8186 126.858C63.6026 126.643 63.6026 126.294 63.8186 126.079L67.3379 122.572Z" fill="#0A7650"/>
<path d="M113.237 114.858C113.453 114.642 113.803 114.642 114.019 114.858C114.235 115.073 114.235 115.422 114.019 115.637L110.5 119.144C110.284 119.359 109.934 119.359 109.718 119.144C109.502 118.928 109.502 118.58 109.718 118.364L113.237 114.858Z" fill="#0A7650"/>
<path fill-rule="evenodd" clip-rule="evenodd" d="M327.834 380.236C327.362 371.19 319.878 364 310.714 364C301.307 364 293.67 371.577 293.572 380.961C291.587 380.157 289.417 379.714 287.143 379.714C277.675 379.714 270 387.389 270 396.857C270 406.325 277.675 414 287.143 414C292.357 414 297.027 411.672 300.171 407.999C305.215 411.672 312.707 414 321.071 414C336.259 414 348.571 406.325 348.571 396.857C348.571 388.844 339.752 382.115 327.834 380.236Z" fill="#0A7650"/>
<path fill-rule="evenodd" clip-rule="evenodd" d="M347.967 51.731C347.307 39.0661 336.829 29 324 29C310.83 29 300.138 39.6077 300.001 52.7451C297.222 51.6197 294.183 51 291 51C277.745 51 267 61.7452 267 75C267 88.2548 277.745 99 291 99C298.3 99 304.838 95.7411 309.24 90.5988C316.301 95.7411 326.79 99 338.5 99C359.763 99 377 88.2548 377 75C377 63.7815 364.652 54.3608 347.967 51.731Z" fill="#0A7650"/>
</svg>
