<svg width="429" height="429" viewBox="0 0 429 429" fill="none" xmlns="http://www.w3.org/2000/svg">
<rect x="429" width="429" height="429" transform="rotate(90 429 0)" fill="#49A772"/>
<rect x="245" width="245" height="61" transform="rotate(90 245 0)" fill="#CDE3E4"/>
<rect y="184" width="245" height="61" fill="#CDE3E4"/>
<rect x="429" width="429" height="429" transform="rotate(90 429 0)" fill="#49A772"/>
<path d="M337.615 52.6074C337.616 52.4859 337.617 52.3644 337.617 52.2427C337.617 33.331 322.367 18 303.555 18C284.743 18 269.492 33.331 269.492 52.2427C269.492 69.0969 281.605 83.1071 297.556 85.9561C301.004 97.7542 311.855 106.368 324.706 106.368C340.332 106.368 353 93.6336 353 77.9247C353 66.8907 346.75 57.3241 337.615 52.6074Z" fill="#0A7650"/>
<path d="M294.314 34.569C298.543 27.205 309.116 27.205 313.345 34.569L351.17 100.431C355.399 107.795 350.113 117 341.655 117H303.829H266.004C257.546 117 252.259 107.795 256.488 100.431L294.314 34.569Z" fill="#82C9A0"/>
<path d="M310.697 150H296.413L298.758 78.2008H307.712L310.697 150Z" fill="#263843"/>
<path d="M304.104 54.728C304.104 57.0157 302.259 58.8703 299.984 58.8703C297.708 58.8703 295.863 57.0157 295.863 54.728C295.863 52.4403 297.708 50.5858 299.984 50.5858C302.259 50.5858 304.104 52.4403 304.104 54.728Z" fill="#0A7650"/>
<path d="M309.598 42.5774C309.598 44.8651 307.753 46.7197 305.478 46.7197C303.202 46.7197 301.357 44.8651 301.357 42.5774C301.357 40.2897 303.202 38.4351 305.478 38.4351C307.753 38.4351 309.598 40.2897 309.598 42.5774Z" fill="#0A7650"/>
<path d="M319.487 58.0418C319.487 60.3295 317.642 62.1841 315.367 62.1841C313.091 62.1841 311.246 60.3295 311.246 58.0418C311.246 55.7541 313.091 53.8996 315.367 53.8996C317.642 53.8996 319.487 55.7541 319.487 58.0418Z" fill="#0A7650"/>
<path d="M292.567 61.6318C292.567 63.1569 291.337 64.3933 289.82 64.3933C288.303 64.3933 287.073 63.1569 287.073 61.6318C287.073 60.1067 288.303 58.8703 289.82 58.8703C291.337 58.8703 292.567 60.1067 292.567 61.6318Z" fill="#0A7650"/>
<path d="M299.709 68.2594C299.709 69.7846 298.479 71.0209 296.962 71.0209C295.445 71.0209 294.215 69.7846 294.215 68.2594C294.215 66.7343 295.445 65.4979 296.962 65.4979C298.479 65.4979 299.709 66.7343 299.709 68.2594Z" fill="#0A7650"/>
<path d="M312.345 69.9163C312.345 71.4415 311.115 72.6778 309.598 72.6778C308.081 72.6778 306.851 71.4415 306.851 69.9163C306.851 68.3912 308.081 67.1548 309.598 67.1548C311.115 67.1548 312.345 68.3912 312.345 69.9163Z" fill="#0A7650"/>
<path d="M326.08 64.3933C326.08 65.9184 324.85 67.1548 323.333 67.1548C321.816 67.1548 320.586 65.9184 320.586 64.3933C320.586 62.8682 321.816 61.6318 323.333 61.6318C324.85 61.6318 326.08 62.8682 326.08 64.3933Z" fill="#0A7650"/>
<path d="M285.974 68.2594C285.974 69.7846 284.744 71.0209 283.227 71.0209C281.71 71.0209 280.48 69.7846 280.48 68.2594C280.48 66.7343 281.71 65.4979 283.227 65.4979C284.744 65.4979 285.974 66.7343 285.974 68.2594Z" fill="#0A7650"/>
<path d="M292.567 76.5439C292.567 77.459 291.829 78.2008 290.919 78.2008C290.008 78.2008 289.27 77.459 289.27 76.5439C289.27 75.6288 290.008 74.887 290.919 74.887C291.829 74.887 292.567 75.6288 292.567 76.5439Z" fill="#0A7650"/>
<path d="M322.234 74.887C322.234 75.8021 321.496 76.5439 320.586 76.5439C319.676 76.5439 318.938 75.8021 318.938 74.887C318.938 73.9719 319.676 73.2301 320.586 73.2301C321.496 73.2301 322.234 73.9719 322.234 74.887Z" fill="#0A7650"/>
<path d="M316.74 85.9331C316.74 86.8481 316.002 87.59 315.092 87.59C314.182 87.59 313.444 86.8481 313.444 85.9331C313.444 85.018 314.182 84.2762 315.092 84.2762C316.002 84.2762 316.74 85.018 316.74 85.9331Z" fill="#0A7650"/>
<path d="M278.283 78.2008C278.283 79.1159 277.545 79.8577 276.634 79.8577C275.724 79.8577 274.986 79.1159 274.986 78.2008C274.986 77.2858 275.724 76.5439 276.634 76.5439C277.545 76.5439 278.283 77.2858 278.283 78.2008Z" fill="#0A7650"/>
<path d="M332.123 79.8577C332.123 80.7728 331.385 81.5146 330.475 81.5146C329.565 81.5146 328.827 80.7728 328.827 79.8577C328.827 78.9427 329.565 78.2008 330.475 78.2008C331.385 78.2008 332.123 78.9427 332.123 79.8577Z" fill="#0A7650"/>
<path d="M273.338 93.3891C273.338 93.8467 272.969 94.2176 272.514 94.2176C272.059 94.2176 271.69 93.8467 271.69 93.3891C271.69 92.9316 272.059 92.5607 272.514 92.5607C272.969 92.5607 273.338 92.9316 273.338 93.3891Z" fill="#0A7650"/>
<path d="M292.567 94.4937C292.567 94.9513 292.198 95.3222 291.743 95.3222C291.288 95.3222 290.919 94.9513 290.919 94.4937C290.919 94.0362 291.288 93.6653 291.743 93.6653C292.198 93.6653 292.567 94.0362 292.567 94.4937Z" fill="#0A7650"/>
<path d="M285.974 88.9707C285.974 89.4282 285.605 89.7992 285.15 89.7992C284.695 89.7992 284.326 89.4282 284.326 88.9707C284.326 88.5132 284.695 88.1423 285.15 88.1423C285.605 88.1423 285.974 88.5132 285.974 88.9707Z" fill="#0A7650"/>
<path d="M324.432 89.523C324.432 89.9806 324.063 90.3515 323.607 90.3515C323.152 90.3515 322.783 89.9806 322.783 89.523C322.783 89.0655 323.152 88.6946 323.607 88.6946C324.063 88.6946 324.432 89.0655 324.432 89.523Z" fill="#0A7650"/>
<path d="M188.267 126.761C188.268 126.684 188.268 126.608 188.268 126.531C188.268 114.64 178.62 105 166.718 105C154.817 105 145.169 114.64 145.169 126.531C145.169 137.129 152.832 145.939 162.923 147.73C165.105 155.148 171.969 160.565 180.1 160.565C189.986 160.565 198 152.557 198 142.68C198 135.742 194.046 129.726 188.267 126.761Z" fill="#0A7650"/>
<path d="M160.872 115.418C163.548 110.788 170.237 110.788 172.912 115.418L196.842 156.832C199.518 161.462 196.174 167.25 190.822 167.25H166.892H142.962C137.611 167.25 134.266 161.462 136.942 156.832L160.872 115.418Z" fill="#82C9A0"/>
<path d="M171.237 188H162.2L163.683 142.854H169.348L171.237 188Z" fill="#263843"/>
<path d="M167.066 128.094C167.066 129.533 165.899 130.699 164.459 130.699C163.019 130.699 161.852 129.533 161.852 128.094C161.852 126.656 163.019 125.49 164.459 125.49C165.899 125.49 167.066 126.656 167.066 128.094Z" fill="#0A7650"/>
<path d="M170.542 120.454C170.542 121.892 169.374 123.059 167.935 123.059C166.495 123.059 165.328 121.892 165.328 120.454C165.328 119.015 166.495 117.849 167.935 117.849C169.374 117.849 170.542 119.015 170.542 120.454Z" fill="#0A7650"/>
<path d="M176.798 130.178C176.798 131.616 175.631 132.782 174.191 132.782C172.751 132.782 171.584 131.616 171.584 130.178C171.584 128.739 172.751 127.573 174.191 127.573C175.631 127.573 176.798 128.739 176.798 130.178Z" fill="#0A7650"/>
<path d="M159.767 132.435C159.767 133.394 158.989 134.172 158.029 134.172C157.069 134.172 156.291 133.394 156.291 132.435C156.291 131.476 157.069 130.699 158.029 130.699C158.989 130.699 159.767 131.476 159.767 132.435Z" fill="#0A7650"/>
<path d="M164.285 136.603C164.285 137.562 163.507 138.339 162.547 138.339C161.588 138.339 160.809 137.562 160.809 136.603C160.809 135.644 161.588 134.866 162.547 134.866C163.507 134.866 164.285 135.644 164.285 136.603Z" fill="#0A7650"/>
<path d="M172.279 137.644C172.279 138.603 171.501 139.381 170.542 139.381C169.582 139.381 168.804 138.603 168.804 137.644C168.804 136.685 169.582 135.908 170.542 135.908C171.501 135.908 172.279 136.685 172.279 137.644Z" fill="#0A7650"/>
<path d="M180.969 134.172C180.969 135.131 180.191 135.908 179.231 135.908C178.271 135.908 177.493 135.131 177.493 134.172C177.493 133.213 178.271 132.435 179.231 132.435C180.191 132.435 180.969 133.213 180.969 134.172Z" fill="#0A7650"/>
<path d="M155.596 136.603C155.596 137.562 154.818 138.339 153.858 138.339C152.898 138.339 152.12 137.562 152.12 136.603C152.12 135.644 152.898 134.866 153.858 134.866C154.818 134.866 155.596 135.644 155.596 136.603Z" fill="#0A7650"/>
<path d="M159.767 141.812C159.767 142.387 159.3 142.854 158.724 142.854C158.148 142.854 157.681 142.387 157.681 141.812C157.681 141.236 158.148 140.77 158.724 140.77C159.3 140.77 159.767 141.236 159.767 141.812Z" fill="#0A7650"/>
<path d="M178.536 140.77C178.536 141.345 178.069 141.812 177.493 141.812C176.917 141.812 176.45 141.345 176.45 140.77C176.45 140.194 176.917 139.728 177.493 139.728C178.069 139.728 178.536 140.194 178.536 140.77Z" fill="#0A7650"/>
<path d="M175.06 147.715C175.06 148.291 174.593 148.757 174.017 148.757C173.441 148.757 172.975 148.291 172.975 147.715C172.975 147.14 173.441 146.674 174.017 146.674C174.593 146.674 175.06 147.14 175.06 147.715Z" fill="#0A7650"/>
<path d="M150.73 142.854C150.73 143.429 150.263 143.895 149.687 143.895C149.111 143.895 148.644 143.429 148.644 142.854C148.644 142.278 149.111 141.812 149.687 141.812C150.263 141.812 150.73 142.278 150.73 142.854Z" fill="#0A7650"/>
<path d="M184.792 143.895C184.792 144.471 184.325 144.937 183.749 144.937C183.174 144.937 182.707 144.471 182.707 143.895C182.707 143.32 183.174 142.854 183.749 142.854C184.325 142.854 184.792 143.32 184.792 143.895Z" fill="#0A7650"/>
<path d="M147.602 152.404C147.602 152.691 147.368 152.925 147.08 152.925C146.792 152.925 146.559 152.691 146.559 152.404C146.559 152.116 146.792 151.883 147.08 151.883C147.368 151.883 147.602 152.116 147.602 152.404Z" fill="#0A7650"/>
<path d="M159.767 153.098C159.767 153.386 159.533 153.619 159.245 153.619C158.957 153.619 158.724 153.386 158.724 153.098C158.724 152.811 158.957 152.577 159.245 152.577C159.533 152.577 159.767 152.811 159.767 153.098Z" fill="#0A7650"/>
<path d="M155.596 149.626C155.596 149.913 155.362 150.146 155.075 150.146C154.787 150.146 154.553 149.913 154.553 149.626C154.553 149.338 154.787 149.105 155.075 149.105C155.362 149.105 155.596 149.338 155.596 149.626Z" fill="#0A7650"/>
<path d="M179.926 149.973C179.926 150.261 179.693 150.494 179.405 150.494C179.117 150.494 178.883 150.261 178.883 149.973C178.883 149.685 179.117 149.452 179.405 149.452C179.693 149.452 179.926 149.685 179.926 149.973Z" fill="#0A7650"/>
<path d="M176.267 367.761C176.268 367.684 176.268 367.608 176.268 367.531C176.268 355.64 166.62 346 154.718 346C142.817 346 133.169 355.64 133.169 367.531C133.169 378.129 140.832 386.939 150.923 388.73C153.105 396.148 159.969 401.565 168.1 401.565C177.986 401.565 186 393.557 186 383.68C186 376.742 182.046 370.726 176.267 367.761Z" fill="#0A7650"/>
<path d="M148.872 356.418C151.548 351.788 158.237 351.788 160.912 356.418L184.842 397.832C187.518 402.462 184.174 408.25 178.822 408.25H154.892H130.962C125.611 408.25 122.266 402.462 124.942 397.832L148.872 356.418Z" fill="#82C9A0"/>
<path d="M159.237 429H150.2L151.683 383.854H157.348L159.237 429Z" fill="#263843"/>
<path d="M155.066 369.094C155.066 370.533 153.899 371.699 152.459 371.699C151.019 371.699 149.852 370.533 149.852 369.094C149.852 367.656 151.019 366.49 152.459 366.49C153.899 366.49 155.066 367.656 155.066 369.094Z" fill="#0A7650"/>
<path d="M158.542 361.454C158.542 362.892 157.374 364.059 155.935 364.059C154.495 364.059 153.328 362.892 153.328 361.454C153.328 360.015 154.495 358.849 155.935 358.849C157.374 358.849 158.542 360.015 158.542 361.454Z" fill="#0A7650"/>
<path d="M164.798 371.178C164.798 372.616 163.631 373.782 162.191 373.782C160.751 373.782 159.584 372.616 159.584 371.178C159.584 369.739 160.751 368.573 162.191 368.573C163.631 368.573 164.798 369.739 164.798 371.178Z" fill="#0A7650"/>
<path d="M147.767 373.435C147.767 374.394 146.989 375.172 146.029 375.172C145.069 375.172 144.291 374.394 144.291 373.435C144.291 372.476 145.069 371.699 146.029 371.699C146.989 371.699 147.767 372.476 147.767 373.435Z" fill="#0A7650"/>
<path d="M152.285 377.603C152.285 378.562 151.507 379.339 150.547 379.339C149.588 379.339 148.809 378.562 148.809 377.603C148.809 376.644 149.588 375.866 150.547 375.866C151.507 375.866 152.285 376.644 152.285 377.603Z" fill="#0A7650"/>
<path d="M160.279 378.644C160.279 379.603 159.501 380.381 158.542 380.381C157.582 380.381 156.804 379.603 156.804 378.644C156.804 377.685 157.582 376.908 158.542 376.908C159.501 376.908 160.279 377.685 160.279 378.644Z" fill="#0A7650"/>
<path d="M168.969 375.172C168.969 376.131 168.191 376.908 167.231 376.908C166.271 376.908 165.493 376.131 165.493 375.172C165.493 374.213 166.271 373.435 167.231 373.435C168.191 373.435 168.969 374.213 168.969 375.172Z" fill="#0A7650"/>
<path d="M143.596 377.603C143.596 378.562 142.818 379.339 141.858 379.339C140.898 379.339 140.12 378.562 140.12 377.603C140.12 376.644 140.898 375.866 141.858 375.866C142.818 375.866 143.596 376.644 143.596 377.603Z" fill="#0A7650"/>
<path d="M147.767 382.812C147.767 383.387 147.3 383.854 146.724 383.854C146.148 383.854 145.681 383.387 145.681 382.812C145.681 382.236 146.148 381.77 146.724 381.77C147.3 381.77 147.767 382.236 147.767 382.812Z" fill="#0A7650"/>
<path d="M166.536 381.77C166.536 382.345 166.069 382.812 165.493 382.812C164.917 382.812 164.45 382.345 164.45 381.77C164.45 381.194 164.917 380.728 165.493 380.728C166.069 380.728 166.536 381.194 166.536 381.77Z" fill="#0A7650"/>
<path d="M163.06 388.715C163.06 389.291 162.593 389.757 162.017 389.757C161.441 389.757 160.975 389.291 160.975 388.715C160.975 388.14 161.441 387.674 162.017 387.674C162.593 387.674 163.06 388.14 163.06 388.715Z" fill="#0A7650"/>
<path d="M138.73 383.854C138.73 384.429 138.263 384.895 137.687 384.895C137.111 384.895 136.644 384.429 136.644 383.854C136.644 383.278 137.111 382.812 137.687 382.812C138.263 382.812 138.73 383.278 138.73 383.854Z" fill="#0A7650"/>
<path d="M172.792 384.895C172.792 385.471 172.325 385.937 171.749 385.937C171.174 385.937 170.707 385.471 170.707 384.895C170.707 384.32 171.174 383.854 171.749 383.854C172.325 383.854 172.792 384.32 172.792 384.895Z" fill="#0A7650"/>
<path d="M135.602 393.404C135.602 393.691 135.368 393.925 135.08 393.925C134.792 393.925 134.559 393.691 134.559 393.404C134.559 393.116 134.792 392.883 135.08 392.883C135.368 392.883 135.602 393.116 135.602 393.404Z" fill="#0A7650"/>
<path d="M147.767 394.098C147.767 394.386 147.533 394.619 147.245 394.619C146.957 394.619 146.724 394.386 146.724 394.098C146.724 393.811 146.957 393.577 147.245 393.577C147.533 393.577 147.767 393.811 147.767 394.098Z" fill="#0A7650"/>
<path d="M143.596 390.626C143.596 390.913 143.362 391.146 143.075 391.146C142.787 391.146 142.553 390.913 142.553 390.626C142.553 390.338 142.787 390.105 143.075 390.105C143.362 390.105 143.596 390.338 143.596 390.626Z" fill="#0A7650"/>
<path d="M167.926 390.973C167.926 391.261 167.693 391.494 167.405 391.494C167.117 391.494 166.883 391.261 166.883 390.973C166.883 390.685 167.117 390.452 167.405 390.452C167.693 390.452 167.926 390.685 167.926 390.973Z" fill="#0A7650"/>
<path d="M393.267 193.761C393.268 193.684 393.268 193.608 393.268 193.531C393.268 181.64 383.62 172 371.718 172C359.817 172 350.169 181.64 350.169 193.531C350.169 204.129 357.832 212.939 367.923 214.73C370.105 222.148 376.969 227.565 385.1 227.565C394.986 227.565 403 219.557 403 209.68C403 202.742 399.046 196.726 393.267 193.761Z" fill="#0A7650"/>
<path d="M365.872 182.418C368.548 177.788 375.237 177.788 377.912 182.418L401.842 223.832C404.518 228.462 401.174 234.25 395.822 234.25H371.892H347.962C342.611 234.25 339.266 228.462 341.942 223.832L365.872 182.418Z" fill="#82C9A0"/>
<path d="M376.237 255H367.2L368.683 209.854H374.348L376.237 255Z" fill="#263843"/>
<path d="M372.066 195.094C372.066 196.533 370.899 197.699 369.459 197.699C368.019 197.699 366.852 196.533 366.852 195.094C366.852 193.656 368.019 192.49 369.459 192.49C370.899 192.49 372.066 193.656 372.066 195.094Z" fill="#0A7650"/>
<path d="M375.542 187.454C375.542 188.892 374.374 190.059 372.935 190.059C371.495 190.059 370.328 188.892 370.328 187.454C370.328 186.015 371.495 184.849 372.935 184.849C374.374 184.849 375.542 186.015 375.542 187.454Z" fill="#0A7650"/>
<path d="M381.798 197.178C381.798 198.616 380.631 199.782 379.191 199.782C377.751 199.782 376.584 198.616 376.584 197.178C376.584 195.739 377.751 194.573 379.191 194.573C380.631 194.573 381.798 195.739 381.798 197.178Z" fill="#0A7650"/>
<path d="M364.767 199.435C364.767 200.394 363.989 201.172 363.029 201.172C362.069 201.172 361.291 200.394 361.291 199.435C361.291 198.476 362.069 197.699 363.029 197.699C363.989 197.699 364.767 198.476 364.767 199.435Z" fill="#0A7650"/>
<path d="M369.285 203.603C369.285 204.562 368.507 205.339 367.547 205.339C366.588 205.339 365.809 204.562 365.809 203.603C365.809 202.644 366.588 201.866 367.547 201.866C368.507 201.866 369.285 202.644 369.285 203.603Z" fill="#0A7650"/>
<path d="M377.279 204.644C377.279 205.603 376.501 206.381 375.542 206.381C374.582 206.381 373.804 205.603 373.804 204.644C373.804 203.685 374.582 202.908 375.542 202.908C376.501 202.908 377.279 203.685 377.279 204.644Z" fill="#0A7650"/>
<path d="M385.969 201.172C385.969 202.131 385.191 202.908 384.231 202.908C383.271 202.908 382.493 202.131 382.493 201.172C382.493 200.213 383.271 199.435 384.231 199.435C385.191 199.435 385.969 200.213 385.969 201.172Z" fill="#0A7650"/>
<path d="M360.596 203.603C360.596 204.562 359.818 205.339 358.858 205.339C357.898 205.339 357.12 204.562 357.12 203.603C357.12 202.644 357.898 201.866 358.858 201.866C359.818 201.866 360.596 202.644 360.596 203.603Z" fill="#0A7650"/>
<path d="M364.767 208.812C364.767 209.387 364.3 209.854 363.724 209.854C363.148 209.854 362.681 209.387 362.681 208.812C362.681 208.236 363.148 207.77 363.724 207.77C364.3 207.77 364.767 208.236 364.767 208.812Z" fill="#0A7650"/>
<path d="M383.536 207.77C383.536 208.345 383.069 208.812 382.493 208.812C381.917 208.812 381.45 208.345 381.45 207.77C381.45 207.194 381.917 206.728 382.493 206.728C383.069 206.728 383.536 207.194 383.536 207.77Z" fill="#0A7650"/>
<path d="M380.06 214.715C380.06 215.291 379.593 215.757 379.017 215.757C378.441 215.757 377.975 215.291 377.975 214.715C377.975 214.14 378.441 213.674 379.017 213.674C379.593 213.674 380.06 214.14 380.06 214.715Z" fill="#0A7650"/>
<path d="M355.73 209.854C355.73 210.429 355.263 210.895 354.687 210.895C354.111 210.895 353.644 210.429 353.644 209.854C353.644 209.278 354.111 208.812 354.687 208.812C355.263 208.812 355.73 209.278 355.73 209.854Z" fill="#0A7650"/>
<path d="M389.792 210.895C389.792 211.471 389.325 211.937 388.749 211.937C388.174 211.937 387.707 211.471 387.707 210.895C387.707 210.32 388.174 209.854 388.749 209.854C389.325 209.854 389.792 210.32 389.792 210.895Z" fill="#0A7650"/>
<path d="M352.602 219.404C352.602 219.691 352.368 219.925 352.08 219.925C351.792 219.925 351.559 219.691 351.559 219.404C351.559 219.116 351.792 218.883 352.08 218.883C352.368 218.883 352.602 219.116 352.602 219.404Z" fill="#0A7650"/>
<path d="M364.767 220.098C364.767 220.386 364.533 220.619 364.245 220.619C363.957 220.619 363.724 220.386 363.724 220.098C363.724 219.811 363.957 219.577 364.245 219.577C364.533 219.577 364.767 219.811 364.767 220.098Z" fill="#0A7650"/>
<path d="M360.596 216.626C360.596 216.913 360.362 217.146 360.075 217.146C359.787 217.146 359.553 216.913 359.553 216.626C359.553 216.338 359.787 216.105 360.075 216.105C360.362 216.105 360.596 216.338 360.596 216.626Z" fill="#0A7650"/>
<path d="M384.926 216.973C384.926 217.261 384.693 217.494 384.405 217.494C384.117 217.494 383.883 217.261 383.883 216.973C383.883 216.685 384.117 216.452 384.405 216.452C384.693 216.452 384.926 216.685 384.926 216.973Z" fill="#0A7650"/>
<path d="M92.0966 218.617C86.9282 214.841 79.5902 218.049 78.8882 224.391L78.5266 227.658L73.2016 225.715C67.1817 223.518 61.0298 228.63 62.1282 234.916L66.3459 259.053C67.4443 265.339 74.9692 268.084 79.8907 263.995L88.2438 257.054L110.363 247.385C116.233 244.819 117.11 236.892 111.942 233.116L92.0966 218.617Z" fill="#0A7650"/>
<path d="M123 253.919C123 270.284 109.668 283.55 93.2231 283.55C76.7778 283.55 63.4463 270.284 63.4463 253.919C63.4463 237.555 76.7778 224.289 93.2231 224.289C109.668 224.289 123 237.555 123 253.919Z" fill="#82C9A0"/>
<path d="M98.4289 308H87.6009L89.3787 254.126H96.1663L98.4289 308Z" fill="#263843"/>
<path d="M89.7261 232.888C90.4474 231.645 92.2507 231.645 92.9721 232.888C93.6934 234.131 92.7917 235.685 91.3491 235.685C89.9064 235.685 89.0048 234.131 89.7261 232.888Z" fill="#82C9A0"/>
<path d="M107.055 235.116C106.891 234.956 106.889 234.693 107.05 234.53C107.211 234.367 107.475 234.365 107.639 234.525L110.312 237.139C110.476 237.3 110.479 237.562 110.317 237.725C110.156 237.888 109.893 237.891 109.728 237.73L107.055 235.116Z" fill="#0A7650"/>
<path d="M87.0651 242.576C86.901 242.415 86.8987 242.153 87.0599 241.99C87.2211 241.826 87.4848 241.824 87.6489 241.984L90.3222 244.599C90.4863 244.759 90.4886 245.021 90.3274 245.185C90.1662 245.348 89.9025 245.35 89.7384 245.19L87.0651 242.576Z" fill="#0A7650"/>
<path d="M72.9054 238.431C72.7414 238.271 72.7391 238.009 72.9003 237.845C73.0615 237.682 73.3252 237.68 73.4892 237.84L76.1626 240.455C76.3266 240.615 76.329 240.877 76.1677 241.041C76.0065 241.204 75.7429 241.206 75.5788 241.046L72.9054 238.431Z" fill="#0A7650"/>
<path d="M82.2166 248.203C82.3792 248.041 82.6429 248.041 82.8055 248.203C82.9682 248.365 82.9682 248.628 82.8055 248.789L80.1552 251.427C79.9926 251.588 79.7289 251.588 79.5662 251.427C79.4036 251.265 79.4036 251.002 79.5662 250.841L82.2166 248.203Z" fill="#0A7650"/>
<path d="M106.371 272.654C106.534 272.492 106.798 272.492 106.96 272.654C107.123 272.815 107.123 273.078 106.96 273.24L104.31 275.877C104.147 276.039 103.884 276.039 103.721 275.877C103.558 275.715 103.558 275.453 103.721 275.291L106.371 272.654Z" fill="#0A7650"/>
<path d="M81.8001 229.969C81.9627 229.807 82.2264 229.807 82.3891 229.969C82.5517 230.131 82.5517 230.393 82.3891 230.555L79.7387 233.193C79.5761 233.354 79.3124 233.354 79.1498 233.193C78.9871 233.031 78.9871 232.768 79.1498 232.606L81.8001 229.969Z" fill="#0A7650"/>
<path d="M99.5068 236.293C99.5663 236.072 99.7947 235.94 100.017 236C100.239 236.059 100.371 236.286 100.311 236.507L99.3412 240.11C99.2817 240.331 99.0533 240.462 98.8312 240.403C98.609 240.344 98.4772 240.116 98.5367 239.895L99.5068 236.293Z" fill="#0A7650"/>
<path d="M83.2649 259.085C83.3244 258.864 83.5527 258.733 83.7749 258.792C83.9971 258.851 84.1289 259.079 84.0694 259.3L83.0993 262.902C83.0398 263.123 82.8114 263.255 82.5892 263.195C82.3671 263.136 82.2352 262.909 82.2948 262.688L83.2649 259.085Z" fill="#0A7650"/>
<path d="M102.422 264.473C102.482 264.252 102.71 264.12 102.932 264.18C103.154 264.239 103.286 264.466 103.227 264.687L102.256 268.29C102.197 268.511 101.969 268.642 101.746 268.583C101.524 268.524 101.392 268.296 101.452 268.075L102.422 264.473Z" fill="#0A7650"/>
<path d="M109.085 245.41C109.145 245.189 109.373 245.057 109.595 245.117C109.818 245.176 109.949 245.403 109.89 245.624L108.92 249.227C108.86 249.448 108.632 249.579 108.41 249.52C108.188 249.461 108.056 249.233 108.115 249.012L109.085 245.41Z" fill="#0A7650"/>
<path d="M69.5217 248.311C69.5812 248.089 69.8096 247.958 70.0317 248.018C70.2539 248.077 70.3858 248.304 70.3262 248.525L69.3561 252.128C69.2966 252.349 69.0682 252.48 68.8461 252.421C68.6239 252.361 68.4921 252.134 68.5516 251.913L69.5217 248.311Z" fill="#0A7650"/>
<path d="M114.083 261.572C114.142 261.351 114.371 261.219 114.593 261.279C114.815 261.338 114.947 261.565 114.887 261.786L113.917 265.389C113.858 265.61 113.629 265.741 113.407 265.682C113.185 265.623 113.053 265.395 113.113 265.174L114.083 261.572Z" fill="#0A7650"/>
<path d="M117.378 254.071C117.263 253.873 117.331 253.619 117.53 253.505C117.729 253.39 117.984 253.458 118.099 253.657L119.973 256.887C120.088 257.085 120.02 257.338 119.821 257.453C119.622 257.567 119.367 257.499 119.252 257.301L117.378 254.071Z" fill="#0A7650"/>
<path d="M115.295 242.467C115.18 242.269 115.249 242.016 115.448 241.901C115.647 241.787 115.902 241.855 116.017 242.053L117.891 245.283C118.006 245.481 117.938 245.735 117.738 245.849C117.539 245.964 117.285 245.896 117.17 245.697L115.295 242.467Z" fill="#0A7650"/>
<path d="M92.8067 227.549C92.6917 227.35 92.7599 227.097 92.9591 226.982C93.1583 226.868 93.413 226.936 93.528 227.134L95.4021 230.364C95.5171 230.562 95.4488 230.816 95.2496 230.93C95.0505 231.045 94.7958 230.977 94.6808 230.779L92.8067 227.549Z" fill="#0A7650"/>
<path d="M92.8067 227.549C92.6917 227.35 92.7599 227.097 92.9591 226.982C93.1583 226.868 93.413 226.936 93.528 227.134L95.4021 230.364C95.5171 230.562 95.4488 230.816 95.2496 230.93C95.0505 231.045 94.7958 230.977 94.6808 230.779L92.8067 227.549Z" fill="#0A7650"/>
<path d="M98.2207 249.927C98.1057 249.729 98.1739 249.475 98.3731 249.361C98.5723 249.246 98.827 249.314 98.942 249.512L100.816 252.742C100.931 252.941 100.863 253.194 100.664 253.309C100.464 253.423 100.21 253.355 100.095 253.157L98.2207 249.927Z" fill="#0A7650"/>
<path d="M81.1458 272.719C81.0308 272.521 81.0991 272.268 81.2982 272.153C81.4974 272.039 81.7521 272.107 81.8671 272.305L83.7412 275.535C83.8562 275.733 83.788 275.987 83.5888 276.101C83.3896 276.216 83.1349 276.148 83.0199 275.949L81.1458 272.719Z" fill="#0A7650"/>
<path d="M74.3038 261.05C74.4665 260.888 74.7302 260.888 74.8928 261.05C75.0554 261.212 75.0554 261.474 74.8928 261.636L72.2425 264.273C72.0798 264.435 71.8161 264.435 71.6535 264.273C71.4909 264.112 71.4909 263.849 71.6535 263.687L74.3038 261.05Z" fill="#0A7650"/>
<path d="M108.87 255.248C109.033 255.086 109.296 255.086 109.459 255.248C109.622 255.41 109.622 255.673 109.459 255.834L106.809 258.472C106.646 258.633 106.382 258.633 106.22 258.472C106.057 258.31 106.057 258.047 106.22 257.886L108.87 255.248Z" fill="#0A7650"/>
<path d="M244.097 241.617C238.928 237.841 231.59 241.049 230.888 247.391L230.527 250.658L225.202 248.715C219.182 246.518 213.03 251.63 214.128 257.916L218.346 282.053C219.444 288.339 226.969 291.084 231.891 286.995L240.244 280.054L262.363 270.385C268.233 267.819 269.11 259.892 263.942 256.116L244.097 241.617Z" fill="#0A7650"/>
<path d="M275 276.919C275 293.284 261.668 306.55 245.223 306.55C228.778 306.55 215.446 293.284 215.446 276.919C215.446 260.555 228.778 247.289 245.223 247.289C261.668 247.289 275 260.555 275 276.919Z" fill="#82C9A0"/>
<path d="M250.429 331H239.601L241.379 277.126H248.166L250.429 331Z" fill="#263843"/>
<path d="M241.726 255.888C242.447 254.645 244.251 254.645 244.972 255.888C245.693 257.131 244.792 258.685 243.349 258.685C241.906 258.685 241.005 257.131 241.726 255.888Z" fill="#82C9A0"/>
<path d="M259.055 258.116C258.891 257.956 258.889 257.693 259.05 257.53C259.211 257.367 259.475 257.365 259.639 257.525L262.312 260.139C262.476 260.3 262.479 260.562 262.317 260.725C262.156 260.888 261.893 260.891 261.728 260.73L259.055 258.116Z" fill="#0A7650"/>
<path d="M239.065 265.576C238.901 265.415 238.899 265.153 239.06 264.99C239.221 264.826 239.485 264.824 239.649 264.984L242.322 267.599C242.486 267.759 242.489 268.021 242.327 268.185C242.166 268.348 241.902 268.35 241.738 268.19L239.065 265.576Z" fill="#0A7650"/>
<path d="M224.905 261.431C224.741 261.271 224.739 261.009 224.9 260.845C225.062 260.682 225.325 260.68 225.489 260.84L228.163 263.455C228.327 263.615 228.329 263.877 228.168 264.041C228.007 264.204 227.743 264.206 227.579 264.046L224.905 261.431Z" fill="#0A7650"/>
<path d="M234.217 271.203C234.379 271.041 234.643 271.041 234.806 271.203C234.968 271.365 234.968 271.628 234.806 271.789L232.155 274.427C231.993 274.588 231.729 274.588 231.566 274.427C231.404 274.265 231.404 274.002 231.566 273.841L234.217 271.203Z" fill="#0A7650"/>
<path d="M258.371 295.654C258.534 295.492 258.798 295.492 258.96 295.654C259.123 295.815 259.123 296.078 258.96 296.24L256.31 298.877C256.147 299.039 255.884 299.039 255.721 298.877C255.558 298.715 255.558 298.453 255.721 298.291L258.371 295.654Z" fill="#0A7650"/>
<path d="M233.8 252.969C233.963 252.807 234.226 252.807 234.389 252.969C234.552 253.131 234.552 253.393 234.389 253.555L231.739 256.193C231.576 256.354 231.312 256.354 231.15 256.193C230.987 256.031 230.987 255.768 231.15 255.606L233.8 252.969Z" fill="#0A7650"/>
<path d="M251.507 259.293C251.566 259.072 251.795 258.94 252.017 259C252.239 259.059 252.371 259.286 252.311 259.507L251.341 263.11C251.282 263.331 251.053 263.462 250.831 263.403C250.609 263.344 250.477 263.116 250.537 262.895L251.507 259.293Z" fill="#0A7650"/>
<path d="M235.265 282.085C235.324 281.864 235.553 281.733 235.775 281.792C235.997 281.851 236.129 282.079 236.069 282.3L235.099 285.902C235.04 286.123 234.811 286.255 234.589 286.195C234.367 286.136 234.235 285.909 234.295 285.688L235.265 282.085Z" fill="#0A7650"/>
<path d="M254.422 287.473C254.482 287.252 254.71 287.12 254.932 287.18C255.154 287.239 255.286 287.466 255.227 287.687L254.256 291.29C254.197 291.511 253.969 291.642 253.746 291.583C253.524 291.524 253.392 291.296 253.452 291.075L254.422 287.473Z" fill="#0A7650"/>
<path d="M261.085 268.41C261.145 268.189 261.373 268.057 261.595 268.117C261.818 268.176 261.949 268.403 261.89 268.624L260.92 272.227C260.86 272.448 260.632 272.579 260.41 272.52C260.188 272.461 260.056 272.233 260.115 272.012L261.085 268.41Z" fill="#0A7650"/>
<path d="M221.522 271.311C221.581 271.089 221.81 270.958 222.032 271.018C222.254 271.077 222.386 271.304 222.326 271.525L221.356 275.128C221.297 275.349 221.068 275.48 220.846 275.421C220.624 275.361 220.492 275.134 220.552 274.913L221.522 271.311Z" fill="#0A7650"/>
<path d="M266.083 284.572C266.142 284.351 266.371 284.219 266.593 284.279C266.815 284.338 266.947 284.565 266.887 284.786L265.917 288.389C265.858 288.61 265.629 288.741 265.407 288.682C265.185 288.623 265.053 288.395 265.113 288.174L266.083 284.572Z" fill="#0A7650"/>
<path d="M269.378 277.071C269.263 276.873 269.331 276.619 269.53 276.505C269.729 276.39 269.984 276.458 270.099 276.657L271.973 279.887C272.088 280.085 272.02 280.338 271.821 280.453C271.622 280.567 271.367 280.499 271.252 280.301L269.378 277.071Z" fill="#0A7650"/>
<path d="M267.295 265.467C267.18 265.269 267.249 265.016 267.448 264.901C267.647 264.787 267.902 264.855 268.017 265.053L269.891 268.283C270.006 268.481 269.938 268.735 269.738 268.849C269.539 268.964 269.285 268.896 269.17 268.697L267.295 265.467Z" fill="#0A7650"/>
<path d="M244.807 250.549C244.692 250.35 244.76 250.097 244.959 249.982C245.158 249.868 245.413 249.936 245.528 250.134L247.402 253.364C247.517 253.562 247.449 253.816 247.25 253.93C247.05 254.045 246.796 253.977 246.681 253.779L244.807 250.549Z" fill="#0A7650"/>
<path d="M244.807 250.549C244.692 250.35 244.76 250.097 244.959 249.982C245.158 249.868 245.413 249.936 245.528 250.134L247.402 253.364C247.517 253.562 247.449 253.816 247.25 253.93C247.05 254.045 246.796 253.977 246.681 253.779L244.807 250.549Z" fill="#0A7650"/>
<path d="M250.221 272.927C250.106 272.729 250.174 272.475 250.373 272.361C250.572 272.246 250.827 272.314 250.942 272.512L252.816 275.742C252.931 275.941 252.863 276.194 252.664 276.309C252.464 276.423 252.21 276.355 252.095 276.157L250.221 272.927Z" fill="#0A7650"/>
<path d="M233.146 295.719C233.031 295.521 233.099 295.268 233.298 295.153C233.497 295.039 233.752 295.107 233.867 295.305L235.741 298.535C235.856 298.733 235.788 298.987 235.589 299.101C235.39 299.216 235.135 299.148 235.02 298.949L233.146 295.719Z" fill="#0A7650"/>
<path d="M226.304 284.05C226.466 283.888 226.73 283.888 226.893 284.05C227.055 284.212 227.055 284.474 226.893 284.636L224.242 287.273C224.08 287.435 223.816 287.435 223.654 287.273C223.491 287.112 223.491 286.849 223.654 286.687L226.304 284.05Z" fill="#0A7650"/>
<path d="M260.87 278.248C261.033 278.086 261.296 278.086 261.459 278.248C261.622 278.41 261.622 278.673 261.459 278.834L258.809 281.472C258.646 281.633 258.382 281.633 258.22 281.472C258.057 281.31 258.057 281.047 258.22 280.886L260.87 278.248Z" fill="#0A7650"/>
<path d="M361.964 310.151C355.101 305.13 345.357 309.395 344.425 317.827L343.945 322.171L336.874 319.588C328.881 316.667 320.712 323.464 322.17 331.823L327.771 363.916C329.229 372.275 339.221 375.925 345.757 370.487L356.848 361.258L386.219 348.403C394.014 344.991 395.179 334.45 388.317 329.429L361.964 310.151Z" fill="#0A7650"/>
<path d="M403 357.09C403 378.85 385.297 396.489 363.46 396.489C341.623 396.489 323.92 378.85 323.92 357.09C323.92 335.331 341.623 317.692 363.46 317.692C385.297 317.692 403 335.331 403 357.09Z" fill="#82C9A0"/>
<path d="M370.373 429H355.995L358.355 357.366H367.368L370.373 429Z" fill="#263843"/>
<path d="M358.817 329.126C359.774 327.472 362.169 327.472 363.127 329.126C364.085 330.779 362.887 332.845 360.972 332.845C359.056 332.845 357.859 330.779 358.817 329.126Z" fill="#82C9A0"/>
<path d="M381.827 332.089C381.609 331.875 381.606 331.526 381.82 331.309C382.035 331.092 382.385 331.089 382.602 331.303L386.152 334.779C386.37 334.992 386.373 335.341 386.159 335.558C385.945 335.775 385.595 335.778 385.377 335.565L381.827 332.089Z" fill="#0A7650"/>
<path d="M355.283 342.007C355.065 341.794 355.062 341.445 355.276 341.228C355.49 341.011 355.84 341.008 356.058 341.221L359.608 344.697C359.826 344.91 359.829 345.259 359.615 345.476C359.401 345.693 359.051 345.696 358.833 345.483L355.283 342.007Z" fill="#0A7650"/>
<path d="M336.481 336.497C336.263 336.284 336.26 335.935 336.474 335.718C336.688 335.5 337.038 335.497 337.256 335.711L340.806 339.187C341.024 339.4 341.027 339.749 340.813 339.966C340.599 340.183 340.249 340.186 340.031 339.973L336.481 336.497Z" fill="#0A7650"/>
<path d="M348.845 349.49C349.061 349.275 349.411 349.275 349.627 349.49C349.843 349.705 349.843 350.054 349.627 350.269L346.108 353.776C345.892 353.991 345.542 353.991 345.326 353.776C345.11 353.561 345.11 353.212 345.326 352.997L348.845 349.49Z" fill="#0A7650"/>
<path d="M380.919 382.001C381.135 381.786 381.485 381.786 381.701 382.001C381.917 382.216 381.917 382.565 381.701 382.78L378.182 386.287C377.966 386.502 377.616 386.502 377.4 386.287C377.184 386.072 377.184 385.723 377.4 385.508L380.919 382.001Z" fill="#0A7650"/>
<path d="M348.292 325.245C348.508 325.03 348.858 325.03 349.074 325.245C349.29 325.46 349.29 325.809 349.074 326.024L345.555 329.531C345.339 329.746 344.989 329.746 344.773 329.531C344.557 329.316 344.557 328.967 344.773 328.751L348.292 325.245Z" fill="#0A7650"/>
<path d="M371.804 333.653C371.883 333.359 372.186 333.184 372.481 333.263C372.776 333.342 372.951 333.644 372.872 333.938L371.584 338.728C371.505 339.022 371.202 339.197 370.907 339.118C370.612 339.039 370.437 338.737 370.516 338.443L371.804 333.653Z" fill="#0A7650"/>
<path d="M350.237 363.96C350.316 363.666 350.619 363.491 350.914 363.57C351.209 363.649 351.384 363.951 351.305 364.245L350.017 369.035C349.938 369.329 349.635 369.503 349.34 369.425C349.045 369.346 348.87 369.044 348.949 368.75L350.237 363.96Z" fill="#0A7650"/>
<path d="M375.675 371.123C375.754 370.829 376.057 370.655 376.352 370.733C376.647 370.812 376.822 371.114 376.743 371.408L375.455 376.198C375.376 376.492 375.073 376.667 374.778 376.588C374.483 376.509 374.308 376.207 374.387 375.913L375.675 371.123Z" fill="#0A7650"/>
<path d="M384.523 345.775C384.602 345.482 384.905 345.307 385.2 345.386C385.495 345.465 385.671 345.767 385.591 346.061L384.303 350.851C384.224 351.145 383.921 351.319 383.626 351.241C383.331 351.162 383.156 350.86 383.235 350.566L384.523 345.775Z" fill="#0A7650"/>
<path d="M331.988 349.633C332.067 349.339 332.37 349.164 332.665 349.243C332.96 349.322 333.135 349.624 333.056 349.918L331.768 354.708C331.689 355.002 331.386 355.177 331.091 355.098C330.796 355.019 330.621 354.717 330.7 354.423L331.988 349.633Z" fill="#0A7650"/>
<path d="M391.159 367.266C391.238 366.972 391.541 366.797 391.837 366.876C392.132 366.955 392.307 367.257 392.228 367.551L390.939 372.341C390.86 372.635 390.557 372.81 390.262 372.731C389.967 372.652 389.792 372.35 389.871 372.056L391.159 367.266Z" fill="#0A7650"/>
<path d="M395.534 357.292C395.382 357.029 395.472 356.692 395.737 356.539C396.001 356.387 396.34 356.478 396.492 356.741L398.981 361.036C399.134 361.299 399.043 361.636 398.778 361.789C398.514 361.941 398.176 361.851 398.023 361.587L395.534 357.292Z" fill="#0A7650"/>
<path d="M392.769 341.863C392.617 341.6 392.707 341.263 392.972 341.11C393.236 340.958 393.575 341.049 393.727 341.312L396.216 345.607C396.368 345.871 396.278 346.208 396.013 346.36C395.749 346.512 395.411 346.422 395.258 346.158L392.769 341.863Z" fill="#0A7650"/>
<path d="M362.907 322.026C362.755 321.763 362.845 321.426 363.11 321.273C363.374 321.121 363.712 321.211 363.865 321.475L366.354 325.77C366.506 326.033 366.416 326.37 366.151 326.523C365.887 326.675 365.548 326.585 365.396 326.321L362.907 322.026Z" fill="#0A7650"/>
<path d="M362.907 322.026C362.755 321.763 362.845 321.426 363.11 321.273C363.374 321.121 363.712 321.211 363.865 321.475L366.354 325.77C366.506 326.033 366.416 326.37 366.151 326.523C365.887 326.675 365.548 326.585 365.396 326.321L362.907 322.026Z" fill="#0A7650"/>
<path d="M370.096 351.782C369.944 351.518 370.034 351.181 370.299 351.029C370.563 350.877 370.901 350.967 371.054 351.231L373.543 355.526C373.695 355.789 373.605 356.126 373.34 356.278C373.076 356.431 372.738 356.34 372.585 356.077L370.096 351.782Z" fill="#0A7650"/>
<path d="M347.423 382.089C347.27 381.825 347.361 381.488 347.626 381.336C347.89 381.184 348.228 381.274 348.381 381.537L350.869 385.832C351.022 386.096 350.932 386.433 350.667 386.585C350.403 386.737 350.064 386.647 349.912 386.383L347.423 382.089Z" fill="#0A7650"/>
<path d="M338.338 366.572C338.554 366.357 338.904 366.357 339.12 366.572C339.336 366.787 339.336 367.136 339.12 367.351L335.601 370.858C335.385 371.073 335.035 371.073 334.819 370.858C334.603 370.643 334.603 370.294 334.819 370.079L338.338 366.572Z" fill="#0A7650"/>
<path d="M384.237 358.858C384.453 358.642 384.803 358.642 385.019 358.858C385.235 359.073 385.235 359.422 385.019 359.637L381.5 363.144C381.284 363.359 380.934 363.359 380.718 363.144C380.502 362.928 380.502 362.58 380.718 362.364L384.237 358.858Z" fill="#0A7650"/>
<path d="M57.9644 15.1505C51.1014 10.1298 41.3575 14.3947 40.4253 22.8274L39.9451 27.171L32.8742 24.5876C24.8806 21.6672 16.7117 28.4644 18.1703 36.8227L23.7708 68.9164C25.2294 77.2747 35.2214 80.9253 41.7565 75.4875L52.8484 66.2581L82.2191 53.4025C90.0143 49.9906 91.1795 39.4498 84.3165 34.429L57.9644 15.1505Z" fill="#0A7650"/>
<path d="M99 62.0904C99 83.8497 81.2974 101.489 59.4602 101.489C37.623 101.489 19.9205 83.8497 19.9205 62.0904C19.9205 40.3311 37.623 22.6917 59.4602 22.6917C81.2974 22.6917 99 40.3311 99 62.0904Z" fill="#82C9A0"/>
<path d="M66.3728 134H51.9947L54.3553 62.3659H63.3684L66.3728 134Z" fill="#263843"/>
<path d="M54.8166 34.1256C55.7744 32.4725 58.169 32.4725 59.1268 34.1256C60.0847 35.7787 58.8874 37.845 56.9717 37.845C55.0561 37.845 53.8588 35.7787 54.8166 34.1256Z" fill="#82C9A0"/>
<path d="M77.8273 37.0886C77.6094 36.8752 77.6064 36.5264 77.8205 36.3093C78.0345 36.0922 78.3847 36.0892 78.6025 36.3025L82.1524 39.7785C82.3702 39.9918 82.3733 40.3407 82.1592 40.5578C81.9451 40.7748 81.595 40.7779 81.3772 40.5646L77.8273 37.0886Z" fill="#0A7650"/>
<path d="M51.2831 47.0071C51.0653 46.7938 51.0622 46.4449 51.2763 46.2279C51.4904 46.0108 51.8405 46.0078 52.0583 46.2211L55.6082 49.6971C55.826 49.9104 55.8291 50.2593 55.615 50.4763C55.401 50.6934 55.0508 50.6964 54.833 50.4831L51.2831 47.0071Z" fill="#0A7650"/>
<path d="M32.481 41.4968C32.2631 41.2835 32.2601 40.9346 32.4742 40.7176C32.6882 40.5005 33.0384 40.4975 33.2562 40.7108L36.8061 44.1868C37.0239 44.4001 37.027 44.7489 36.8129 44.966C36.5988 45.1831 36.2487 45.1861 36.0309 44.9728L32.481 41.4968Z" fill="#0A7650"/>
<path d="M44.845 54.4901C45.0609 54.2749 45.4111 54.2749 45.627 54.4901C45.843 54.7053 45.843 55.0542 45.627 55.2694L42.1077 58.7761C41.8918 58.9913 41.5416 58.9913 41.3257 58.7761C41.1097 58.5609 41.1097 58.212 41.3257 57.9968L44.845 54.4901Z" fill="#0A7650"/>
<path d="M76.9192 87.0009C77.1351 86.7857 77.4853 86.7857 77.7012 87.0009C77.9172 87.2161 77.9172 87.565 77.7012 87.7802L74.1819 91.2869C73.966 91.5021 73.6158 91.5021 73.3999 91.2869C73.1839 91.0718 73.1839 90.7229 73.3999 90.5077L76.9192 87.0009Z" fill="#0A7650"/>
<path d="M44.2919 30.2447C44.5079 30.0295 44.8581 30.0295 45.074 30.2447C45.29 30.4599 45.29 30.8088 45.074 31.024L41.5547 34.5307C41.3388 34.7459 40.9886 34.7459 40.7727 34.5307C40.5567 34.3155 40.5567 33.9666 40.7727 33.7514L44.2919 30.2447Z" fill="#0A7650"/>
<path d="M67.8041 38.6528C67.8831 38.3588 68.1864 38.1844 68.4814 38.2632C68.7764 38.3419 68.9515 38.6441 68.8724 38.938L67.5842 43.7283C67.5052 44.0223 67.202 44.1967 66.907 44.118C66.612 44.0392 66.4369 43.737 66.5159 43.4431L67.8041 38.6528Z" fill="#0A7650"/>
<path d="M46.2369 68.9595C46.316 68.6656 46.6192 68.4911 46.9142 68.5699C47.2092 68.6486 47.3843 68.9508 47.3053 69.2448L46.0171 74.0351C45.9381 74.329 45.6348 74.5035 45.3398 74.4247C45.0448 74.3459 44.8697 74.0438 44.9488 73.7498L46.2369 68.9595Z" fill="#0A7650"/>
<path d="M71.6751 76.1229C71.7542 75.829 72.0574 75.6545 72.3524 75.7333C72.6474 75.8121 72.8225 76.1142 72.7434 76.4082L71.4553 81.1985C71.3762 81.4924 71.073 81.6669 70.778 81.5881C70.483 81.5093 70.3079 81.2072 70.387 80.9132L71.6751 76.1229Z" fill="#0A7650"/>
<path d="M80.5232 50.7755C80.6022 50.4815 80.9054 50.3071 81.2005 50.3858C81.4955 50.4646 81.6705 50.7668 81.5915 51.0607L80.3033 55.851C80.2243 56.145 79.9211 56.3194 79.626 56.2407C79.331 56.1619 79.156 55.8597 79.235 55.5658L80.5232 50.7755Z" fill="#0A7650"/>
<path d="M27.9878 54.6327C28.0669 54.3387 28.3701 54.1643 28.6651 54.2431C28.9601 54.3218 29.1352 54.624 29.0561 54.9179L27.768 59.7082C27.6889 60.0022 27.3857 60.1766 27.0907 60.0979C26.7957 60.0191 26.6206 59.717 26.6997 59.423L27.9878 54.6327Z" fill="#0A7650"/>
<path d="M87.1592 72.2657C87.2383 71.9718 87.5415 71.7973 87.8365 71.8761C88.1315 71.9548 88.3066 72.257 88.2275 72.5509L86.9394 77.3412C86.8603 77.6352 86.5571 77.8096 86.2621 77.7309C85.9671 77.6521 85.792 77.35 85.8711 77.056L87.1592 72.2657Z" fill="#0A7650"/>
<path d="M91.5344 62.2921C91.3817 62.0285 91.4724 61.6915 91.7369 61.5394C92.0014 61.3872 92.3396 61.4775 92.4923 61.7411L94.9808 66.0359C95.1335 66.2995 95.0429 66.6365 94.7784 66.7887C94.5139 66.9408 94.1757 66.8505 94.023 66.587L91.5344 62.2921Z" fill="#0A7650"/>
<path d="M88.7694 46.8632C88.6167 46.5997 88.7073 46.2627 88.9718 46.1105C89.2363 45.9583 89.5746 46.0486 89.7273 46.3122L92.2158 50.6071C92.3685 50.8706 92.2779 51.2076 92.0134 51.3598C91.7489 51.5119 91.4107 51.4216 91.2579 51.1581L88.7694 46.8632Z" fill="#0A7650"/>
<path d="M58.9072 27.0261C58.7545 26.7625 58.8452 26.4255 59.1096 26.2734C59.3741 26.1212 59.7124 26.2115 59.8651 26.4751L62.3536 30.7699C62.5063 31.0335 62.4157 31.3705 62.1512 31.5226C61.8867 31.6748 61.5485 31.5845 61.3958 31.321L58.9072 27.0261Z" fill="#0A7650"/>
<path d="M58.9072 27.0261C58.7545 26.7625 58.8452 26.4255 59.1096 26.2734C59.3741 26.1212 59.7124 26.2115 59.8651 26.4751L62.3536 30.7699C62.5063 31.0335 62.4157 31.3705 62.1512 31.5226C61.8867 31.6748 61.5485 31.5845 61.3958 31.321L58.9072 27.0261Z" fill="#0A7650"/>
<path d="M66.0963 56.7818C65.9436 56.5182 66.0342 56.1812 66.2987 56.0291C66.5632 55.8769 66.9014 55.9672 67.0541 56.2308L69.5426 60.5256C69.6953 60.7892 69.6047 61.1262 69.3402 61.2783C69.0757 61.4305 68.7375 61.3402 68.5848 61.0766L66.0963 56.7818Z" fill="#0A7650"/>
<path d="M43.4231 87.0885C43.2704 86.825 43.361 86.4879 43.6255 86.3358C43.89 86.1836 44.2283 86.2739 44.381 86.5375L46.8695 90.8323C47.0222 91.0959 46.9316 91.4329 46.6671 91.5851C46.4026 91.7372 46.0644 91.6469 45.9116 91.3834L43.4231 87.0885Z" fill="#0A7650"/>
<path d="M34.3379 71.5721C34.5538 71.3569 34.904 71.3569 35.1199 71.5721C35.3359 71.7873 35.3359 72.1361 35.1199 72.3513L31.6007 75.8581C31.3847 76.0733 31.0346 76.0733 30.8186 75.8581C30.6026 75.6429 30.6026 75.294 30.8186 75.0788L34.3379 71.5721Z" fill="#0A7650"/>
<path d="M80.2372 63.8576C80.4531 63.6424 80.8033 63.6424 81.0193 63.8576C81.2352 64.0728 81.2352 64.4217 81.0193 64.6369L77.5 68.1436C77.284 68.3588 76.9339 68.3588 76.7179 68.1436C76.5019 67.9284 76.5019 67.5796 76.7179 67.3644L80.2372 63.8576Z" fill="#0A7650"/>
<path fill-rule="evenodd" clip-rule="evenodd" d="M90.9903 326.561C90.5096 317.334 82.8755 310 73.5286 310C63.9335 310 56.1434 317.728 56.0438 327.3C54.0186 326.48 51.8049 326.029 49.4857 326.029C39.8286 326.029 32 333.857 32 343.514C32 353.171 39.8286 361 49.4857 361C54.804 361 59.5678 358.626 62.7749 354.879C67.9195 358.626 75.5614 361 84.0929 361C99.5844 361 112.143 353.171 112.143 343.514C112.143 335.341 103.147 328.477 90.9903 326.561Z" fill="#0A7650"/>
<path fill-rule="evenodd" clip-rule="evenodd" d="M316.484 166.365C316.154 160.033 310.915 155 304.5 155C297.915 155 292.569 160.304 292.501 166.873C291.111 166.31 289.592 166 288 166C281.373 166 276 171.373 276 178C276 184.627 281.373 190 288 190C291.65 190 294.919 188.371 297.12 185.799C300.651 188.371 305.895 190 311.75 190C322.381 190 331 184.627 331 178C331 172.391 324.826 167.68 316.484 166.365Z" fill="#0A7650"/>
<path fill-rule="evenodd" clip-rule="evenodd" d="M63.4835 170.365C63.1536 164.033 57.9146 159 51.5 159C44.9151 159 39.569 164.304 39.5007 170.873C38.1108 170.31 36.5916 170 35 170C28.3726 170 23 175.373 23 182C23 188.627 28.3726 194 35 194C38.6498 194 41.9191 192.371 44.12 189.799C47.6506 192.371 52.895 194 58.75 194C69.3815 194 78 188.627 78 182C78 176.391 71.8262 171.68 63.4835 170.365Z" fill="#0A7650"/>
<path fill-rule="evenodd" clip-rule="evenodd" d="M388.484 256.365C388.154 250.033 382.915 245 376.5 245C369.915 245 364.569 250.304 364.501 256.873C363.111 256.31 361.592 256 360 256C353.373 256 348 261.373 348 268C348 274.627 353.373 280 360 280C363.65 280 366.919 278.371 369.12 275.799C372.651 278.371 377.895 280 383.75 280C394.381 280 403 274.627 403 268C403 262.391 396.826 257.68 388.484 256.365Z" fill="#0A7650"/>
</svg>
