<svg width="429" height="429" viewBox="0 0 429 429" fill="none" xmlns="http://www.w3.org/2000/svg">
<rect y="3.05176e-05" width="429" height="429" fill="#49A772"/>
<rect y="184" width="245" height="61" fill="#CDE3E4"/>
<rect x="184" y="429" width="245" height="61" transform="rotate(-90 184 429)" fill="#CDE3E4"/>
<rect y="3.05176e-05" width="429" height="429" fill="#49A772"/>
<rect y="184" width="245" height="61" fill="#99775E"/>
<rect x="212.135" y="134.901" width="178" height="47" transform="rotate(45 212.135 134.901)" fill="#263843"/>
<rect x="337.999" y="168.135" width="178" height="47" transform="rotate(135 337.999 168.135)" fill="#263843"/>
<path d="M381.267 84.7607C381.268 84.6844 381.268 84.6079 381.268 84.5314C381.268 72.64 371.62 63 359.718 63C347.817 63 338.169 72.64 338.169 84.5314C338.169 95.1291 345.832 103.939 355.923 105.73C358.105 113.149 364.969 118.565 373.1 118.565C382.986 118.565 391 110.558 391 100.68C391 93.7419 387.046 87.7265 381.267 84.7607Z" fill="#0A7650"/>
<path d="M353.872 73.4184C356.548 68.788 363.237 68.788 365.912 73.4184L389.842 114.832C392.518 119.462 389.174 125.25 383.822 125.25H359.892H335.962C330.611 125.25 327.266 119.462 329.942 114.832L353.872 73.4184Z" fill="#82C9A0"/>
<path d="M364.237 146H355.2L356.683 100.854H362.348L364.237 146Z" fill="#263843"/>
<path d="M360.066 86.0942C360.066 87.5327 358.899 88.6988 357.459 88.6988C356.019 88.6988 354.852 87.5327 354.852 86.0942C354.852 84.6557 356.019 83.4896 357.459 83.4896C358.899 83.4896 360.066 84.6557 360.066 86.0942Z" fill="#0A7650"/>
<path d="M363.542 78.454C363.542 79.8925 362.374 81.0586 360.935 81.0586C359.495 81.0586 358.328 79.8925 358.328 78.454C358.328 77.0155 359.495 75.8494 360.935 75.8494C362.374 75.8494 363.542 77.0155 363.542 78.454Z" fill="#0A7650"/>
<path d="M369.798 88.1779C369.798 89.6163 368.631 90.7825 367.191 90.7825C365.751 90.7825 364.584 89.6163 364.584 88.1779C364.584 86.7394 365.751 85.5733 367.191 85.5733C368.631 85.5733 369.798 86.7394 369.798 88.1779Z" fill="#0A7650"/>
<path d="M352.767 90.4352C352.767 91.3942 351.989 92.1716 351.029 92.1716C350.069 92.1716 349.291 91.3942 349.291 90.4352C349.291 89.4762 350.069 88.6988 351.029 88.6988C351.989 88.6988 352.767 89.4762 352.767 90.4352Z" fill="#0A7650"/>
<path d="M357.285 94.6025C357.285 95.5615 356.507 96.3389 355.547 96.3389C354.588 96.3389 353.809 95.5615 353.809 94.6025C353.809 93.6436 354.588 92.8661 355.547 92.8661C356.507 92.8661 357.285 93.6436 357.285 94.6025Z" fill="#0A7650"/>
<path d="M365.279 95.6444C365.279 96.6034 364.501 97.3808 363.542 97.3808C362.582 97.3808 361.804 96.6034 361.804 95.6444C361.804 94.6854 362.582 93.908 363.542 93.908C364.501 93.908 365.279 94.6854 365.279 95.6444Z" fill="#0A7650"/>
<path d="M373.969 92.1716C373.969 93.1306 373.191 93.908 372.231 93.908C371.271 93.908 370.493 93.1306 370.493 92.1716C370.493 91.2126 371.271 90.4352 372.231 90.4352C373.191 90.4352 373.969 91.2126 373.969 92.1716Z" fill="#0A7650"/>
<path d="M348.596 94.6025C348.596 95.5615 347.818 96.3389 346.858 96.3389C345.898 96.3389 345.12 95.5615 345.12 94.6025C345.12 93.6436 345.898 92.8661 346.858 92.8661C347.818 92.8661 348.596 93.6436 348.596 94.6025Z" fill="#0A7650"/>
<path d="M352.767 99.8117C352.767 100.387 352.3 100.854 351.724 100.854C351.148 100.854 350.681 100.387 350.681 99.8117C350.681 99.2364 351.148 98.7699 351.724 98.7699C352.3 98.7699 352.767 99.2364 352.767 99.8117Z" fill="#0A7650"/>
<path d="M371.536 98.7699C371.536 99.3453 371.069 99.8117 370.493 99.8117C369.917 99.8117 369.45 99.3453 369.45 98.7699C369.45 98.1945 369.917 97.7281 370.493 97.7281C371.069 97.7281 371.536 98.1945 371.536 98.7699Z" fill="#0A7650"/>
<path d="M368.06 105.716C368.06 106.291 367.593 106.757 367.017 106.757C366.441 106.757 365.975 106.291 365.975 105.716C365.975 105.14 366.441 104.674 367.017 104.674C367.593 104.674 368.06 105.14 368.06 105.716Z" fill="#0A7650"/>
<path d="M343.73 100.854C343.73 101.429 343.263 101.895 342.687 101.895C342.111 101.895 341.644 101.429 341.644 100.854C341.644 100.278 342.111 99.8117 342.687 99.8117C343.263 99.8117 343.73 100.278 343.73 100.854Z" fill="#0A7650"/>
<path d="M377.792 101.895C377.792 102.471 377.325 102.937 376.749 102.937C376.174 102.937 375.707 102.471 375.707 101.895C375.707 101.32 376.174 100.854 376.749 100.854C377.325 100.854 377.792 101.32 377.792 101.895Z" fill="#0A7650"/>
<path d="M340.602 110.404C340.602 110.691 340.368 110.925 340.08 110.925C339.792 110.925 339.559 110.691 339.559 110.404C339.559 110.116 339.792 109.883 340.08 109.883C340.368 109.883 340.602 110.116 340.602 110.404Z" fill="#0A7650"/>
<path d="M352.767 111.098C352.767 111.386 352.533 111.619 352.245 111.619C351.957 111.619 351.724 111.386 351.724 111.098C351.724 110.811 351.957 110.577 352.245 110.577C352.533 110.577 352.767 110.811 352.767 111.098Z" fill="#0A7650"/>
<path d="M348.596 107.626C348.596 107.913 348.362 108.146 348.075 108.146C347.787 108.146 347.553 107.913 347.553 107.626C347.553 107.338 347.787 107.105 348.075 107.105C348.362 107.105 348.596 107.338 348.596 107.626Z" fill="#0A7650"/>
<path d="M372.926 107.973C372.926 108.261 372.693 108.494 372.405 108.494C372.117 108.494 371.883 108.261 371.883 107.973C371.883 107.685 372.117 107.452 372.405 107.452C372.693 107.452 372.926 107.685 372.926 107.973Z" fill="#0A7650"/>
<path d="M388.854 305.907C388.855 305.819 388.855 305.732 388.855 305.644C388.855 292.034 377.807 281 364.177 281C350.548 281 339.5 292.034 339.5 305.644C339.5 317.774 348.275 327.857 359.832 329.908C362.329 338.399 370.191 344.598 379.501 344.598C390.822 344.598 400 335.433 400 324.128C400 316.186 395.472 309.301 388.854 305.907Z" fill="#0A7650"/>
<path d="M357.482 292.925C360.546 287.625 368.206 287.625 371.27 292.925L398.674 340.325C401.738 345.625 397.908 352.25 391.78 352.25H364.376H336.972C330.844 352.25 327.014 345.625 330.078 340.325L357.482 292.925Z" fill="#82C9A0"/>
<path d="M369.352 376H359.003L360.702 324.326H367.189L369.352 376Z" fill="#263843"/>
<path d="M364.575 307.433C364.575 309.08 363.239 310.414 361.59 310.414C359.941 310.414 358.605 309.08 358.605 307.433C358.605 305.787 359.941 304.452 361.59 304.452C363.239 304.452 364.575 305.787 364.575 307.433Z" fill="#0A7650"/>
<path d="M368.556 298.688C368.556 300.335 367.219 301.669 365.57 301.669C363.922 301.669 362.585 300.335 362.585 298.688C362.585 297.042 363.922 295.707 365.57 295.707C367.219 295.707 368.556 297.042 368.556 298.688Z" fill="#0A7650"/>
<path d="M375.72 309.818C375.72 311.464 374.384 312.799 372.735 312.799C371.086 312.799 369.75 311.464 369.75 309.818C369.75 308.172 371.086 306.837 372.735 306.837C374.384 306.837 375.72 308.172 375.72 309.818Z" fill="#0A7650"/>
<path d="M356.217 312.402C356.217 313.499 355.326 314.389 354.227 314.389C353.128 314.389 352.236 313.499 352.236 312.402C352.236 311.304 353.128 310.414 354.227 310.414C355.326 310.414 356.217 311.304 356.217 312.402Z" fill="#0A7650"/>
<path d="M361.391 317.172C361.391 318.269 360.5 319.159 359.401 319.159C358.302 319.159 357.411 318.269 357.411 317.172C357.411 316.074 358.302 315.184 359.401 315.184C360.5 315.184 361.391 316.074 361.391 317.172Z" fill="#0A7650"/>
<path d="M370.546 318.364C370.546 319.462 369.655 320.351 368.556 320.351C367.457 320.351 366.566 319.462 366.566 318.364C366.566 317.266 367.457 316.377 368.556 316.377C369.655 316.377 370.546 317.266 370.546 318.364Z" fill="#0A7650"/>
<path d="M380.497 314.389C380.497 315.487 379.606 316.377 378.506 316.377C377.407 316.377 376.516 315.487 376.516 314.389C376.516 313.291 377.407 312.402 378.506 312.402C379.606 312.402 380.497 313.291 380.497 314.389Z" fill="#0A7650"/>
<path d="M351.44 317.172C351.44 318.269 350.549 319.159 349.45 319.159C348.351 319.159 347.46 318.269 347.46 317.172C347.46 316.074 348.351 315.184 349.45 315.184C350.549 315.184 351.44 316.074 351.44 317.172Z" fill="#0A7650"/>
<path d="M356.217 323.134C356.217 323.792 355.682 324.326 355.023 324.326C354.363 324.326 353.829 323.792 353.829 323.134C353.829 322.475 354.363 321.941 355.023 321.941C355.682 321.941 356.217 322.475 356.217 323.134Z" fill="#0A7650"/>
<path d="M377.71 321.941C377.71 322.6 377.176 323.134 376.516 323.134C375.857 323.134 375.322 322.6 375.322 321.941C375.322 321.283 375.857 320.749 376.516 320.749C377.176 320.749 377.71 321.283 377.71 321.941Z" fill="#0A7650"/>
<path d="M373.73 329.891C373.73 330.55 373.195 331.084 372.536 331.084C371.877 331.084 371.342 330.55 371.342 329.891C371.342 329.233 371.877 328.699 372.536 328.699C373.195 328.699 373.73 329.233 373.73 329.891Z" fill="#0A7650"/>
<path d="M345.868 324.326C345.868 324.985 345.333 325.519 344.674 325.519C344.014 325.519 343.48 324.985 343.48 324.326C343.48 323.668 344.014 323.134 344.674 323.134C345.333 323.134 345.868 323.668 345.868 324.326Z" fill="#0A7650"/>
<path d="M384.875 325.519C384.875 326.177 384.34 326.711 383.681 326.711C383.021 326.711 382.487 326.177 382.487 325.519C382.487 324.86 383.021 324.326 383.681 324.326C384.34 324.326 384.875 324.86 384.875 325.519Z" fill="#0A7650"/>
<path d="M342.286 335.257C342.286 335.587 342.018 335.854 341.689 335.854C341.359 335.854 341.092 335.587 341.092 335.257C341.092 334.928 341.359 334.661 341.689 334.661C342.018 334.661 342.286 334.928 342.286 335.257Z" fill="#0A7650"/>
<path d="M356.217 336.052C356.217 336.382 355.949 336.649 355.62 336.649C355.29 336.649 355.023 336.382 355.023 336.052C355.023 335.723 355.29 335.456 355.62 335.456C355.949 335.456 356.217 335.723 356.217 336.052Z" fill="#0A7650"/>
<path d="M351.44 332.077C351.44 332.407 351.173 332.674 350.843 332.674C350.514 332.674 350.246 332.407 350.246 332.077C350.246 331.748 350.514 331.481 350.843 331.481C351.173 331.481 351.44 331.748 351.44 332.077Z" fill="#0A7650"/>
<path d="M379.302 332.475C379.302 332.804 379.035 333.071 378.705 333.071C378.376 333.071 378.108 332.804 378.108 332.475C378.108 332.146 378.376 331.879 378.705 331.879C379.035 331.879 379.302 332.146 379.302 332.475Z" fill="#0A7650"/>
<path d="M108.871 94.7234C108.872 94.6121 108.873 94.5007 108.873 94.3892C108.873 77.0534 94.8675 63 77.591 63C60.3146 63 46.3093 77.0534 46.3093 94.3892C46.3093 109.839 57.433 122.682 72.0822 125.293C75.2486 136.108 85.2133 144.004 97.016 144.004C111.367 144.004 123 132.331 123 117.931C123 107.816 117.26 99.0471 108.871 94.7234Z" fill="#0A7650"/>
<path d="M69.1043 78.1883C72.9883 71.438 82.6983 71.438 86.5823 78.1883L121.32 138.562C125.204 145.312 120.349 153.75 112.581 153.75H77.8433H43.1059C35.338 153.75 30.483 145.312 34.367 138.562L69.1043 78.1883Z" fill="#82C9A0"/>
<path d="M84.1501 184H71.032L73.1857 118.184H81.409L84.1501 184Z" fill="#263843"/>
<path d="M78.0956 96.6674C78.0956 98.7645 76.4014 100.464 74.3115 100.464C72.2216 100.464 70.5274 98.7645 70.5274 96.6674C70.5274 94.5703 72.2216 92.8703 74.3115 92.8703C76.4014 92.8703 78.0956 94.5703 78.0956 96.6674Z" fill="#0A7650"/>
<path d="M83.141 85.5293C83.141 87.6264 81.4468 89.3264 79.3569 89.3264C77.267 89.3264 75.5728 87.6264 75.5728 85.5293C75.5728 83.4323 77.267 81.7322 79.3569 81.7322C81.4468 81.7322 83.141 83.4323 83.141 85.5293Z" fill="#0A7650"/>
<path d="M92.2228 99.7051C92.2228 101.802 90.5286 103.502 88.4387 103.502C86.3488 103.502 84.6546 101.802 84.6546 99.7051C84.6546 97.608 86.3488 95.908 88.4387 95.908C90.5286 95.908 92.2228 97.608 92.2228 99.7051Z" fill="#0A7650"/>
<path d="M67.5001 102.996C67.5001 104.394 66.3707 105.527 64.9774 105.527C63.5842 105.527 62.4547 104.394 62.4547 102.996C62.4547 101.598 63.5842 100.464 64.9774 100.464C66.3707 100.464 67.5001 101.598 67.5001 102.996Z" fill="#0A7650"/>
<path d="M74.0592 109.071C74.0592 110.469 72.9298 111.603 71.5365 111.603C70.1432 111.603 69.0138 110.469 69.0138 109.071C69.0138 107.673 70.1432 106.54 71.5365 106.54C72.9298 106.54 74.0592 107.673 74.0592 109.071Z" fill="#0A7650"/>
<path d="M85.6637 110.59C85.6637 111.988 84.5343 113.121 83.141 113.121C81.7478 113.121 80.6183 111.988 80.6183 110.59C80.6183 109.192 81.7478 108.059 83.141 108.059C84.5343 108.059 85.6637 109.192 85.6637 110.59Z" fill="#0A7650"/>
<path d="M98.2773 105.527C98.2773 106.925 97.1479 108.059 95.7546 108.059C94.3614 108.059 93.2319 106.925 93.2319 105.527C93.2319 104.129 94.3614 102.996 95.7546 102.996C97.1479 102.996 98.2773 104.129 98.2773 105.527Z" fill="#0A7650"/>
<path d="M61.4456 109.071C61.4456 110.469 60.3162 111.603 58.9229 111.603C57.5296 111.603 56.4002 110.469 56.4002 109.071C56.4002 107.673 57.5296 106.54 58.9229 106.54C60.3162 106.54 61.4456 107.673 61.4456 109.071Z" fill="#0A7650"/>
<path d="M67.5001 116.665C67.5001 117.504 66.8225 118.184 65.9865 118.184C65.1506 118.184 64.4729 117.504 64.4729 116.665C64.4729 115.826 65.1506 115.146 65.9865 115.146C66.8225 115.146 67.5001 115.826 67.5001 116.665Z" fill="#0A7650"/>
<path d="M94.7455 115.146C94.7455 115.985 94.0678 116.665 93.2319 116.665C92.3959 116.665 91.7183 115.985 91.7183 115.146C91.7183 114.308 92.3959 113.628 93.2319 113.628C94.0678 113.628 94.7455 114.308 94.7455 115.146Z" fill="#0A7650"/>
<path d="M89.7001 125.272C89.7001 126.111 89.0224 126.791 88.1865 126.791C87.3505 126.791 86.6728 126.111 86.6728 125.272C86.6728 124.433 87.3505 123.753 88.1865 123.753C89.0224 123.753 89.7001 124.433 89.7001 125.272Z" fill="#0A7650"/>
<path d="M54.382 118.184C54.382 119.023 53.7043 119.703 52.8684 119.703C52.0324 119.703 51.3547 119.023 51.3547 118.184C51.3547 117.345 52.0324 116.665 52.8684 116.665C53.7043 116.665 54.382 117.345 54.382 118.184Z" fill="#0A7650"/>
<path d="M103.827 119.703C103.827 120.542 103.15 121.222 102.314 121.222C101.478 121.222 100.8 120.542 100.8 119.703C100.8 118.864 101.478 118.184 102.314 118.184C103.15 118.184 103.827 118.864 103.827 119.703Z" fill="#0A7650"/>
<path d="M49.8411 132.107C49.8411 132.526 49.5023 132.866 49.0843 132.866C48.6663 132.866 48.3275 132.526 48.3275 132.107C48.3275 131.687 48.6663 131.347 49.0843 131.347C49.5023 131.347 49.8411 131.687 49.8411 132.107Z" fill="#0A7650"/>
<path d="M67.5001 133.119C67.5001 133.539 67.1613 133.879 66.7433 133.879C66.3254 133.879 65.9865 133.539 65.9865 133.119C65.9865 132.7 66.3254 132.36 66.7433 132.36C67.1613 132.36 67.5001 132.7 67.5001 133.119Z" fill="#0A7650"/>
<path d="M61.4456 128.057C61.4456 128.476 61.1068 128.816 60.6888 128.816C60.2708 128.816 59.932 128.476 59.932 128.057C59.932 127.637 60.2708 127.297 60.6888 127.297C61.1068 127.297 61.4456 127.637 61.4456 128.057Z" fill="#0A7650"/>
<path d="M96.7637 128.563C96.7637 128.982 96.4249 129.322 96.0069 129.322C95.5889 129.322 95.2501 128.982 95.2501 128.563C95.2501 128.143 95.5889 127.803 96.0069 127.803C96.4249 127.803 96.7637 128.143 96.7637 128.563Z" fill="#0A7650"/>
<path d="M152.55 307.795C146.789 303.604 138.609 307.164 137.826 314.203L137.423 317.829L131.487 315.672C124.776 313.235 117.918 318.908 119.143 325.885L123.845 352.674C125.069 359.651 133.458 362.698 138.944 358.159L148.255 350.455L172.912 339.724C179.456 336.876 180.435 328.078 174.673 323.887L152.55 307.795Z" fill="#0A7650"/>
<path d="M187 346.976C187 365.139 172.139 379.863 153.806 379.863C135.474 379.863 120.612 365.139 120.612 346.976C120.612 328.814 135.474 314.09 153.806 314.09C172.139 314.09 187 328.814 187 346.976Z" fill="#82C9A0"/>
<path d="M159.609 407H147.539L149.52 347.206H157.087L159.609 407Z" fill="#263843"/>
<path d="M149.908 323.634C150.712 322.254 152.722 322.254 153.526 323.634C154.33 325.014 153.325 326.738 151.717 326.738C150.109 326.738 149.104 325.014 149.908 323.634Z" fill="#82C9A0"/>
<path d="M169.225 326.107C169.043 325.929 169.04 325.638 169.22 325.457C169.399 325.275 169.693 325.273 169.876 325.451L172.856 328.352C173.039 328.53 173.042 328.822 172.862 329.003C172.682 329.184 172.388 329.186 172.206 329.008L169.225 326.107Z" fill="#0A7650"/>
<path d="M146.941 334.386C146.759 334.208 146.756 333.917 146.936 333.736C147.115 333.554 147.409 333.552 147.592 333.73L150.572 336.631C150.755 336.809 150.758 337.101 150.578 337.282C150.398 337.463 150.104 337.466 149.922 337.288L146.941 334.386Z" fill="#0A7650"/>
<path d="M131.157 329.787C130.974 329.609 130.971 329.317 131.151 329.136C131.331 328.955 131.625 328.952 131.808 329.13L134.788 332.032C134.971 332.21 134.973 332.501 134.794 332.682C134.614 332.864 134.32 332.866 134.137 332.688L131.157 329.787Z" fill="#0A7650"/>
<path d="M141.537 340.632C141.718 340.453 142.012 340.453 142.193 340.632C142.374 340.812 142.374 341.103 142.193 341.283L139.239 344.21C139.057 344.389 138.763 344.389 138.582 344.21C138.401 344.03 138.401 343.739 138.582 343.559L141.537 340.632Z" fill="#0A7650"/>
<path d="M168.463 367.769C168.644 367.59 168.938 367.59 169.12 367.769C169.301 367.949 169.301 368.24 169.12 368.42L166.165 371.347C165.984 371.527 165.69 371.527 165.509 371.347C165.327 371.167 165.327 370.876 165.509 370.696L168.463 367.769Z" fill="#0A7650"/>
<path d="M141.072 320.394C141.254 320.215 141.548 320.215 141.729 320.394C141.91 320.574 141.91 320.865 141.729 321.045L138.774 323.972C138.593 324.152 138.299 324.152 138.118 323.972C137.936 323.792 137.936 323.501 138.118 323.321L141.072 320.394Z" fill="#0A7650"/>
<path d="M160.811 327.413C160.877 327.167 161.132 327.022 161.379 327.087C161.627 327.153 161.774 327.405 161.708 327.651L160.626 331.649C160.56 331.895 160.305 332.04 160.058 331.974C159.81 331.909 159.663 331.657 159.729 331.411L160.811 327.413Z" fill="#0A7650"/>
<path d="M142.705 352.71C142.771 352.465 143.026 352.319 143.274 352.385C143.521 352.451 143.668 352.703 143.602 352.948L142.521 356.947C142.454 357.192 142.2 357.338 141.952 357.272C141.704 357.206 141.557 356.954 141.624 356.709L142.705 352.71Z" fill="#0A7650"/>
<path d="M164.061 358.689C164.127 358.444 164.382 358.298 164.629 358.364C164.877 358.43 165.024 358.682 164.957 358.927L163.876 362.926C163.81 363.171 163.555 363.317 163.307 363.251C163.06 363.185 162.913 362.933 162.979 362.688L164.061 358.689Z" fill="#0A7650"/>
<path d="M171.489 337.532C171.555 337.286 171.81 337.141 172.057 337.206C172.305 337.272 172.452 337.524 172.385 337.77L171.304 341.768C171.238 342.014 170.983 342.159 170.735 342.093C170.488 342.028 170.341 341.775 170.407 341.53L171.489 337.532Z" fill="#0A7650"/>
<path d="M127.385 340.751C127.451 340.506 127.706 340.36 127.953 340.426C128.201 340.492 128.348 340.744 128.282 340.989L127.2 344.988C127.134 345.233 126.879 345.379 126.632 345.313C126.384 345.247 126.237 344.995 126.303 344.75L127.385 340.751Z" fill="#0A7650"/>
<path d="M177.06 355.47C177.126 355.224 177.381 355.079 177.628 355.144C177.876 355.21 178.023 355.462 177.956 355.708L176.875 359.706C176.809 359.952 176.554 360.097 176.306 360.032C176.059 359.966 175.912 359.714 175.978 359.468L177.06 355.47Z" fill="#0A7650"/>
<path d="M180.733 347.145C180.604 346.925 180.681 346.643 180.903 346.516C181.125 346.389 181.409 346.465 181.537 346.685L183.626 350.27C183.754 350.49 183.678 350.771 183.456 350.898C183.234 351.025 182.95 350.95 182.822 350.73L180.733 347.145Z" fill="#0A7650"/>
<path d="M178.411 334.266C178.283 334.046 178.359 333.765 178.581 333.638C178.803 333.511 179.087 333.586 179.215 333.806L181.305 337.391C181.433 337.611 181.357 337.892 181.135 338.019C180.913 338.146 180.629 338.071 180.5 337.851L178.411 334.266Z" fill="#0A7650"/>
<path d="M153.342 317.708C153.214 317.488 153.29 317.206 153.512 317.079C153.734 316.952 154.018 317.028 154.146 317.248L156.235 320.833C156.363 321.053 156.287 321.334 156.065 321.461C155.843 321.588 155.559 321.513 155.431 321.293L153.342 317.708Z" fill="#0A7650"/>
<path d="M153.342 317.708C153.214 317.488 153.29 317.206 153.512 317.079C153.734 316.952 154.018 317.028 154.146 317.248L156.235 320.833C156.363 321.053 156.287 321.334 156.065 321.461C155.843 321.588 155.559 321.513 155.431 321.293L153.342 317.708Z" fill="#0A7650"/>
<path d="M159.377 342.545C159.249 342.325 159.325 342.044 159.547 341.917C159.769 341.79 160.053 341.865 160.181 342.085L162.27 345.67C162.399 345.89 162.322 346.171 162.1 346.298C161.878 346.425 161.594 346.35 161.466 346.13L159.377 342.545Z" fill="#0A7650"/>
<path d="M140.343 367.842C140.215 367.622 140.291 367.341 140.513 367.214C140.735 367.087 141.019 367.163 141.147 367.383L143.236 370.967C143.364 371.187 143.288 371.469 143.066 371.596C142.844 371.723 142.56 371.647 142.432 371.427L140.343 367.842Z" fill="#0A7650"/>
<path d="M132.716 354.891C132.897 354.711 133.191 354.711 133.372 354.891C133.554 355.07 133.554 355.362 133.372 355.541L130.418 358.468C130.237 358.648 129.943 358.648 129.761 358.468C129.58 358.289 129.58 357.997 129.761 357.818L132.716 354.891Z" fill="#0A7650"/>
<path d="M171.249 348.451C171.43 348.272 171.724 348.272 171.905 348.451C172.086 348.631 172.086 348.922 171.905 349.102L168.951 352.029C168.769 352.209 168.475 352.209 168.294 352.029C168.113 351.849 168.113 351.558 168.294 351.379L171.249 348.451Z" fill="#0A7650"/>
<path d="M259.964 16.1505C253.101 11.1298 243.357 15.3947 242.425 23.8274L241.945 28.171L234.874 25.5877C226.881 22.6672 218.712 29.4644 220.17 37.8227L225.771 69.9164C227.229 78.2747 237.221 81.9253 243.757 76.4875L254.848 67.2581L284.219 54.4026C292.014 50.9906 293.179 40.4498 286.317 35.429L259.964 16.1505Z" fill="#0A7650"/>
<path d="M301 63.0904C301 84.8498 283.297 102.489 261.46 102.489C239.623 102.489 221.92 84.8498 221.92 63.0904C221.92 41.3311 239.623 23.6917 261.46 23.6917C283.297 23.6917 301 41.3311 301 63.0904Z" fill="#82C9A0"/>
<path d="M268.373 135H253.995L256.355 63.3659H265.368L268.373 135Z" fill="#263843"/>
<path d="M256.817 35.1256C257.774 33.4725 260.169 33.4725 261.127 35.1256C262.085 36.7787 260.887 38.8451 258.972 38.8451C257.056 38.8451 255.859 36.7787 256.817 35.1256Z" fill="#82C9A0"/>
<path d="M279.827 38.0886C279.609 37.8753 279.606 37.5264 279.82 37.3093C280.035 37.0923 280.385 37.0892 280.602 37.3025L284.152 40.7785C284.37 40.9918 284.373 41.3407 284.159 41.5578C283.945 41.7748 283.595 41.7779 283.377 41.5646L279.827 38.0886Z" fill="#0A7650"/>
<path d="M253.283 48.0072C253.065 47.7938 253.062 47.445 253.276 47.2279C253.49 47.0108 253.84 47.0078 254.058 47.2211L257.608 50.6971C257.826 50.9104 257.829 51.2593 257.615 51.4763C257.401 51.6934 257.051 51.6965 256.833 51.4832L253.283 48.0072Z" fill="#0A7650"/>
<path d="M234.481 42.4968C234.263 42.2835 234.26 41.9346 234.474 41.7176C234.688 41.5005 235.038 41.4975 235.256 41.7108L238.806 45.1868C239.024 45.4001 239.027 45.749 238.813 45.966C238.599 46.1831 238.249 46.1861 238.031 45.9728L234.481 42.4968Z" fill="#0A7650"/>
<path d="M246.845 55.4901C247.061 55.2749 247.411 55.2749 247.627 55.4901C247.843 55.7053 247.843 56.0542 247.627 56.2694L244.108 59.7761C243.892 59.9913 243.542 59.9913 243.326 59.7761C243.11 59.5609 243.11 59.2121 243.326 58.9969L246.845 55.4901Z" fill="#0A7650"/>
<path d="M278.919 88.001C279.135 87.7858 279.485 87.7858 279.701 88.001C279.917 88.2162 279.917 88.5651 279.701 88.7802L276.182 92.287C275.966 92.5022 275.616 92.5022 275.4 92.287C275.184 92.0718 275.184 91.7229 275.4 91.5077L278.919 88.001Z" fill="#0A7650"/>
<path d="M246.292 31.2447C246.508 31.0295 246.858 31.0295 247.074 31.2447C247.29 31.4599 247.29 31.8088 247.074 32.024L243.555 35.5308C243.339 35.7459 242.989 35.7459 242.773 35.5308C242.557 35.3156 242.557 34.9667 242.773 34.7515L246.292 31.2447Z" fill="#0A7650"/>
<path d="M269.804 39.6528C269.883 39.3589 270.186 39.1844 270.481 39.2632C270.776 39.342 270.951 39.6441 270.872 39.9381L269.584 44.7284C269.505 45.0223 269.202 45.1968 268.907 45.118C268.612 45.0392 268.437 44.7371 268.516 44.4431L269.804 39.6528Z" fill="#0A7650"/>
<path d="M248.237 69.9596C248.316 69.6656 248.619 69.4911 248.914 69.5699C249.209 69.6487 249.384 69.9508 249.305 70.2448L248.017 75.0351C247.938 75.329 247.635 75.5035 247.34 75.4247C247.045 75.346 246.87 75.0438 246.949 74.7498L248.237 69.9596Z" fill="#0A7650"/>
<path d="M273.675 77.123C273.754 76.829 274.057 76.6546 274.352 76.7333C274.647 76.8121 274.822 77.1142 274.743 77.4082L273.455 82.1985C273.376 82.4924 273.073 82.6669 272.778 82.5881C272.483 82.5094 272.308 82.2072 272.387 81.9133L273.675 77.123Z" fill="#0A7650"/>
<path d="M282.523 51.7755C282.602 51.4816 282.905 51.3071 283.2 51.3859C283.495 51.4646 283.671 51.7668 283.591 52.0608L282.303 56.851C282.224 57.145 281.921 57.3195 281.626 57.2407C281.331 57.1619 281.156 56.8598 281.235 56.5658L282.523 51.7755Z" fill="#0A7650"/>
<path d="M229.988 55.6327C230.067 55.3388 230.37 55.1643 230.665 55.2431C230.96 55.3219 231.135 55.624 231.056 55.918L229.768 60.7083C229.689 61.0022 229.386 61.1767 229.091 61.0979C228.796 61.0191 228.621 60.717 228.7 60.423L229.988 55.6327Z" fill="#0A7650"/>
<path d="M289.159 73.2657C289.238 72.9718 289.541 72.7973 289.836 72.8761C290.132 72.9549 290.307 73.257 290.228 73.551L288.939 78.3413C288.86 78.6352 288.557 78.8097 288.262 78.7309C287.967 78.6521 287.792 78.35 287.871 78.056L289.159 73.2657Z" fill="#0A7650"/>
<path d="M293.534 63.2921C293.382 63.0286 293.472 62.6916 293.737 62.5394C294.001 62.3872 294.34 62.4775 294.492 62.7411L296.981 67.036C297.134 67.2995 297.043 67.6365 296.778 67.7887C296.514 67.9408 296.176 67.8505 296.023 67.587L293.534 63.2921Z" fill="#0A7650"/>
<path d="M290.769 47.8632C290.617 47.5997 290.707 47.2627 290.972 47.1105C291.236 46.9584 291.575 47.0487 291.727 47.3122L294.216 51.6071C294.368 51.8706 294.278 52.2076 294.013 52.3598C293.749 52.512 293.411 52.4217 293.258 52.1581L290.769 47.8632Z" fill="#0A7650"/>
<path d="M260.907 28.0261C260.755 27.7626 260.845 27.4256 261.11 27.2734C261.374 27.1212 261.712 27.2115 261.865 27.4751L264.354 31.77C264.506 32.0335 264.416 32.3705 264.151 32.5227C263.887 32.6748 263.548 32.5845 263.396 32.321L260.907 28.0261Z" fill="#0A7650"/>
<path d="M260.907 28.0261C260.755 27.7626 260.845 27.4256 261.11 27.2734C261.374 27.1212 261.712 27.2115 261.865 27.4751L264.354 31.77C264.506 32.0335 264.416 32.3705 264.151 32.5227C263.887 32.6748 263.548 32.5845 263.396 32.321L260.907 28.0261Z" fill="#0A7650"/>
<path d="M268.096 57.7818C267.944 57.5183 268.034 57.1813 268.299 57.0291C268.563 56.8769 268.901 56.9672 269.054 57.2308L271.543 61.5256C271.695 61.7892 271.605 62.1262 271.34 62.2784C271.076 62.4305 270.738 62.3402 270.585 62.0767L268.096 57.7818Z" fill="#0A7650"/>
<path d="M245.423 88.0885C245.27 87.825 245.361 87.488 245.626 87.3358C245.89 87.1836 246.228 87.2739 246.381 87.5375L248.869 91.8324C249.022 92.0959 248.932 92.4329 248.667 92.5851C248.403 92.7373 248.064 92.647 247.912 92.3834L245.423 88.0885Z" fill="#0A7650"/>
<path d="M236.338 72.5721C236.554 72.3569 236.904 72.3569 237.12 72.5721C237.336 72.7873 237.336 73.1362 237.12 73.3514L233.601 76.8581C233.385 77.0733 233.035 77.0733 232.819 76.8581C232.603 76.6429 232.603 76.294 232.819 76.0788L236.338 72.5721Z" fill="#0A7650"/>
<path d="M282.237 64.8577C282.453 64.6425 282.803 64.6425 283.019 64.8577C283.235 65.0728 283.235 65.4217 283.019 65.6369L279.5 69.1437C279.284 69.3589 278.934 69.3589 278.718 69.1437C278.502 68.9285 278.502 68.5796 278.718 68.3644L282.237 64.8577Z" fill="#0A7650"/>
<path fill-rule="evenodd" clip-rule="evenodd" d="M276.58 356.639C276.184 349.04 269.897 343 262.2 343C254.298 343 247.883 349.365 247.801 357.247C246.133 356.572 244.31 356.2 242.4 356.2C234.447 356.2 228 362.647 228 370.6C228 378.553 234.447 385 242.4 385C246.78 385 250.703 383.045 253.344 379.959C257.581 383.045 263.874 385 270.9 385C283.658 385 294 378.553 294 370.6C294 363.869 286.591 358.216 276.58 356.639Z" fill="#0A7650"/>
<path fill-rule="evenodd" clip-rule="evenodd" d="M79.5802 294.639C79.1843 287.04 72.8975 281 65.2 281C57.2981 281 50.8828 287.365 50.8008 295.247C49.133 294.572 47.3099 294.2 45.4 294.2C37.4471 294.2 31 300.647 31 308.6C31 316.553 37.4471 323 45.4 323C49.7798 323 53.7029 321.045 56.344 317.959C60.5807 321.045 66.8741 323 73.9 323C86.6578 323 97 316.553 97 308.6C97 301.869 89.5915 296.216 79.5802 294.639Z" fill="#0A7650"/>
</svg>
