<svg width="429" height="429" viewBox="0 0 429 429" fill="none" xmlns="http://www.w3.org/2000/svg">
<rect y="429" width="429" height="429" transform="rotate(-90 0 429)" fill="#49A772"/>
<rect x="184" y="429" width="245" height="61" transform="rotate(-90 184 429)" fill="#99775E"/>
<rect x="429" y="245" width="245" height="61" transform="rotate(180 429 245)" fill="#99775E"/>
<circle cx="213.5" cy="214.5" r="62.5" fill="#263843"/>
<path d="M274.854 54.9068C274.855 54.8194 274.855 54.7319 274.855 54.6444C274.855 41.0337 263.807 30 250.177 30C236.548 30 225.5 41.0337 225.5 54.6444C225.5 66.7743 234.275 76.8574 245.832 78.9078C248.329 87.3989 256.191 93.5983 265.501 93.5983C276.822 93.5983 286 84.4333 286 73.1276C286 65.1865 281.472 58.3014 274.854 54.9068Z" fill="#0A7650"/>
<path d="M243.482 41.9247C246.546 36.6248 254.206 36.6248 257.27 41.9247L284.674 89.3253C287.738 94.6252 283.908 101.25 277.78 101.25H250.376H222.972C216.844 101.25 213.014 94.6252 216.078 89.3253L243.482 41.9247Z" fill="#82C9A0"/>
<path d="M255.352 125H245.003L246.702 73.3264H253.189L255.352 125Z" fill="#263843"/>
<path d="M250.575 56.4331C250.575 58.0795 249.239 59.4142 247.59 59.4142C245.941 59.4142 244.605 58.0795 244.605 56.4331C244.605 54.7866 245.941 53.4519 247.59 53.4519C249.239 53.4519 250.575 54.7866 250.575 56.4331Z" fill="#0A7650"/>
<path d="M254.556 47.6883C254.556 49.3347 253.219 50.6695 251.57 50.6695C249.922 50.6695 248.585 49.3347 248.585 47.6883C248.585 46.0418 249.922 44.7071 251.57 44.7071C253.219 44.7071 254.556 46.0418 254.556 47.6883Z" fill="#0A7650"/>
<path d="M261.72 58.818C261.72 60.4644 260.384 61.7992 258.735 61.7992C257.086 61.7992 255.75 60.4644 255.75 58.818C255.75 57.1715 257.086 55.8368 258.735 55.8368C260.384 55.8368 261.72 57.1715 261.72 58.818Z" fill="#0A7650"/>
<path d="M242.217 61.4017C242.217 62.4993 241.326 63.3891 240.227 63.3891C239.128 63.3891 238.236 62.4993 238.236 61.4017C238.236 60.304 239.128 59.4142 240.227 59.4142C241.326 59.4142 242.217 60.304 242.217 61.4017Z" fill="#0A7650"/>
<path d="M247.391 66.1715C247.391 67.2692 246.5 68.159 245.401 68.159C244.302 68.159 243.411 67.2692 243.411 66.1715C243.411 65.0739 244.302 64.1841 245.401 64.1841C246.5 64.1841 247.391 65.0739 247.391 66.1715Z" fill="#0A7650"/>
<path d="M256.546 67.364C256.546 68.4617 255.655 69.3515 254.556 69.3515C253.457 69.3515 252.566 68.4617 252.566 67.364C252.566 66.2664 253.457 65.3766 254.556 65.3766C255.655 65.3766 256.546 66.2664 256.546 67.364Z" fill="#0A7650"/>
<path d="M266.497 63.3891C266.497 64.4868 265.606 65.3766 264.506 65.3766C263.407 65.3766 262.516 64.4868 262.516 63.3891C262.516 62.2915 263.407 61.4017 264.506 61.4017C265.606 61.4017 266.497 62.2915 266.497 63.3891Z" fill="#0A7650"/>
<path d="M237.44 66.1715C237.44 67.2692 236.549 68.159 235.45 68.159C234.351 68.159 233.46 67.2692 233.46 66.1715C233.46 65.0739 234.351 64.1841 235.45 64.1841C236.549 64.1841 237.44 65.0739 237.44 66.1715Z" fill="#0A7650"/>
<path d="M242.217 72.1339C242.217 72.7925 241.682 73.3264 241.023 73.3264C240.363 73.3264 239.829 72.7925 239.829 72.1339C239.829 71.4753 240.363 70.9414 241.023 70.9414C241.682 70.9414 242.217 71.4753 242.217 72.1339Z" fill="#0A7650"/>
<path d="M263.71 70.9414C263.71 71.6 263.176 72.1339 262.516 72.1339C261.857 72.1339 261.322 71.6 261.322 70.9414C261.322 70.2828 261.857 69.749 262.516 69.749C263.176 69.749 263.71 70.2828 263.71 70.9414Z" fill="#0A7650"/>
<path d="M259.73 78.8912C259.73 79.5498 259.195 80.0837 258.536 80.0837C257.877 80.0837 257.342 79.5498 257.342 78.8912C257.342 78.2326 257.877 77.6987 258.536 77.6987C259.195 77.6987 259.73 78.2326 259.73 78.8912Z" fill="#0A7650"/>
<path d="M231.868 73.3264C231.868 73.9849 231.333 74.5188 230.674 74.5188C230.014 74.5188 229.48 73.9849 229.48 73.3264C229.48 72.6678 230.014 72.1339 230.674 72.1339C231.333 72.1339 231.868 72.6678 231.868 73.3264Z" fill="#0A7650"/>
<path d="M270.875 74.5188C270.875 75.1774 270.34 75.7113 269.681 75.7113C269.021 75.7113 268.487 75.1774 268.487 74.5188C268.487 73.8602 269.021 73.3264 269.681 73.3264C270.34 73.3264 270.875 73.8602 270.875 74.5188Z" fill="#0A7650"/>
<path d="M228.286 84.2573C228.286 84.5866 228.018 84.8536 227.689 84.8536C227.359 84.8536 227.092 84.5866 227.092 84.2573C227.092 83.928 227.359 83.6611 227.689 83.6611C228.018 83.6611 228.286 83.928 228.286 84.2573Z" fill="#0A7650"/>
<path d="M242.217 85.0523C242.217 85.3816 241.949 85.6485 241.62 85.6485C241.29 85.6485 241.023 85.3816 241.023 85.0523C241.023 84.723 241.29 84.4561 241.62 84.4561C241.949 84.4561 242.217 84.723 242.217 85.0523Z" fill="#0A7650"/>
<path d="M237.44 81.0774C237.44 81.4067 237.173 81.6736 236.843 81.6736C236.514 81.6736 236.246 81.4067 236.246 81.0774C236.246 80.7481 236.514 80.4812 236.843 80.4812C237.173 80.4812 237.44 80.7481 237.44 81.0774Z" fill="#0A7650"/>
<path d="M265.302 81.4749C265.302 81.8042 265.035 82.0711 264.705 82.0711C264.376 82.0711 264.108 81.8042 264.108 81.4749C264.108 81.1456 264.376 80.8787 264.705 80.8787C265.035 80.8787 265.302 81.1456 265.302 81.4749Z" fill="#0A7650"/>
<path d="M378.871 93.7234C378.872 93.6121 378.873 93.5007 378.873 93.3891C378.873 76.0534 364.867 62 347.591 62C330.315 62 316.309 76.0534 316.309 93.3891C316.309 108.839 327.433 121.682 342.082 124.293C345.249 135.108 355.213 143.004 367.016 143.004C381.367 143.004 393 131.331 393 116.931C393 106.816 387.26 98.0471 378.871 93.7234Z" fill="#0A7650"/>
<path d="M339.104 77.1883C342.988 70.4379 352.698 70.4379 356.582 77.1883L391.32 137.562C395.204 144.312 390.349 152.75 382.581 152.75H347.843H313.106C305.338 152.75 300.483 144.312 304.367 137.562L339.104 77.1883Z" fill="#82C9A0"/>
<path d="M354.15 183H341.032L343.186 117.184H351.409L354.15 183Z" fill="#263843"/>
<path d="M348.096 95.6674C348.096 97.7644 346.401 99.4644 344.312 99.4644C342.222 99.4644 340.527 97.7644 340.527 95.6674C340.527 93.5703 342.222 91.8703 344.312 91.8703C346.401 91.8703 348.096 93.5703 348.096 95.6674Z" fill="#0A7650"/>
<path d="M353.141 84.5293C353.141 86.6264 351.447 88.3264 349.357 88.3264C347.267 88.3264 345.573 86.6264 345.573 84.5293C345.573 82.4322 347.267 80.7322 349.357 80.7322C351.447 80.7322 353.141 82.4322 353.141 84.5293Z" fill="#0A7650"/>
<path d="M362.223 98.705C362.223 100.802 360.529 102.502 358.439 102.502C356.349 102.502 354.655 100.802 354.655 98.705C354.655 96.608 356.349 94.908 358.439 94.908C360.529 94.908 362.223 96.608 362.223 98.705Z" fill="#0A7650"/>
<path d="M337.5 101.996C337.5 103.394 336.371 104.527 334.977 104.527C333.584 104.527 332.455 103.394 332.455 101.996C332.455 100.598 333.584 99.4644 334.977 99.4644C336.371 99.4644 337.5 100.598 337.5 101.996Z" fill="#0A7650"/>
<path d="M344.059 108.071C344.059 109.469 342.93 110.603 341.537 110.603C340.143 110.603 339.014 109.469 339.014 108.071C339.014 106.673 340.143 105.54 341.537 105.54C342.93 105.54 344.059 106.673 344.059 108.071Z" fill="#0A7650"/>
<path d="M355.664 109.59C355.664 110.988 354.534 112.121 353.141 112.121C351.748 112.121 350.618 110.988 350.618 109.59C350.618 108.192 351.748 107.059 353.141 107.059C354.534 107.059 355.664 108.192 355.664 109.59Z" fill="#0A7650"/>
<path d="M368.277 104.527C368.277 105.925 367.148 107.059 365.755 107.059C364.361 107.059 363.232 105.925 363.232 104.527C363.232 103.129 364.361 101.996 365.755 101.996C367.148 101.996 368.277 103.129 368.277 104.527Z" fill="#0A7650"/>
<path d="M331.446 108.071C331.446 109.469 330.316 110.603 328.923 110.603C327.53 110.603 326.4 109.469 326.4 108.071C326.4 106.673 327.53 105.54 328.923 105.54C330.316 105.54 331.446 106.673 331.446 108.071Z" fill="#0A7650"/>
<path d="M337.5 115.665C337.5 116.504 336.822 117.184 335.987 117.184C335.151 117.184 334.473 116.504 334.473 115.665C334.473 114.826 335.151 114.146 335.987 114.146C336.822 114.146 337.5 114.826 337.5 115.665Z" fill="#0A7650"/>
<path d="M364.746 114.146C364.746 114.985 364.068 115.665 363.232 115.665C362.396 115.665 361.718 114.985 361.718 114.146C361.718 113.308 362.396 112.628 363.232 112.628C364.068 112.628 364.746 113.308 364.746 114.146Z" fill="#0A7650"/>
<path d="M359.7 124.272C359.7 125.111 359.022 125.791 358.186 125.791C357.351 125.791 356.673 125.111 356.673 124.272C356.673 123.433 357.351 122.753 358.186 122.753C359.022 122.753 359.7 123.433 359.7 124.272Z" fill="#0A7650"/>
<path d="M324.382 117.184C324.382 118.023 323.704 118.703 322.868 118.703C322.032 118.703 321.355 118.023 321.355 117.184C321.355 116.345 322.032 115.665 322.868 115.665C323.704 115.665 324.382 116.345 324.382 117.184Z" fill="#0A7650"/>
<path d="M373.827 118.703C373.827 119.542 373.15 120.222 372.314 120.222C371.478 120.222 370.8 119.542 370.8 118.703C370.8 117.864 371.478 117.184 372.314 117.184C373.15 117.184 373.827 117.864 373.827 118.703Z" fill="#0A7650"/>
<path d="M319.841 131.107C319.841 131.526 319.502 131.866 319.084 131.866C318.666 131.866 318.328 131.526 318.328 131.107C318.328 130.687 318.666 130.347 319.084 130.347C319.502 130.347 319.841 130.687 319.841 131.107Z" fill="#0A7650"/>
<path d="M337.5 132.119C337.5 132.539 337.161 132.879 336.743 132.879C336.325 132.879 335.987 132.539 335.987 132.119C335.987 131.7 336.325 131.36 336.743 131.36C337.161 131.36 337.5 131.7 337.5 132.119Z" fill="#0A7650"/>
<path d="M331.446 127.056C331.446 127.476 331.107 127.816 330.689 127.816C330.271 127.816 329.932 127.476 329.932 127.056C329.932 126.637 330.271 126.297 330.689 126.297C331.107 126.297 331.446 126.637 331.446 127.056Z" fill="#0A7650"/>
<path d="M366.764 127.563C366.764 127.982 366.425 128.322 366.007 128.322C365.589 128.322 365.25 127.982 365.25 127.563C365.25 127.143 365.589 126.803 366.007 126.803C366.425 126.803 366.764 127.143 366.764 127.563Z" fill="#0A7650"/>
<path d="M90.7396 58.0569C80.9958 50.92 67.1619 56.9825 65.8384 68.9695L65.1567 75.1439L55.1177 71.4717C43.7687 67.3203 32.1709 76.9824 34.2417 88.8636L42.1931 134.484C44.2639 146.366 58.4502 151.555 67.7284 143.825L83.4761 130.706L125.175 112.432C136.242 107.582 137.897 92.598 128.153 85.4611L90.7396 58.0569Z" fill="#0A7650"/>
<path d="M149 124.781C149 155.712 123.867 180.786 92.8633 180.786C61.8599 180.786 36.7266 155.712 36.7266 124.781C36.7266 93.8508 61.8599 68.7766 92.8633 68.7766C123.867 68.7766 149 93.8508 149 124.781Z" fill="#82C9A0"/>
<path d="M102.677 227H82.2641L85.6155 125.173H98.4119L102.677 227Z" fill="#263843"/>
<path d="M86.2705 85.0297C87.6304 82.6799 91.0301 82.6799 92.39 85.0297C93.7498 87.3796 92.05 90.3169 89.3302 90.3169C86.6105 90.3169 84.9106 87.3796 86.2705 85.0297Z" fill="#82C9A0"/>
<path d="M118.94 89.2416C118.631 88.9384 118.626 88.4424 118.93 88.1339C119.234 87.8253 119.731 87.821 120.041 88.1242L125.081 93.0653C125.39 93.3685 125.394 93.8645 125.09 94.173C124.786 94.4816 124.289 94.4859 123.98 94.1827L118.94 89.2416Z" fill="#0A7650"/>
<path d="M81.2538 103.341C80.9445 103.037 80.9402 102.542 81.2441 102.233C81.548 101.924 82.0451 101.92 82.3544 102.223L87.3944 107.164C87.7036 107.468 87.708 107.964 87.404 108.272C87.1001 108.581 86.603 108.585 86.2937 108.282L81.2538 103.341Z" fill="#0A7650"/>
<path d="M54.5594 95.5079C54.2501 95.2046 54.2458 94.7087 54.5497 94.4002C54.8537 94.0916 55.3508 94.0873 55.66 94.3905L60.7 99.3316C61.0093 99.6348 61.0136 100.131 60.7097 100.439C60.4057 100.748 59.9087 100.752 59.5994 100.449L54.5594 95.5079Z" fill="#0A7650"/>
<path d="M72.1132 113.978C72.4198 113.672 72.9169 113.672 73.2235 113.978C73.5302 114.284 73.5302 114.779 73.2235 115.085L68.227 120.07C67.9204 120.376 67.4233 120.376 67.1167 120.07C66.8101 119.764 66.8101 119.268 67.1167 118.962L72.1132 113.978Z" fill="#0A7650"/>
<path d="M117.651 160.191C117.957 159.886 118.454 159.886 118.761 160.191C119.068 160.497 119.068 160.993 118.761 161.299L113.764 166.284C113.458 166.59 112.961 166.59 112.654 166.284C112.348 165.978 112.348 165.482 112.654 165.176L117.651 160.191Z" fill="#0A7650"/>
<path d="M71.3281 79.5131C71.6347 79.2072 72.1318 79.2072 72.4384 79.5131C72.745 79.819 72.745 80.315 72.4384 80.6209L67.4419 85.6057C67.1353 85.9115 66.6382 85.9115 66.3315 85.6057C66.0249 85.2998 66.0249 84.8038 66.3315 84.4979L71.3281 79.5131Z" fill="#0A7650"/>
<path d="M104.709 91.4651C104.822 91.0473 105.252 90.7993 105.671 90.9113C106.09 91.0232 106.338 91.4527 106.226 91.8706L104.397 98.6799C104.285 99.0978 103.855 99.3458 103.436 99.2338C103.017 99.1218 102.768 98.6923 102.881 98.2745L104.709 91.4651Z" fill="#0A7650"/>
<path d="M74.0895 134.546C74.2017 134.128 74.6322 133.88 75.0511 133.992C75.4699 134.104 75.7185 134.533 75.6062 134.951L73.7774 141.761C73.6652 142.178 73.2346 142.426 72.8158 142.314C72.397 142.202 72.1484 141.773 72.2606 141.355L74.0895 134.546Z" fill="#0A7650"/>
<path d="M110.205 144.728C110.318 144.311 110.748 144.063 111.167 144.175C111.586 144.287 111.834 144.716 111.722 145.134L109.893 151.943C109.781 152.361 109.351 152.609 108.932 152.497C108.513 152.385 108.264 151.956 108.377 151.538L110.205 144.728Z" fill="#0A7650"/>
<path d="M122.767 108.697C122.88 108.28 123.31 108.032 123.729 108.144C124.148 108.255 124.396 108.685 124.284 109.103L122.455 115.912C122.343 116.33 121.913 116.578 121.494 116.466C121.075 116.354 120.826 115.925 120.939 115.507L122.767 108.697Z" fill="#0A7650"/>
<path d="M48.1802 114.18C48.2925 113.763 48.723 113.515 49.1418 113.627C49.5607 113.738 49.8092 114.168 49.697 114.586L47.8681 121.395C47.7559 121.813 47.3254 122.061 46.9065 121.949C46.4877 121.837 46.2391 121.408 46.3514 120.99L48.1802 114.18Z" fill="#0A7650"/>
<path d="M132.189 139.245C132.301 138.828 132.732 138.58 133.151 138.692C133.569 138.804 133.818 139.233 133.706 139.651L131.877 146.46C131.765 146.878 131.334 147.126 130.915 147.014C130.496 146.902 130.248 146.473 130.36 146.055L132.189 139.245Z" fill="#0A7650"/>
<path d="M138.401 125.068C138.184 124.693 138.313 124.214 138.688 123.998C139.064 123.782 139.544 123.91 139.761 124.285L143.294 130.39C143.511 130.765 143.382 131.244 143.006 131.46C142.631 131.676 142.151 131.548 141.934 131.173L138.401 125.068Z" fill="#0A7650"/>
<path d="M134.475 103.136C134.258 102.762 134.387 102.282 134.762 102.066C135.138 101.85 135.618 101.978 135.835 102.353L139.368 108.458C139.585 108.833 139.456 109.312 139.081 109.528C138.705 109.744 138.225 109.616 138.008 109.241L134.475 103.136Z" fill="#0A7650"/>
<path d="M92.0782 74.9379C91.8614 74.5633 91.99 74.0842 92.3656 73.8679C92.7411 73.6516 93.2212 73.78 93.4381 74.1546L96.9711 80.2597C97.1879 80.6344 97.0593 81.1134 96.6838 81.3297C96.3082 81.546 95.8281 81.4176 95.6113 81.043L92.0782 74.9379Z" fill="#0A7650"/>
<path d="M92.0782 74.9379C91.8614 74.5633 91.99 74.0842 92.3656 73.8679C92.7411 73.6516 93.2212 73.78 93.4381 74.1546L96.9711 80.2597C97.1879 80.6344 97.0593 81.1134 96.6838 81.3297C96.3082 81.546 95.8281 81.4176 95.6113 81.043L92.0782 74.9379Z" fill="#0A7650"/>
<path d="M102.285 117.235C102.068 116.861 102.197 116.382 102.572 116.165C102.948 115.949 103.428 116.077 103.645 116.452L107.178 122.557C107.395 122.932 107.266 123.411 106.89 123.627C106.515 123.843 106.035 123.715 105.818 123.34L102.285 117.235Z" fill="#0A7650"/>
<path d="M70.0946 160.316C69.8778 159.941 70.0064 159.462 70.3819 159.246C70.7575 159.03 71.2376 159.158 71.4545 159.533L74.9875 165.638C75.2043 166.012 75.0757 166.491 74.7002 166.708C74.3246 166.924 73.8445 166.796 73.6276 166.421L70.0946 160.316Z" fill="#0A7650"/>
<path d="M57.1958 138.259C57.5024 137.954 57.9995 137.954 58.3061 138.259C58.6127 138.565 58.6127 139.061 58.3061 139.367L53.3096 144.352C53.003 144.658 52.5058 144.658 52.1992 144.352C51.8926 144.046 51.8926 143.55 52.1992 143.244L57.1958 138.259Z" fill="#0A7650"/>
<path d="M122.361 127.293C122.668 126.988 123.165 126.988 123.472 127.293C123.778 127.599 123.778 128.095 123.472 128.401L118.475 133.386C118.169 133.692 117.672 133.692 117.365 133.386C117.058 133.08 117.058 132.584 117.365 132.278L122.361 127.293Z" fill="#0A7650"/>
<path d="M315.964 310.151C309.101 305.13 299.357 309.395 298.425 317.827L297.945 322.171L290.874 319.588C282.881 316.667 274.712 323.464 276.17 331.823L281.771 363.916C283.229 372.275 293.221 375.925 299.757 370.487L310.848 361.258L340.219 348.403C348.014 344.991 349.179 334.45 342.317 329.429L315.964 310.151Z" fill="#0A7650"/>
<path d="M357 357.09C357 378.85 339.297 396.489 317.46 396.489C295.623 396.489 277.92 378.85 277.92 357.09C277.92 335.331 295.623 317.692 317.46 317.692C339.297 317.692 357 335.331 357 357.09Z" fill="#82C9A0"/>
<path d="M324.373 429H309.995L312.355 357.366H321.368L324.373 429Z" fill="#263843"/>
<path d="M312.817 329.126C313.774 327.472 316.169 327.472 317.127 329.126C318.085 330.779 316.887 332.845 314.972 332.845C313.056 332.845 311.859 330.779 312.817 329.126Z" fill="#82C9A0"/>
<path d="M335.827 332.089C335.609 331.875 335.606 331.526 335.82 331.309C336.035 331.092 336.385 331.089 336.602 331.303L340.152 334.779C340.37 334.992 340.373 335.341 340.159 335.558C339.945 335.775 339.595 335.778 339.377 335.565L335.827 332.089Z" fill="#0A7650"/>
<path d="M309.283 342.007C309.065 341.794 309.062 341.445 309.276 341.228C309.49 341.011 309.84 341.008 310.058 341.221L313.608 344.697C313.826 344.91 313.829 345.259 313.615 345.476C313.401 345.693 313.051 345.696 312.833 345.483L309.283 342.007Z" fill="#0A7650"/>
<path d="M290.481 336.497C290.263 336.284 290.26 335.935 290.474 335.718C290.688 335.5 291.038 335.497 291.256 335.711L294.806 339.187C295.024 339.4 295.027 339.749 294.813 339.966C294.599 340.183 294.249 340.186 294.031 339.973L290.481 336.497Z" fill="#0A7650"/>
<path d="M302.845 349.49C303.061 349.275 303.411 349.275 303.627 349.49C303.843 349.705 303.843 350.054 303.627 350.269L300.108 353.776C299.892 353.991 299.542 353.991 299.326 353.776C299.11 353.561 299.11 353.212 299.326 352.997L302.845 349.49Z" fill="#0A7650"/>
<path d="M334.919 382.001C335.135 381.786 335.485 381.786 335.701 382.001C335.917 382.216 335.917 382.565 335.701 382.78L332.182 386.287C331.966 386.502 331.616 386.502 331.4 386.287C331.184 386.072 331.184 385.723 331.4 385.508L334.919 382.001Z" fill="#0A7650"/>
<path d="M302.292 325.245C302.508 325.03 302.858 325.03 303.074 325.245C303.29 325.46 303.29 325.809 303.074 326.024L299.555 329.531C299.339 329.746 298.989 329.746 298.773 329.531C298.557 329.316 298.557 328.967 298.773 328.751L302.292 325.245Z" fill="#0A7650"/>
<path d="M325.804 333.653C325.883 333.359 326.186 333.184 326.481 333.263C326.776 333.342 326.951 333.644 326.872 333.938L325.584 338.728C325.505 339.022 325.202 339.197 324.907 339.118C324.612 339.039 324.437 338.737 324.516 338.443L325.804 333.653Z" fill="#0A7650"/>
<path d="M304.237 363.96C304.316 363.666 304.619 363.491 304.914 363.57C305.209 363.649 305.384 363.951 305.305 364.245L304.017 369.035C303.938 369.329 303.635 369.503 303.34 369.425C303.045 369.346 302.87 369.044 302.949 368.75L304.237 363.96Z" fill="#0A7650"/>
<path d="M329.675 371.123C329.754 370.829 330.057 370.655 330.352 370.733C330.647 370.812 330.822 371.114 330.743 371.408L329.455 376.198C329.376 376.492 329.073 376.667 328.778 376.588C328.483 376.509 328.308 376.207 328.387 375.913L329.675 371.123Z" fill="#0A7650"/>
<path d="M338.523 345.775C338.602 345.482 338.905 345.307 339.2 345.386C339.495 345.465 339.671 345.767 339.591 346.061L338.303 350.851C338.224 351.145 337.921 351.319 337.626 351.241C337.331 351.162 337.156 350.86 337.235 350.566L338.523 345.775Z" fill="#0A7650"/>
<path d="M285.988 349.633C286.067 349.339 286.37 349.164 286.665 349.243C286.96 349.322 287.135 349.624 287.056 349.918L285.768 354.708C285.689 355.002 285.386 355.177 285.091 355.098C284.796 355.019 284.621 354.717 284.7 354.423L285.988 349.633Z" fill="#0A7650"/>
<path d="M345.159 367.266C345.238 366.972 345.541 366.797 345.836 366.876C346.132 366.955 346.307 367.257 346.228 367.551L344.939 372.341C344.86 372.635 344.557 372.81 344.262 372.731C343.967 372.652 343.792 372.35 343.871 372.056L345.159 367.266Z" fill="#0A7650"/>
<path d="M349.534 357.292C349.382 357.029 349.472 356.692 349.737 356.539C350.001 356.387 350.34 356.478 350.492 356.741L352.981 361.036C353.134 361.299 353.043 361.636 352.778 361.789C352.514 361.941 352.176 361.851 352.023 361.587L349.534 357.292Z" fill="#0A7650"/>
<path d="M346.769 341.863C346.617 341.6 346.707 341.263 346.972 341.11C347.236 340.958 347.575 341.049 347.727 341.312L350.216 345.607C350.368 345.871 350.278 346.208 350.013 346.36C349.749 346.512 349.411 346.422 349.258 346.158L346.769 341.863Z" fill="#0A7650"/>
<path d="M316.907 322.026C316.755 321.763 316.845 321.426 317.11 321.273C317.374 321.121 317.712 321.211 317.865 321.475L320.354 325.77C320.506 326.033 320.416 326.37 320.151 326.523C319.887 326.675 319.548 326.585 319.396 326.321L316.907 322.026Z" fill="#0A7650"/>
<path d="M316.907 322.026C316.755 321.763 316.845 321.426 317.11 321.273C317.374 321.121 317.712 321.211 317.865 321.475L320.354 325.77C320.506 326.033 320.416 326.37 320.151 326.523C319.887 326.675 319.548 326.585 319.396 326.321L316.907 322.026Z" fill="#0A7650"/>
<path d="M324.096 351.782C323.944 351.518 324.034 351.181 324.299 351.029C324.563 350.877 324.901 350.967 325.054 351.231L327.543 355.526C327.695 355.789 327.605 356.126 327.34 356.278C327.076 356.431 326.738 356.34 326.585 356.077L324.096 351.782Z" fill="#0A7650"/>
<path d="M301.423 382.089C301.27 381.825 301.361 381.488 301.626 381.336C301.89 381.184 302.228 381.274 302.381 381.537L304.869 385.832C305.022 386.096 304.932 386.433 304.667 386.585C304.403 386.737 304.064 386.647 303.912 386.383L301.423 382.089Z" fill="#0A7650"/>
<path d="M292.338 366.572C292.554 366.357 292.904 366.357 293.12 366.572C293.336 366.787 293.336 367.136 293.12 367.351L289.601 370.858C289.385 371.073 289.035 371.073 288.819 370.858C288.603 370.643 288.603 370.294 288.819 370.079L292.338 366.572Z" fill="#0A7650"/>
<path d="M338.237 358.858C338.453 358.642 338.803 358.642 339.019 358.858C339.235 359.073 339.235 359.422 339.019 359.637L335.5 363.144C335.284 363.359 334.934 363.359 334.718 363.144C334.502 362.928 334.502 362.58 334.718 362.364L338.237 358.858Z" fill="#0A7650"/>
<path fill-rule="evenodd" clip-rule="evenodd" d="M123.967 340.731C123.307 328.066 112.829 318 100 318C86.8302 318 76.138 328.608 76.0013 341.745C73.2217 340.62 70.1832 340 67 340C53.7452 340 43 350.745 43 364C43 377.255 53.7452 388 67 388C74.2997 388 80.8382 384.741 85.24 379.599C92.3012 384.741 102.79 388 114.5 388C135.763 388 153 377.255 153 364C153 352.782 140.652 343.361 123.967 340.731Z" fill="#0A7650"/>
</svg>
