<svg width="429" height="429" viewBox="0 0 429 429" fill="none" xmlns="http://www.w3.org/2000/svg">
<rect x="429" y="429" width="429" height="429" transform="rotate(180 429 429)" fill="#49A772"/>
<rect x="429" y="245" width="245" height="61" transform="rotate(180 429 245)" fill="#99775E"/>
<rect x="245" width="245" height="61" transform="rotate(90 245 0)" fill="#99775E"/>
<path d="M381.871 94.7234C381.872 94.6121 381.873 94.5007 381.873 94.3891C381.873 77.0534 367.867 63 350.591 63C333.315 63 319.309 77.0534 319.309 94.3891C319.309 109.839 330.433 122.682 345.082 125.293C348.249 136.108 358.213 144.004 370.016 144.004C384.367 144.004 396 132.331 396 117.931C396 107.816 390.26 99.0471 381.871 94.7234Z" fill="#0A7650"/>
<path d="M342.104 78.1883C345.988 71.4379 355.698 71.4379 359.582 78.1883L394.32 138.562C398.204 145.312 393.349 153.75 385.581 153.75H350.843H316.106C308.338 153.75 303.483 145.312 307.367 138.562L342.104 78.1883Z" fill="#82C9A0"/>
<path d="M357.15 184H344.032L346.186 118.184H354.409L357.15 184Z" fill="#263843"/>
<path d="M351.096 96.6674C351.096 98.7644 349.401 100.464 347.311 100.464C345.222 100.464 343.527 98.7644 343.527 96.6674C343.527 94.5703 345.222 92.8703 347.311 92.8703C349.401 92.8703 351.096 94.5703 351.096 96.6674Z" fill="#0A7650"/>
<path d="M356.141 85.5293C356.141 87.6264 354.447 89.3264 352.357 89.3264C350.267 89.3264 348.573 87.6264 348.573 85.5293C348.573 83.4322 350.267 81.7322 352.357 81.7322C354.447 81.7322 356.141 83.4322 356.141 85.5293Z" fill="#0A7650"/>
<path d="M365.223 99.705C365.223 101.802 363.529 103.502 361.439 103.502C359.349 103.502 357.655 101.802 357.655 99.705C357.655 97.608 359.349 95.908 361.439 95.908C363.529 95.908 365.223 97.608 365.223 99.705Z" fill="#0A7650"/>
<path d="M340.5 102.996C340.5 104.394 339.371 105.527 337.977 105.527C336.584 105.527 335.455 104.394 335.455 102.996C335.455 101.598 336.584 100.464 337.977 100.464C339.371 100.464 340.5 101.598 340.5 102.996Z" fill="#0A7650"/>
<path d="M347.059 109.071C347.059 110.469 345.93 111.603 344.536 111.603C343.143 111.603 342.014 110.469 342.014 109.071C342.014 107.673 343.143 106.54 344.536 106.54C345.93 106.54 347.059 107.673 347.059 109.071Z" fill="#0A7650"/>
<path d="M358.664 110.59C358.664 111.988 357.534 113.121 356.141 113.121C354.748 113.121 353.618 111.988 353.618 110.59C353.618 109.192 354.748 108.059 356.141 108.059C357.534 108.059 358.664 109.192 358.664 110.59Z" fill="#0A7650"/>
<path d="M371.277 105.527C371.277 106.925 370.148 108.059 368.755 108.059C367.361 108.059 366.232 106.925 366.232 105.527C366.232 104.129 367.361 102.996 368.755 102.996C370.148 102.996 371.277 104.129 371.277 105.527Z" fill="#0A7650"/>
<path d="M334.446 109.071C334.446 110.469 333.316 111.603 331.923 111.603C330.53 111.603 329.4 110.469 329.4 109.071C329.4 107.673 330.53 106.54 331.923 106.54C333.316 106.54 334.446 107.673 334.446 109.071Z" fill="#0A7650"/>
<path d="M340.5 116.665C340.5 117.504 339.822 118.184 338.987 118.184C338.151 118.184 337.473 117.504 337.473 116.665C337.473 115.826 338.151 115.146 338.987 115.146C339.822 115.146 340.5 115.826 340.5 116.665Z" fill="#0A7650"/>
<path d="M367.746 115.146C367.746 115.985 367.068 116.665 366.232 116.665C365.396 116.665 364.718 115.985 364.718 115.146C364.718 114.308 365.396 113.628 366.232 113.628C367.068 113.628 367.746 114.308 367.746 115.146Z" fill="#0A7650"/>
<path d="M362.7 125.272C362.7 126.111 362.022 126.791 361.186 126.791C360.35 126.791 359.673 126.111 359.673 125.272C359.673 124.433 360.35 123.753 361.186 123.753C362.022 123.753 362.7 124.433 362.7 125.272Z" fill="#0A7650"/>
<path d="M327.382 118.184C327.382 119.023 326.704 119.703 325.868 119.703C325.032 119.703 324.355 119.023 324.355 118.184C324.355 117.345 325.032 116.665 325.868 116.665C326.704 116.665 327.382 117.345 327.382 118.184Z" fill="#0A7650"/>
<path d="M376.827 119.703C376.827 120.542 376.15 121.222 375.314 121.222C374.478 121.222 373.8 120.542 373.8 119.703C373.8 118.864 374.478 118.184 375.314 118.184C376.15 118.184 376.827 118.864 376.827 119.703Z" fill="#0A7650"/>
<path d="M322.841 132.107C322.841 132.526 322.502 132.866 322.084 132.866C321.666 132.866 321.327 132.526 321.327 132.107C321.327 131.687 321.666 131.347 322.084 131.347C322.502 131.347 322.841 131.687 322.841 132.107Z" fill="#0A7650"/>
<path d="M340.5 133.119C340.5 133.539 340.161 133.879 339.743 133.879C339.325 133.879 338.987 133.539 338.987 133.119C338.987 132.7 339.325 132.36 339.743 132.36C340.161 132.36 340.5 132.7 340.5 133.119Z" fill="#0A7650"/>
<path d="M334.446 128.056C334.446 128.476 334.107 128.816 333.689 128.816C333.271 128.816 332.932 128.476 332.932 128.056C332.932 127.637 333.271 127.297 333.689 127.297C334.107 127.297 334.446 127.637 334.446 128.056Z" fill="#0A7650"/>
<path d="M369.764 128.563C369.764 128.982 369.425 129.322 369.007 129.322C368.589 129.322 368.25 128.982 368.25 128.563C368.25 128.143 368.589 127.803 369.007 127.803C369.425 127.803 369.764 128.143 369.764 128.563Z" fill="#0A7650"/>
<path d="M149.871 306.723C149.872 306.612 149.873 306.501 149.873 306.389C149.873 289.053 135.867 275 118.591 275C101.315 275 87.3093 289.053 87.3093 306.389C87.3093 321.839 98.433 334.682 113.082 337.293C116.249 348.108 126.213 356.004 138.016 356.004C152.367 356.004 164 344.331 164 329.931C164 319.816 158.26 311.047 149.871 306.723Z" fill="#0A7650"/>
<path d="M110.104 290.188C113.988 283.438 123.698 283.438 127.582 290.188L162.32 350.562C166.204 357.312 161.349 365.75 153.581 365.75H118.843H84.1059C76.338 365.75 71.483 357.312 75.367 350.562L110.104 290.188Z" fill="#82C9A0"/>
<path d="M125.15 396H112.032L114.186 330.184H122.409L125.15 396Z" fill="#263843"/>
<path d="M119.096 308.667C119.096 310.764 117.401 312.464 115.311 312.464C113.222 312.464 111.527 310.764 111.527 308.667C111.527 306.57 113.222 304.87 115.311 304.87C117.401 304.87 119.096 306.57 119.096 308.667Z" fill="#0A7650"/>
<path d="M124.141 297.529C124.141 299.626 122.447 301.326 120.357 301.326C118.267 301.326 116.573 299.626 116.573 297.529C116.573 295.432 118.267 293.732 120.357 293.732C122.447 293.732 124.141 295.432 124.141 297.529Z" fill="#0A7650"/>
<path d="M133.223 311.705C133.223 313.802 131.529 315.502 129.439 315.502C127.349 315.502 125.655 313.802 125.655 311.705C125.655 309.608 127.349 307.908 129.439 307.908C131.529 307.908 133.223 309.608 133.223 311.705Z" fill="#0A7650"/>
<path d="M108.5 314.996C108.5 316.394 107.371 317.527 105.977 317.527C104.584 317.527 103.455 316.394 103.455 314.996C103.455 313.598 104.584 312.464 105.977 312.464C107.371 312.464 108.5 313.598 108.5 314.996Z" fill="#0A7650"/>
<path d="M115.059 321.071C115.059 322.469 113.93 323.603 112.536 323.603C111.143 323.603 110.014 322.469 110.014 321.071C110.014 319.673 111.143 318.54 112.536 318.54C113.93 318.54 115.059 319.673 115.059 321.071Z" fill="#0A7650"/>
<path d="M126.664 322.59C126.664 323.988 125.534 325.121 124.141 325.121C122.748 325.121 121.618 323.988 121.618 322.59C121.618 321.192 122.748 320.059 124.141 320.059C125.534 320.059 126.664 321.192 126.664 322.59Z" fill="#0A7650"/>
<path d="M139.277 317.527C139.277 318.925 138.148 320.059 136.755 320.059C135.361 320.059 134.232 318.925 134.232 317.527C134.232 316.129 135.361 314.996 136.755 314.996C138.148 314.996 139.277 316.129 139.277 317.527Z" fill="#0A7650"/>
<path d="M102.446 321.071C102.446 322.469 101.316 323.603 99.9229 323.603C98.5296 323.603 97.4002 322.469 97.4002 321.071C97.4002 319.673 98.5296 318.54 99.9229 318.54C101.316 318.54 102.446 319.673 102.446 321.071Z" fill="#0A7650"/>
<path d="M108.5 328.665C108.5 329.504 107.822 330.184 106.987 330.184C106.151 330.184 105.473 329.504 105.473 328.665C105.473 327.826 106.151 327.146 106.987 327.146C107.822 327.146 108.5 327.826 108.5 328.665Z" fill="#0A7650"/>
<path d="M135.746 327.146C135.746 327.985 135.068 328.665 134.232 328.665C133.396 328.665 132.718 327.985 132.718 327.146C132.718 326.308 133.396 325.628 134.232 325.628C135.068 325.628 135.746 326.308 135.746 327.146Z" fill="#0A7650"/>
<path d="M130.7 337.272C130.7 338.111 130.022 338.791 129.186 338.791C128.35 338.791 127.673 338.111 127.673 337.272C127.673 336.433 128.35 335.753 129.186 335.753C130.022 335.753 130.7 336.433 130.7 337.272Z" fill="#0A7650"/>
<path d="M95.382 330.184C95.382 331.023 94.7043 331.703 93.8684 331.703C93.0324 331.703 92.3547 331.023 92.3547 330.184C92.3547 329.345 93.0324 328.665 93.8684 328.665C94.7043 328.665 95.382 329.345 95.382 330.184Z" fill="#0A7650"/>
<path d="M144.827 331.703C144.827 332.542 144.15 333.222 143.314 333.222C142.478 333.222 141.8 332.542 141.8 331.703C141.8 330.864 142.478 330.184 143.314 330.184C144.15 330.184 144.827 330.864 144.827 331.703Z" fill="#0A7650"/>
<path d="M90.8411 344.107C90.8411 344.526 90.5023 344.866 90.0843 344.866C89.6663 344.866 89.3275 344.526 89.3275 344.107C89.3275 343.687 89.6663 343.347 90.0843 343.347C90.5023 343.347 90.8411 343.687 90.8411 344.107Z" fill="#0A7650"/>
<path d="M108.5 345.119C108.5 345.539 108.161 345.879 107.743 345.879C107.325 345.879 106.987 345.539 106.987 345.119C106.987 344.7 107.325 344.36 107.743 344.36C108.161 344.36 108.5 344.7 108.5 345.119Z" fill="#0A7650"/>
<path d="M102.446 340.056C102.446 340.476 102.107 340.816 101.689 340.816C101.271 340.816 100.932 340.476 100.932 340.056C100.932 339.637 101.271 339.297 101.689 339.297C102.107 339.297 102.446 339.637 102.446 340.056Z" fill="#0A7650"/>
<path d="M137.764 340.563C137.764 340.982 137.425 341.322 137.007 341.322C136.589 341.322 136.25 340.982 136.25 340.563C136.25 340.143 136.589 339.803 137.007 339.803C137.425 339.803 137.764 340.143 137.764 340.563Z" fill="#0A7650"/>
<path d="M50.1892 253.244C46.207 250.34 40.5531 252.807 40.0122 257.685L39.7336 260.198L35.6307 258.704C30.9924 257.014 26.2525 260.946 27.0988 265.782L30.3485 284.348C31.1948 289.184 36.9927 291.296 40.7847 288.15L47.2207 282.81L64.2629 275.373C68.7861 273.4 69.4622 267.302 65.48 264.397L50.1892 253.244Z" fill="#0A7650"/>
<path d="M74 280.399C74 292.987 63.7281 303.192 51.0572 303.192C38.3862 303.192 28.1143 292.987 28.1143 280.399C28.1143 267.811 38.3862 257.607 51.0572 257.607C63.7281 257.607 74 267.811 74 280.399Z" fill="#82C9A0"/>
<path d="M55.0682 322H46.7253L48.095 280.559H53.3249L55.0682 322Z" fill="#263843"/>
<path d="M48.3627 264.221C48.9185 263.265 50.3079 263.265 50.8637 264.221C51.4195 265.178 50.7248 266.373 49.6132 266.373C48.5017 266.373 47.8069 265.178 48.3627 264.221Z" fill="#82C9A0"/>
<path d="M61.7146 265.936C61.5882 265.812 61.5864 265.61 61.7106 265.485C61.8349 265.359 62.038 265.357 62.1644 265.481L64.2242 267.492C64.3506 267.615 64.3524 267.817 64.2282 267.943C64.104 268.068 63.9008 268.07 63.7744 267.946L61.7146 265.936Z" fill="#0A7650"/>
<path d="M46.3124 271.674C46.186 271.55 46.1842 271.348 46.3085 271.223C46.4327 271.097 46.6358 271.095 46.7622 271.219L48.822 273.23C48.9484 273.353 48.9502 273.555 48.826 273.681C48.7018 273.806 48.4986 273.808 48.3722 273.684L46.3124 271.674Z" fill="#0A7650"/>
<path d="M35.4025 268.486C35.2761 268.362 35.2744 268.161 35.3986 268.035C35.5228 267.909 35.726 267.908 35.8524 268.031L37.9122 270.042C38.0386 270.165 38.0403 270.367 37.9161 270.493C37.7919 270.618 37.5888 270.62 37.4624 270.497L35.4025 268.486Z" fill="#0A7650"/>
<path d="M42.5767 276.003C42.702 275.878 42.9052 275.878 43.0305 276.003C43.1558 276.127 43.1558 276.329 43.0305 276.453L40.9884 278.482C40.8631 278.607 40.66 278.607 40.5346 278.482C40.4093 278.358 40.4093 278.156 40.5346 278.031L42.5767 276.003Z" fill="#0A7650"/>
<path d="M61.1877 294.81C61.313 294.686 61.5161 294.686 61.6415 294.81C61.7668 294.935 61.7668 295.137 61.6415 295.261L59.5994 297.29C59.4741 297.414 59.2709 297.414 59.1456 297.29C59.0203 297.165 59.0203 296.964 59.1456 296.839L61.1877 294.81Z" fill="#0A7650"/>
<path d="M42.2558 261.976C42.3811 261.852 42.5843 261.852 42.7096 261.976C42.8349 262.101 42.8349 262.303 42.7096 262.427L40.6676 264.456C40.5422 264.58 40.3391 264.58 40.2138 264.456C40.0885 264.331 40.0885 264.129 40.2138 264.005L42.2558 261.976Z" fill="#0A7650"/>
<path d="M55.8987 266.84C55.9445 266.67 56.1205 266.569 56.2917 266.615C56.4628 266.661 56.5644 266.835 56.5186 267.005L55.7711 269.777C55.7252 269.947 55.5493 270.048 55.3781 270.002C55.2069 269.957 55.1054 269.782 55.1512 269.612L55.8987 266.84Z" fill="#0A7650"/>
<path d="M43.3844 284.373C43.4303 284.203 43.6062 284.102 43.7774 284.148C43.9486 284.193 44.0502 284.368 44.0043 284.538L43.2568 287.31C43.211 287.48 43.035 287.581 42.8638 287.535C42.6927 287.489 42.5911 287.315 42.637 287.145L43.3844 284.373Z" fill="#0A7650"/>
<path d="M58.1448 288.517C58.1907 288.347 58.3666 288.246 58.5378 288.292C58.709 288.338 58.8106 288.512 58.7647 288.682L58.0173 291.454C57.9714 291.624 57.7954 291.725 57.6243 291.679C57.4531 291.633 57.3515 291.459 57.3974 291.289L58.1448 288.517Z" fill="#0A7650"/>
<path d="M63.2789 273.854C63.3247 273.684 63.5007 273.583 63.6719 273.628C63.843 273.674 63.9446 273.849 63.8988 274.019L63.1513 276.79C63.1055 276.96 62.9295 277.061 62.7583 277.015C62.5872 276.97 62.4856 276.795 62.5314 276.625L63.2789 273.854Z" fill="#0A7650"/>
<path d="M32.7954 276.085C32.8413 275.915 33.0172 275.814 33.1884 275.86C33.3596 275.905 33.4612 276.08 33.4153 276.25L32.6678 279.021C32.622 279.191 32.446 279.292 32.2748 279.247C32.1037 279.201 32.0021 279.026 32.048 278.856L32.7954 276.085Z" fill="#0A7650"/>
<path d="M67.1294 286.286C67.1753 286.116 67.3512 286.015 67.5224 286.061C67.6936 286.106 67.7952 286.281 67.7493 286.451L67.0019 289.222C66.956 289.392 66.78 289.493 66.6089 289.448C66.4377 289.402 66.3361 289.227 66.382 289.057L67.1294 286.286Z" fill="#0A7650"/>
<path d="M69.6681 280.516C69.5795 280.364 69.6321 280.169 69.7856 280.081C69.9391 279.993 70.1353 280.045 70.2239 280.197L71.6679 282.682C71.7565 282.834 71.7039 283.029 71.5504 283.117C71.3969 283.205 71.2007 283.153 71.1121 283.001L69.6681 280.516Z" fill="#0A7650"/>
<path d="M68.0637 271.59C67.9751 271.438 68.0277 271.243 68.1812 271.155C68.3347 271.067 68.5309 271.119 68.6195 271.272L70.0635 273.756C70.1521 273.909 70.0995 274.104 69.946 274.192C69.7926 274.28 69.5963 274.227 69.5077 274.075L68.0637 271.59Z" fill="#0A7650"/>
<path d="M50.7363 260.114C50.6477 259.962 50.7003 259.767 50.8537 259.679C51.0072 259.591 51.2035 259.643 51.2921 259.795L52.736 262.28C52.8246 262.433 52.7721 262.628 52.6186 262.716C52.4651 262.804 52.2689 262.751 52.1803 262.599L50.7363 260.114Z" fill="#0A7650"/>
<path d="M50.7363 260.114C50.6477 259.962 50.7003 259.767 50.8537 259.679C51.0072 259.591 51.2035 259.643 51.2921 259.795L52.736 262.28C52.8246 262.433 52.7721 262.628 52.6186 262.716C52.4651 262.804 52.2689 262.751 52.1803 262.599L50.7363 260.114Z" fill="#0A7650"/>
<path d="M54.9077 277.328C54.8191 277.176 54.8717 276.981 55.0252 276.893C55.1786 276.805 55.3749 276.857 55.4635 277.01L56.9075 279.494C56.9961 279.647 56.9435 279.842 56.79 279.93C56.6365 280.018 56.4403 279.965 56.3517 279.813L54.9077 277.328Z" fill="#0A7650"/>
<path d="M41.7517 294.861C41.6631 294.709 41.7157 294.514 41.8691 294.426C42.0226 294.338 42.2189 294.39 42.3075 294.542L43.7514 297.027C43.84 297.179 43.7874 297.374 43.634 297.462C43.4805 297.55 43.2843 297.498 43.1956 297.346L41.7517 294.861Z" fill="#0A7650"/>
<path d="M36.48 285.885C36.6053 285.76 36.8085 285.76 36.9338 285.885C37.0591 286.009 37.0591 286.211 36.9338 286.335L34.8917 288.364C34.7664 288.489 34.5633 288.489 34.4379 288.364C34.3126 288.24 34.3126 288.038 34.4379 287.913L36.48 285.885Z" fill="#0A7650"/>
<path d="M63.1129 281.422C63.2382 281.297 63.4414 281.297 63.5667 281.422C63.692 281.546 63.692 281.748 63.5667 281.873L61.5247 283.901C61.3994 284.026 61.1962 284.026 61.0709 283.901C60.9456 283.777 60.9456 283.575 61.0709 283.45L63.1129 281.422Z" fill="#0A7650"/>
<path d="M363.07 288.724C357.563 284.699 349.744 288.118 348.996 294.878L348.61 298.36L342.936 296.289C336.521 293.948 329.966 299.397 331.137 306.098L335.631 331.826C336.801 338.526 344.82 341.452 350.064 337.093L358.965 329.695L382.534 319.389C388.789 316.654 389.724 308.204 384.217 304.179L363.07 288.724Z" fill="#0A7650"/>
<path d="M396 326.353C396 343.797 381.794 357.938 364.271 357.938C346.747 357.938 332.541 343.797 332.541 326.353C332.541 308.91 346.747 294.769 364.271 294.769C381.794 294.769 396 308.91 396 326.353Z" fill="#82C9A0"/>
<path d="M369.818 384H358.28L360.174 326.574H367.407L369.818 384Z" fill="#263843"/>
<path d="M360.544 303.935C361.313 302.61 363.234 302.61 364.003 303.935C364.772 305.261 363.811 306.917 362.274 306.917C360.736 306.917 359.776 305.261 360.544 303.935Z" fill="#82C9A0"/>
<path d="M379.01 306.311C378.835 306.14 378.832 305.86 379.004 305.686C379.176 305.512 379.457 305.51 379.632 305.681L382.48 308.467C382.655 308.638 382.658 308.918 382.486 309.092C382.314 309.266 382.033 309.268 381.858 309.097L379.01 306.311Z" fill="#0A7650"/>
<path d="M357.709 314.262C357.534 314.091 357.531 313.811 357.703 313.637C357.875 313.463 358.156 313.461 358.331 313.632L361.179 316.418C361.354 316.589 361.357 316.869 361.185 317.043C361.013 317.217 360.732 317.219 360.557 317.048L357.709 314.262Z" fill="#0A7650"/>
<path d="M342.621 309.845C342.446 309.674 342.443 309.394 342.615 309.22C342.787 309.046 343.068 309.043 343.243 309.214L346.091 312.001C346.266 312.172 346.269 312.452 346.097 312.626C345.925 312.8 345.644 312.802 345.469 312.631L342.621 309.845Z" fill="#0A7650"/>
<path d="M352.542 320.261C352.716 320.088 352.997 320.088 353.17 320.261C353.343 320.433 353.343 320.713 353.17 320.885L350.346 323.697C350.172 323.869 349.891 323.869 349.718 323.697C349.545 323.524 349.545 323.244 349.718 323.072L352.542 320.261Z" fill="#0A7650"/>
<path d="M378.281 346.323C378.454 346.151 378.735 346.151 378.908 346.323C379.082 346.496 379.082 346.775 378.908 346.948L376.084 349.759C375.911 349.931 375.63 349.931 375.457 349.759C375.283 349.586 375.283 349.307 375.457 349.134L378.281 346.323Z" fill="#0A7650"/>
<path d="M352.098 300.824C352.272 300.652 352.553 300.652 352.726 300.824C352.899 300.997 352.899 301.276 352.726 301.449L349.902 304.26C349.729 304.433 349.448 304.433 349.274 304.26C349.101 304.088 349.101 303.808 349.274 303.635L352.098 300.824Z" fill="#0A7650"/>
<path d="M370.966 307.565C371.03 307.329 371.273 307.189 371.51 307.252C371.746 307.315 371.887 307.558 371.824 307.793L370.79 311.633C370.726 311.869 370.483 312.009 370.246 311.946C370.01 311.883 369.869 311.64 369.933 311.405L370.966 307.565Z" fill="#0A7650"/>
<path d="M353.659 331.86C353.723 331.624 353.966 331.485 354.203 331.548C354.44 331.611 354.58 331.853 354.517 332.089L353.483 335.929C353.419 336.165 353.176 336.304 352.939 336.241C352.703 336.178 352.562 335.936 352.626 335.7L353.659 331.86Z" fill="#0A7650"/>
<path d="M374.073 337.603C374.136 337.367 374.379 337.227 374.616 337.29C374.853 337.353 374.993 337.596 374.93 337.831L373.896 341.671C373.833 341.907 373.589 342.047 373.353 341.984C373.116 341.921 372.975 341.678 373.039 341.443L374.073 337.603Z" fill="#0A7650"/>
<path d="M381.173 317.283C381.236 317.047 381.48 316.907 381.716 316.97C381.953 317.034 382.094 317.276 382.03 317.511L380.997 321.352C380.933 321.587 380.69 321.727 380.453 321.664C380.216 321.601 380.076 321.359 380.139 321.123L381.173 317.283Z" fill="#0A7650"/>
<path d="M339.015 320.375C339.078 320.139 339.322 319.999 339.558 320.063C339.795 320.126 339.936 320.368 339.872 320.604L338.839 324.444C338.775 324.679 338.532 324.819 338.295 324.756C338.058 324.693 337.918 324.451 337.981 324.215L339.015 320.375Z" fill="#0A7650"/>
<path d="M386.498 334.511C386.562 334.275 386.805 334.135 387.042 334.198C387.278 334.261 387.419 334.504 387.355 334.739L386.322 338.579C386.258 338.815 386.015 338.955 385.778 338.892C385.541 338.829 385.401 338.586 385.464 338.351L386.498 334.511Z" fill="#0A7650"/>
<path d="M390.009 326.515C389.887 326.304 389.959 326.034 390.172 325.912C390.384 325.79 390.655 325.862 390.778 326.073L392.775 329.516C392.897 329.728 392.825 329.998 392.612 330.12C392.4 330.242 392.129 330.169 392.006 329.958L390.009 326.515Z" fill="#0A7650"/>
<path d="M387.79 314.147C387.668 313.935 387.74 313.665 387.953 313.543C388.165 313.421 388.436 313.494 388.559 313.705L390.556 317.148C390.678 317.359 390.606 317.629 390.393 317.751C390.181 317.873 389.91 317.801 389.787 317.59L387.79 314.147Z" fill="#0A7650"/>
<path d="M363.827 298.244C363.704 298.033 363.777 297.763 363.989 297.641C364.201 297.519 364.473 297.591 364.595 297.802L366.592 301.245C366.715 301.457 366.642 301.727 366.43 301.849C366.218 301.971 365.946 301.898 365.824 301.687L363.827 298.244Z" fill="#0A7650"/>
<path d="M363.827 298.244C363.704 298.033 363.777 297.763 363.989 297.641C364.201 297.519 364.473 297.591 364.595 297.802L366.592 301.245C366.715 301.457 366.642 301.727 366.43 301.849C366.218 301.971 365.946 301.898 365.824 301.687L363.827 298.244Z" fill="#0A7650"/>
<path d="M369.596 322.098C369.473 321.887 369.546 321.616 369.758 321.494C369.97 321.372 370.242 321.445 370.364 321.656L372.361 325.099C372.484 325.31 372.411 325.58 372.199 325.702C371.987 325.824 371.715 325.752 371.593 325.541L369.596 322.098Z" fill="#0A7650"/>
<path d="M351.401 346.393C351.279 346.182 351.351 345.912 351.564 345.79C351.776 345.668 352.047 345.74 352.17 345.952L354.167 349.395C354.289 349.606 354.217 349.876 354.004 349.998C353.792 350.12 353.521 350.048 353.398 349.836L351.401 346.393Z" fill="#0A7650"/>
<path d="M344.111 333.954C344.284 333.782 344.565 333.782 344.738 333.954C344.912 334.127 344.912 334.407 344.738 334.579L341.914 337.39C341.741 337.563 341.46 337.563 341.287 337.39C341.113 337.218 341.113 336.938 341.287 336.766L344.111 333.954Z" fill="#0A7650"/>
<path d="M380.943 327.77C381.117 327.598 381.398 327.598 381.571 327.77C381.744 327.943 381.744 328.222 381.571 328.395L378.747 331.206C378.574 331.379 378.293 331.379 378.119 331.206C377.946 331.034 377.946 330.754 378.119 330.581L380.943 327.77Z" fill="#0A7650"/>
<path d="M81.9644 65.1505C75.1014 60.1298 65.3575 64.3947 64.4253 72.8274L63.9451 77.171L56.8742 74.5876C48.8806 71.6672 40.7117 78.4644 42.1703 86.8227L47.7708 118.916C49.2294 127.275 59.2214 130.925 65.7565 125.487L76.8484 116.258L106.219 103.403C114.014 99.9906 115.179 89.4498 108.317 84.429L81.9644 65.1505Z" fill="#0A7650"/>
<path d="M123 112.09C123 133.85 105.297 151.489 83.4602 151.489C61.623 151.489 43.9205 133.85 43.9205 112.09C43.9205 90.3311 61.623 72.6917 83.4602 72.6917C105.297 72.6917 123 90.3311 123 112.09Z" fill="#82C9A0"/>
<path d="M90.3728 184H75.9947L78.3553 112.366H87.3684L90.3728 184Z" fill="#263843"/>
<path d="M78.8166 84.1256C79.7744 82.4725 82.169 82.4725 83.1268 84.1256C84.0847 85.7787 82.8874 87.845 80.9717 87.845C79.0561 87.845 77.8588 85.7787 78.8166 84.1256Z" fill="#82C9A0"/>
<path d="M101.827 87.0886C101.609 86.8752 101.606 86.5264 101.82 86.3093C102.035 86.0922 102.385 86.0892 102.602 86.3025L106.152 89.7785C106.37 89.9918 106.373 90.3407 106.159 90.5578C105.945 90.7748 105.595 90.7779 105.377 90.5646L101.827 87.0886Z" fill="#0A7650"/>
<path d="M75.2831 97.0071C75.0653 96.7938 75.0622 96.4449 75.2763 96.2279C75.4904 96.0108 75.8405 96.0078 76.0583 96.2211L79.6082 99.6971C79.826 99.9104 79.8291 100.259 79.615 100.476C79.401 100.693 79.0508 100.696 78.833 100.483L75.2831 97.0071Z" fill="#0A7650"/>
<path d="M56.481 91.4968C56.2631 91.2835 56.2601 90.9346 56.4742 90.7176C56.6882 90.5005 57.0384 90.4975 57.2562 90.7108L60.8061 94.1868C61.0239 94.4001 61.027 94.7489 60.8129 94.966C60.5988 95.1831 60.2487 95.1861 60.0309 94.9728L56.481 91.4968Z" fill="#0A7650"/>
<path d="M68.845 104.49C69.0609 104.275 69.4111 104.275 69.627 104.49C69.843 104.705 69.843 105.054 69.627 105.269L66.1077 108.776C65.8918 108.991 65.5416 108.991 65.3257 108.776C65.1097 108.561 65.1097 108.212 65.3257 107.997L68.845 104.49Z" fill="#0A7650"/>
<path d="M100.919 137.001C101.135 136.786 101.485 136.786 101.701 137.001C101.917 137.216 101.917 137.565 101.701 137.78L98.1819 141.287C97.966 141.502 97.6158 141.502 97.3999 141.287C97.1839 141.072 97.1839 140.723 97.3999 140.508L100.919 137.001Z" fill="#0A7650"/>
<path d="M68.2919 80.2447C68.5079 80.0295 68.8581 80.0295 69.074 80.2447C69.29 80.4599 69.29 80.8088 69.074 81.024L65.5547 84.5307C65.3388 84.7459 64.9886 84.7459 64.7727 84.5307C64.5567 84.3155 64.5567 83.9666 64.7727 83.7514L68.2919 80.2447Z" fill="#0A7650"/>
<path d="M91.8041 88.6528C91.8831 88.3588 92.1864 88.1844 92.4814 88.2632C92.7764 88.3419 92.9515 88.6441 92.8724 88.938L91.5842 93.7283C91.5052 94.0223 91.202 94.1967 90.907 94.118C90.612 94.0392 90.4369 93.737 90.5159 93.4431L91.8041 88.6528Z" fill="#0A7650"/>
<path d="M70.2369 118.96C70.316 118.666 70.6192 118.491 70.9142 118.57C71.2092 118.649 71.3843 118.951 71.3053 119.245L70.0171 124.035C69.9381 124.329 69.6348 124.503 69.3398 124.425C69.0448 124.346 68.8697 124.044 68.9488 123.75L70.2369 118.96Z" fill="#0A7650"/>
<path d="M95.6751 126.123C95.7542 125.829 96.0574 125.655 96.3524 125.733C96.6474 125.812 96.8225 126.114 96.7434 126.408L95.4553 131.198C95.3762 131.492 95.073 131.667 94.778 131.588C94.483 131.509 94.3079 131.207 94.387 130.913L95.6751 126.123Z" fill="#0A7650"/>
<path d="M104.523 100.775C104.602 100.482 104.905 100.307 105.2 100.386C105.495 100.465 105.671 100.767 105.591 101.061L104.303 105.851C104.224 106.145 103.921 106.319 103.626 106.241C103.331 106.162 103.156 105.86 103.235 105.566L104.523 100.775Z" fill="#0A7650"/>
<path d="M51.9878 104.633C52.0669 104.339 52.3701 104.164 52.6651 104.243C52.9601 104.322 53.1352 104.624 53.0561 104.918L51.768 109.708C51.6889 110.002 51.3857 110.177 51.0907 110.098C50.7957 110.019 50.6206 109.717 50.6997 109.423L51.9878 104.633Z" fill="#0A7650"/>
<path d="M111.159 122.266C111.238 121.972 111.541 121.797 111.837 121.876C112.132 121.955 112.307 122.257 112.228 122.551L110.939 127.341C110.86 127.635 110.557 127.81 110.262 127.731C109.967 127.652 109.792 127.35 109.871 127.056L111.159 122.266Z" fill="#0A7650"/>
<path d="M115.534 112.292C115.382 112.029 115.472 111.692 115.737 111.539C116.001 111.387 116.34 111.478 116.492 111.741L118.981 116.036C119.134 116.299 119.043 116.636 118.778 116.789C118.514 116.941 118.176 116.851 118.023 116.587L115.534 112.292Z" fill="#0A7650"/>
<path d="M112.769 96.8632C112.617 96.5997 112.707 96.2627 112.972 96.1105C113.236 95.9583 113.575 96.0486 113.727 96.3122L116.216 100.607C116.368 100.871 116.278 101.208 116.013 101.36C115.749 101.512 115.411 101.422 115.258 101.158L112.769 96.8632Z" fill="#0A7650"/>
<path d="M82.9072 77.0261C82.7545 76.7625 82.8452 76.4255 83.1096 76.2734C83.3741 76.1212 83.7124 76.2115 83.8651 76.4751L86.3536 80.7699C86.5063 81.0335 86.4157 81.3705 86.1512 81.5226C85.8867 81.6748 85.5485 81.5845 85.3958 81.321L82.9072 77.0261Z" fill="#0A7650"/>
<path d="M82.9072 77.0261C82.7545 76.7625 82.8452 76.4255 83.1096 76.2734C83.3741 76.1212 83.7124 76.2115 83.8651 76.4751L86.3536 80.7699C86.5063 81.0335 86.4157 81.3705 86.1512 81.5226C85.8867 81.6748 85.5485 81.5845 85.3958 81.321L82.9072 77.0261Z" fill="#0A7650"/>
<path d="M90.0963 106.782C89.9436 106.518 90.0342 106.181 90.2987 106.029C90.5632 105.877 90.9014 105.967 91.0541 106.231L93.5426 110.526C93.6953 110.789 93.6047 111.126 93.3402 111.278C93.0757 111.431 92.7375 111.34 92.5848 111.077L90.0963 106.782Z" fill="#0A7650"/>
<path d="M67.4231 137.089C67.2704 136.825 67.361 136.488 67.6255 136.336C67.89 136.184 68.2283 136.274 68.381 136.537L70.8695 140.832C71.0222 141.096 70.9316 141.433 70.6671 141.585C70.4026 141.737 70.0644 141.647 69.9116 141.383L67.4231 137.089Z" fill="#0A7650"/>
<path d="M58.3379 121.572C58.5538 121.357 58.904 121.357 59.1199 121.572C59.3359 121.787 59.3359 122.136 59.1199 122.351L55.6007 125.858C55.3847 126.073 55.0346 126.073 54.8186 125.858C54.6026 125.643 54.6026 125.294 54.8186 125.079L58.3379 121.572Z" fill="#0A7650"/>
<path d="M104.237 113.858C104.453 113.642 104.803 113.642 105.019 113.858C105.235 114.073 105.235 114.422 105.019 114.637L101.5 118.144C101.284 118.359 100.934 118.359 100.718 118.144C100.502 117.928 100.502 117.58 100.718 117.364L104.237 113.858Z" fill="#0A7650"/>
<path fill-rule="evenodd" clip-rule="evenodd" d="M262.967 349.731C262.307 337.066 251.829 327 239 327C225.83 327 215.138 337.608 215.001 350.745C212.222 349.62 209.183 349 206 349C192.745 349 182 359.745 182 373C182 386.255 192.745 397 206 397C213.3 397 219.838 393.741 224.24 388.599C231.301 393.741 241.79 397 253.5 397C274.763 397 292 386.255 292 373C292 361.782 279.652 352.361 262.967 349.731Z" fill="#0A7650"/>
<path fill-rule="evenodd" clip-rule="evenodd" d="M84.4603 178.535C83.9513 168.765 75.8682 161 65.9714 161C55.8119 161 47.5636 169.183 47.4582 179.318C45.3139 178.449 42.9699 177.971 40.5143 177.971C30.2891 177.971 22 186.261 22 196.486C22 206.711 30.2891 215 40.5143 215C46.1455 215 51.1895 212.486 54.5851 208.519C60.0324 212.486 68.1238 215 77.1571 215C93.56 215 106.857 206.711 106.857 196.486C106.857 187.831 97.3319 180.564 84.4603 178.535Z" fill="#0A7650"/>
<path d="M223.061 76.41C219.852 76.0172 219.092 71.6311 219.833 67.1641C221.053 65.4061 221.49 63.4107 221.568 61.6148L226.709 60.9597C229.533 65.8228 228.663 75.821 224.137 76.3981C223.78 76.4459 223.418 76.449 223.06 76.4073L223.061 76.41ZM221.435 59.4916L226.668 58.8266C227.694 49.2235 217.379 52.2756 221.435 59.4916ZM220.523 34.7302C220.881 34.7718 221.242 34.7687 221.599 34.7208C226.126 34.1439 226.996 24.1459 224.171 19.2828L219.03 19.9379C218.953 21.7338 218.514 23.7279 217.296 25.4873C216.555 29.954 217.314 34.3401 220.524 34.7333L220.523 34.7302ZM218.897 17.8115L224.13 17.147C225.154 7.54716 214.84 10.5975 218.899 17.8129L218.897 17.8115ZM204.246 57.7314C207.475 57.5595 208.532 53.2358 208.1 48.7302C207.005 46.8928 206.704 44.8722 206.749 43.0759L201.661 42.0679C198.512 46.727 198.693 56.7607 203.17 57.6458C203.523 57.7181 203.883 57.7461 204.243 57.7292L204.246 57.7314ZM207.026 40.9639C211.567 34.0427 201.485 30.2926 201.853 39.9429L207.026 40.9639ZM209.693 98.6187C212.777 97.6508 212.725 93.2074 211.2 88.9469C209.681 87.4391 208.893 85.5502 208.489 83.8043L203.315 84.0921C201.412 89.3816 204.071 99.0638 208.63 98.806C208.99 98.7891 209.346 98.7274 209.691 98.6223L209.693 98.6187ZM208.231 81.689C210.915 73.8581 200.217 72.7226 202.965 81.9819L208.229 81.6878L208.231 81.689Z" fill="#544533"/>
<path d="M223.061 181.617C219.852 181.224 219.092 176.838 219.833 172.371C221.053 170.613 221.49 168.618 221.568 166.822L226.709 166.167C229.533 171.03 228.663 181.028 224.137 181.605C223.78 181.653 223.418 181.656 223.06 181.614L223.061 181.617ZM221.435 164.699L226.668 164.034C227.694 154.431 217.379 157.483 221.435 164.699ZM220.523 139.937C220.881 139.979 221.242 139.976 221.599 139.928C226.126 139.351 226.996 129.353 224.171 124.49L219.03 125.145C218.953 126.941 218.514 128.935 217.296 130.694C216.555 135.161 217.314 139.547 220.524 139.94L220.523 139.937ZM218.897 123.019L224.13 122.354C225.154 112.754 214.84 115.805 218.899 123.02L218.897 123.019ZM204.246 162.938C207.475 162.767 208.532 158.443 208.1 153.937C207.005 152.1 206.704 150.079 206.749 148.283L201.661 147.275C198.512 151.934 198.693 161.968 203.17 162.853C203.523 162.925 203.883 162.953 204.243 162.936L204.246 162.938ZM207.026 146.171C211.567 139.25 201.485 135.5 201.853 145.15L207.026 146.171ZM209.693 203.826C212.777 202.858 212.725 198.414 211.2 194.154C209.681 192.646 208.893 190.757 208.489 189.011L203.315 189.299C201.412 194.589 204.071 204.271 208.63 204.013C208.99 203.996 209.346 203.934 209.691 203.829L209.693 203.826ZM208.231 186.896C210.915 179.065 200.217 177.93 202.965 187.189L208.229 186.895L208.231 186.896Z" fill="#544533"/>
<path d="M291.41 206.63C291.017 209.84 286.631 210.599 282.164 209.859C280.406 208.638 278.411 208.201 276.615 208.123L275.96 202.983C280.823 200.158 290.821 201.028 291.398 205.555C291.446 205.912 291.449 206.273 291.407 206.631L291.41 206.63ZM274.492 208.256L273.827 203.023C264.224 201.997 267.276 212.312 274.492 208.256ZM249.73 209.168C249.772 208.81 249.769 208.449 249.721 208.092C249.144 203.565 239.146 202.696 234.283 205.52L234.938 210.661C236.734 210.738 238.728 211.177 240.487 212.396C244.954 213.136 249.34 212.377 249.733 209.167L249.73 209.168ZM232.812 210.794L232.147 205.561C222.547 204.537 225.598 214.851 232.813 210.792L232.812 210.794ZM272.731 225.445C272.56 222.217 268.236 221.159 263.73 221.591C261.893 222.686 259.872 222.987 258.076 222.942L257.068 228.03C261.727 231.18 271.761 230.998 272.646 226.521C272.718 226.168 272.746 225.808 272.729 225.448L272.731 225.445ZM255.964 222.665C249.043 218.124 245.293 228.206 254.943 227.838L255.964 222.665ZM313.619 219.998C312.651 216.914 308.207 216.966 303.947 218.492C302.439 220.01 300.55 220.798 298.804 221.202L299.092 226.377C304.382 228.28 314.064 225.62 313.806 221.061C313.789 220.701 313.727 220.345 313.622 220.001L313.619 219.998ZM296.689 221.461C288.858 218.776 287.723 229.474 296.982 226.727L296.688 221.462L296.689 221.461Z" fill="#544533"/>
<path d="M396.617 206.63C396.224 209.84 391.838 210.599 387.371 209.859C385.613 208.638 383.618 208.201 381.822 208.123L381.167 202.983C386.03 200.158 396.028 201.028 396.605 205.555C396.653 205.912 396.656 206.273 396.614 206.631L396.617 206.63ZM379.699 208.256L379.034 203.023C369.431 201.997 372.483 212.312 379.699 208.256ZM354.937 209.168C354.979 208.81 354.976 208.449 354.928 208.092C354.351 203.565 344.353 202.696 339.49 205.52L340.145 210.661C341.941 210.738 343.935 211.177 345.694 212.396C350.161 213.136 354.547 212.377 354.94 209.167L354.937 209.168ZM338.019 210.794L337.354 205.561C327.754 204.537 330.805 214.851 338.02 210.792L338.019 210.794ZM377.938 225.445C377.767 222.217 373.443 221.159 368.937 221.591C367.1 222.686 365.079 222.987 363.283 222.942L362.275 228.03C366.934 231.18 376.968 230.998 377.853 226.521C377.925 226.168 377.953 225.808 377.936 225.448L377.938 225.445ZM361.171 222.665C354.25 218.124 350.5 228.206 360.15 227.838L361.171 222.665ZM418.826 219.998C417.858 216.914 413.414 216.966 409.154 218.492C407.646 220.01 405.757 220.798 404.011 221.202L404.299 226.377C409.589 228.28 419.271 225.62 419.013 221.061C418.996 220.701 418.934 220.345 418.829 220.001L418.826 219.998ZM401.896 221.461C394.065 218.776 392.93 229.474 402.189 226.727L401.895 221.462L401.896 221.461Z" fill="#544533"/>
<circle cx="214.5" cy="214.5" r="62.5" fill="white"/>
<path d="M187 214.833L207.833 235.667L242.556 194" stroke="#0A7650" stroke-width="10"/>
</svg>
