<svg width="429" height="429" viewBox="0 0 429 429" fill="none" xmlns="http://www.w3.org/2000/svg">
<rect width="429" height="429" fill="#49A772"/>
<rect y="184" width="429" height="61" fill="#99775E"/>
<path d="M78.9644 308.151C72.1014 303.13 62.3575 307.395 61.4253 315.827L60.9451 320.171L53.8742 317.588C45.8806 314.667 37.7117 321.464 39.1703 329.823L44.7708 361.916C46.2294 370.275 56.2214 373.925 62.7565 368.487L73.8484 359.258L103.219 346.403C111.014 342.991 112.179 332.45 105.317 327.429L78.9644 308.151Z" fill="#0A7650"/>
<path d="M120 355.09C120 376.85 102.297 394.489 80.4602 394.489C58.623 394.489 40.9205 376.85 40.9205 355.09C40.9205 333.331 58.623 315.692 80.4602 315.692C102.297 315.692 120 333.331 120 355.09Z" fill="#82C9A0"/>
<path d="M87.3728 427H72.9947L75.3553 355.366H84.3684L87.3728 427Z" fill="#263843"/>
<path d="M75.8166 327.126C76.7744 325.472 79.169 325.472 80.1268 327.126C81.0847 328.779 79.8874 330.845 77.9717 330.845C76.0561 330.845 74.8588 328.779 75.8166 327.126Z" fill="#82C9A0"/>
<path d="M98.8273 330.089C98.6094 329.875 98.6064 329.526 98.8205 329.309C99.0345 329.092 99.3847 329.089 99.6025 329.303L103.152 332.779C103.37 332.992 103.373 333.341 103.159 333.558C102.945 333.775 102.595 333.778 102.377 333.565L98.8273 330.089Z" fill="#0A7650"/>
<path d="M72.2831 340.007C72.0653 339.794 72.0622 339.445 72.2763 339.228C72.4904 339.011 72.8405 339.008 73.0583 339.221L76.6082 342.697C76.826 342.91 76.8291 343.259 76.615 343.476C76.401 343.693 76.0508 343.696 75.833 343.483L72.2831 340.007Z" fill="#0A7650"/>
<path d="M53.481 334.497C53.2631 334.284 53.2601 333.935 53.4742 333.718C53.6882 333.5 54.0384 333.497 54.2562 333.711L57.8061 337.187C58.0239 337.4 58.027 337.749 57.8129 337.966C57.5988 338.183 57.2487 338.186 57.0309 337.973L53.481 334.497Z" fill="#0A7650"/>
<path d="M65.845 347.49C66.0609 347.275 66.4111 347.275 66.627 347.49C66.843 347.705 66.843 348.054 66.627 348.269L63.1077 351.776C62.8918 351.991 62.5416 351.991 62.3257 351.776C62.1097 351.561 62.1097 351.212 62.3257 350.997L65.845 347.49Z" fill="#0A7650"/>
<path d="M97.9192 380.001C98.1351 379.786 98.4853 379.786 98.7012 380.001C98.9172 380.216 98.9172 380.565 98.7012 380.78L95.1819 384.287C94.966 384.502 94.6158 384.502 94.3999 384.287C94.1839 384.072 94.1839 383.723 94.3999 383.508L97.9192 380.001Z" fill="#0A7650"/>
<path d="M65.2919 323.245C65.5079 323.03 65.8581 323.03 66.074 323.245C66.29 323.46 66.29 323.809 66.074 324.024L62.5547 327.531C62.3388 327.746 61.9886 327.746 61.7727 327.531C61.5567 327.316 61.5567 326.967 61.7727 326.751L65.2919 323.245Z" fill="#0A7650"/>
<path d="M88.8041 331.653C88.8831 331.359 89.1864 331.184 89.4814 331.263C89.7764 331.342 89.9514 331.644 89.8724 331.938L88.5842 336.728C88.5052 337.022 88.202 337.197 87.907 337.118C87.612 337.039 87.4369 336.737 87.5159 336.443L88.8041 331.653Z" fill="#0A7650"/>
<path d="M67.2369 361.96C67.316 361.666 67.6192 361.491 67.9142 361.57C68.2092 361.649 68.3843 361.951 68.3053 362.245L67.0171 367.035C66.9381 367.329 66.6348 367.503 66.3398 367.425C66.0448 367.346 65.8697 367.044 65.9488 366.75L67.2369 361.96Z" fill="#0A7650"/>
<path d="M92.6751 369.123C92.7542 368.829 93.0574 368.655 93.3524 368.733C93.6474 368.812 93.8225 369.114 93.7434 369.408L92.4553 374.198C92.3762 374.492 92.073 374.667 91.778 374.588C91.483 374.509 91.3079 374.207 91.387 373.913L92.6751 369.123Z" fill="#0A7650"/>
<path d="M101.523 343.775C101.602 343.482 101.905 343.307 102.2 343.386C102.495 343.465 102.671 343.767 102.591 344.061L101.303 348.851C101.224 349.145 100.921 349.319 100.626 349.241C100.331 349.162 100.156 348.86 100.235 348.566L101.523 343.775Z" fill="#0A7650"/>
<path d="M48.9878 347.633C49.0669 347.339 49.3701 347.164 49.6651 347.243C49.9601 347.322 50.1352 347.624 50.0561 347.918L48.768 352.708C48.6889 353.002 48.3857 353.177 48.0907 353.098C47.7957 353.019 47.6206 352.717 47.6997 352.423L48.9878 347.633Z" fill="#0A7650"/>
<path d="M108.159 365.266C108.238 364.972 108.541 364.797 108.836 364.876C109.132 364.955 109.307 365.257 109.228 365.551L107.939 370.341C107.86 370.635 107.557 370.81 107.262 370.731C106.967 370.652 106.792 370.35 106.871 370.056L108.159 365.266Z" fill="#0A7650"/>
<path d="M112.534 355.292C112.382 355.029 112.472 354.692 112.737 354.539C113.001 354.387 113.34 354.478 113.492 354.741L115.981 359.036C116.134 359.299 116.043 359.636 115.778 359.789C115.514 359.941 115.176 359.851 115.023 359.587L112.534 355.292Z" fill="#0A7650"/>
<path d="M109.769 339.863C109.617 339.6 109.707 339.263 109.972 339.11C110.236 338.958 110.575 339.049 110.727 339.312L113.216 343.607C113.368 343.871 113.278 344.208 113.013 344.36C112.749 344.512 112.411 344.422 112.258 344.158L109.769 339.863Z" fill="#0A7650"/>
<path d="M79.9072 320.026C79.7545 319.763 79.8452 319.426 80.1097 319.273C80.3741 319.121 80.7124 319.211 80.8651 319.475L83.3536 323.77C83.5063 324.033 83.4157 324.37 83.1512 324.523C82.8867 324.675 82.5485 324.585 82.3958 324.321L79.9072 320.026Z" fill="#0A7650"/>
<path d="M79.9072 320.026C79.7545 319.763 79.8452 319.426 80.1097 319.273C80.3741 319.121 80.7124 319.211 80.8651 319.475L83.3536 323.77C83.5063 324.033 83.4157 324.37 83.1512 324.523C82.8867 324.675 82.5485 324.585 82.3958 324.321L79.9072 320.026Z" fill="#0A7650"/>
<path d="M87.0963 349.782C86.9436 349.518 87.0342 349.181 87.2987 349.029C87.5632 348.877 87.9014 348.967 88.0541 349.231L90.5426 353.526C90.6953 353.789 90.6047 354.126 90.3402 354.278C90.0757 354.431 89.7375 354.34 89.5848 354.077L87.0963 349.782Z" fill="#0A7650"/>
<path d="M64.4231 380.089C64.2704 379.825 64.361 379.488 64.6255 379.336C64.89 379.184 65.2283 379.274 65.381 379.537L67.8695 383.832C68.0222 384.096 67.9316 384.433 67.6671 384.585C67.4026 384.737 67.0644 384.647 66.9116 384.383L64.4231 380.089Z" fill="#0A7650"/>
<path d="M55.3379 364.572C55.5538 364.357 55.904 364.357 56.1199 364.572C56.3359 364.787 56.3359 365.136 56.1199 365.351L52.6007 368.858C52.3847 369.073 52.0346 369.073 51.8186 368.858C51.6026 368.643 51.6026 368.294 51.8186 368.079L55.3379 364.572Z" fill="#0A7650"/>
<path d="M101.237 356.858C101.453 356.642 101.803 356.642 102.019 356.858C102.235 357.073 102.235 357.422 102.019 357.637L98.5 361.144C98.284 361.359 97.9339 361.359 97.7179 361.144C97.5019 360.928 97.5019 360.58 97.7179 360.364L101.237 356.858Z" fill="#0A7650"/>
<path d="M339.176 311.297C335.024 308.268 329.13 310.841 328.566 315.929L328.275 318.549L323.998 316.991C319.162 315.229 314.221 319.33 315.103 324.372L318.491 343.735C319.373 348.777 325.418 350.98 329.371 347.699L336.081 342.131L353.849 334.375C358.564 332.317 359.269 325.957 355.117 322.928L339.176 311.297Z" fill="#0A7650"/>
<path d="M364 339.617C364 352.744 353.291 363.386 340.081 363.386C326.871 363.386 316.162 352.744 316.162 339.617C316.162 326.489 326.871 315.847 340.081 315.847C353.291 315.847 364 326.489 364 339.617Z" fill="#82C9A0"/>
<path d="M344.263 383H335.565L336.993 339.783H342.445L344.263 383Z" fill="#263843"/>
<path d="M337.272 322.745C337.851 321.748 339.3 321.748 339.879 322.745C340.459 323.742 339.734 324.989 338.575 324.989C337.417 324.989 336.692 323.742 337.272 322.745Z" fill="#82C9A0"/>
<path d="M351.192 324.533C351.06 324.404 351.058 324.194 351.188 324.063C351.317 323.932 351.529 323.93 351.661 324.059L353.808 326.156C353.94 326.284 353.942 326.495 353.812 326.626C353.683 326.757 353.471 326.759 353.339 326.63L351.192 324.533Z" fill="#0A7650"/>
<path d="M335.134 330.517C335.002 330.388 335.001 330.178 335.13 330.047C335.26 329.916 335.471 329.914 335.603 330.042L337.751 332.14C337.882 332.268 337.884 332.479 337.755 332.61C337.625 332.741 337.413 332.742 337.282 332.614L335.134 330.517Z" fill="#0A7650"/>
<path d="M323.76 327.192C323.628 327.064 323.626 326.853 323.756 326.722C323.885 326.591 324.097 326.589 324.229 326.718L326.377 328.815C326.508 328.944 326.51 329.154 326.381 329.285C326.251 329.416 326.039 329.418 325.908 329.289L323.76 327.192Z" fill="#0A7650"/>
<path d="M331.24 335.031C331.37 334.901 331.582 334.901 331.713 335.031C331.843 335.161 331.843 335.372 331.713 335.501L329.584 337.617C329.453 337.747 329.241 337.747 329.111 337.617C328.98 337.487 328.98 337.277 329.111 337.147L331.24 335.031Z" fill="#0A7650"/>
<path d="M350.642 354.645C350.773 354.515 350.985 354.515 351.116 354.645C351.246 354.775 351.246 354.986 351.116 355.115L348.987 357.231C348.856 357.361 348.644 357.361 348.514 357.231C348.383 357.101 348.383 356.891 348.514 356.761L350.642 354.645Z" fill="#0A7650"/>
<path d="M330.905 320.404C331.036 320.274 331.247 320.274 331.378 320.404C331.509 320.534 331.509 320.744 331.378 320.874L329.249 322.99C329.119 323.119 328.907 323.119 328.776 322.99C328.645 322.86 328.645 322.649 328.776 322.519L330.905 320.404Z" fill="#0A7650"/>
<path d="M345.128 325.476C345.176 325.299 345.36 325.194 345.538 325.241C345.717 325.289 345.822 325.471 345.775 325.649L344.995 328.539C344.948 328.716 344.764 328.821 344.586 328.774C344.407 328.726 344.301 328.544 344.349 328.366L345.128 325.476Z" fill="#0A7650"/>
<path d="M332.082 343.761C332.129 343.583 332.313 343.478 332.491 343.526C332.67 343.573 332.776 343.755 332.728 343.933L331.949 346.823C331.901 347 331.717 347.105 331.539 347.058C331.36 347.01 331.255 346.828 331.302 346.651L332.082 343.761Z" fill="#0A7650"/>
<path d="M347.47 348.082C347.518 347.905 347.701 347.8 347.88 347.847C348.058 347.895 348.164 348.077 348.116 348.255L347.337 351.145C347.289 351.322 347.106 351.427 346.927 351.38C346.749 351.332 346.643 351.15 346.691 350.972L347.47 348.082Z" fill="#0A7650"/>
<path d="M352.823 332.79C352.87 332.613 353.054 332.508 353.232 332.555C353.411 332.603 353.517 332.785 353.469 332.962L352.69 335.852C352.642 336.03 352.458 336.135 352.28 336.087C352.101 336.04 351.996 335.858 352.043 335.68L352.823 332.79Z" fill="#0A7650"/>
<path d="M321.042 335.117C321.09 334.94 321.273 334.835 321.452 334.882C321.63 334.93 321.736 335.112 321.688 335.289L320.909 338.179C320.861 338.357 320.678 338.462 320.499 338.414C320.321 338.367 320.215 338.185 320.263 338.007L321.042 335.117Z" fill="#0A7650"/>
<path d="M356.837 345.755C356.885 345.578 357.068 345.473 357.247 345.52C357.425 345.568 357.531 345.75 357.483 345.927L356.704 348.817C356.656 348.995 356.473 349.1 356.294 349.053C356.116 349.005 356.01 348.823 356.058 348.645L356.837 345.755Z" fill="#0A7650"/>
<path d="M359.484 339.738C359.391 339.579 359.446 339.376 359.606 339.284C359.766 339.192 359.971 339.247 360.063 339.406L361.569 341.997C361.661 342.156 361.606 342.359 361.446 342.451C361.286 342.543 361.082 342.488 360.989 342.329L359.484 339.738Z" fill="#0A7650"/>
<path d="M357.811 330.43C357.719 330.271 357.774 330.068 357.934 329.976C358.094 329.884 358.298 329.938 358.391 330.097L359.896 332.689C359.988 332.848 359.934 333.051 359.774 333.143C359.614 333.234 359.409 333.18 359.317 333.021L357.811 330.43Z" fill="#0A7650"/>
<path d="M339.746 318.462C339.654 318.303 339.709 318.1 339.869 318.008C340.029 317.916 340.233 317.971 340.326 318.13L341.831 320.721C341.924 320.88 341.869 321.083 341.709 321.175C341.549 321.267 341.344 321.212 341.252 321.053L339.746 318.462Z" fill="#0A7650"/>
<path d="M339.746 318.462C339.654 318.303 339.709 318.1 339.869 318.008C340.029 317.916 340.233 317.971 340.326 318.13L341.831 320.721C341.924 320.88 341.869 321.083 341.709 321.175C341.549 321.267 341.344 321.212 341.252 321.053L339.746 318.462Z" fill="#0A7650"/>
<path d="M344.095 336.414C344.003 336.255 344.058 336.051 344.218 335.96C344.378 335.868 344.582 335.922 344.675 336.081L346.18 338.672C346.272 338.831 346.218 339.035 346.058 339.127C345.898 339.218 345.693 339.164 345.601 339.005L344.095 336.414Z" fill="#0A7650"/>
<path d="M330.379 354.698C330.287 354.539 330.342 354.336 330.502 354.244C330.662 354.152 330.866 354.207 330.959 354.366L332.464 356.957C332.557 357.116 332.502 357.319 332.342 357.411C332.182 357.503 331.977 357.448 331.885 357.289L330.379 354.698Z" fill="#0A7650"/>
<path d="M324.883 345.337C325.014 345.207 325.226 345.207 325.357 345.337C325.487 345.467 325.487 345.677 325.357 345.807L323.228 347.923C323.097 348.052 322.885 348.052 322.754 347.923C322.624 347.793 322.624 347.582 322.754 347.453L324.883 345.337Z" fill="#0A7650"/>
<path d="M352.65 340.683C352.78 340.553 352.992 340.553 353.123 340.683C353.253 340.813 353.253 341.023 353.123 341.153L350.994 343.268C350.863 343.398 350.651 343.398 350.521 343.268C350.39 343.139 350.39 342.928 350.521 342.798L352.65 340.683Z" fill="#0A7650"/>
<path d="M349.964 65.1505C343.101 60.1298 333.357 64.3947 332.425 72.8274L331.945 77.171L324.874 74.5876C316.881 71.6672 308.712 78.4644 310.17 86.8227L315.771 118.916C317.229 127.275 327.221 130.925 333.757 125.487L344.848 116.258L374.219 103.403C382.014 99.9906 383.179 89.4498 376.317 84.429L349.964 65.1505Z" fill="#0A7650"/>
<path d="M391 112.09C391 133.85 373.297 151.489 351.46 151.489C329.623 151.489 311.92 133.85 311.92 112.09C311.92 90.3311 329.623 72.6917 351.46 72.6917C373.297 72.6917 391 90.3311 391 112.09Z" fill="#82C9A0"/>
<path d="M358.373 184H343.995L346.355 112.366H355.368L358.373 184Z" fill="#263843"/>
<path d="M346.817 84.1256C347.774 82.4725 350.169 82.4725 351.127 84.1256C352.085 85.7787 350.887 87.845 348.972 87.845C347.056 87.845 345.859 85.7787 346.817 84.1256Z" fill="#82C9A0"/>
<path d="M369.827 87.0886C369.609 86.8753 369.606 86.5264 369.82 86.3093C370.035 86.0922 370.385 86.0892 370.602 86.3025L374.152 89.7785C374.37 89.9918 374.373 90.3407 374.159 90.5578C373.945 90.7748 373.595 90.7779 373.377 90.5646L369.827 87.0886Z" fill="#0A7650"/>
<path d="M343.283 97.0071C343.065 96.7938 343.062 96.4449 343.276 96.2279C343.49 96.0108 343.84 96.0078 344.058 96.2211L347.608 99.6971C347.826 99.9104 347.829 100.259 347.615 100.476C347.401 100.693 347.051 100.696 346.833 100.483L343.283 97.0071Z" fill="#0A7650"/>
<path d="M324.481 91.4968C324.263 91.2835 324.26 90.9346 324.474 90.7176C324.688 90.5005 325.038 90.4975 325.256 90.7108L328.806 94.1868C329.024 94.4001 329.027 94.7489 328.813 94.966C328.599 95.1831 328.249 95.1861 328.031 94.9728L324.481 91.4968Z" fill="#0A7650"/>
<path d="M336.845 104.49C337.061 104.275 337.411 104.275 337.627 104.49C337.843 104.705 337.843 105.054 337.627 105.269L334.108 108.776C333.892 108.991 333.542 108.991 333.326 108.776C333.11 108.561 333.11 108.212 333.326 107.997L336.845 104.49Z" fill="#0A7650"/>
<path d="M368.919 137.001C369.135 136.786 369.485 136.786 369.701 137.001C369.917 137.216 369.917 137.565 369.701 137.78L366.182 141.287C365.966 141.502 365.616 141.502 365.4 141.287C365.184 141.072 365.184 140.723 365.4 140.508L368.919 137.001Z" fill="#0A7650"/>
<path d="M336.292 80.2447C336.508 80.0295 336.858 80.0295 337.074 80.2447C337.29 80.4599 337.29 80.8088 337.074 81.024L333.555 84.5307C333.339 84.7459 332.989 84.7459 332.773 84.5307C332.557 84.3155 332.557 83.9666 332.773 83.7514L336.292 80.2447Z" fill="#0A7650"/>
<path d="M359.804 88.6528C359.883 88.3588 360.186 88.1844 360.481 88.2632C360.776 88.3419 360.951 88.6441 360.872 88.938L359.584 93.7283C359.505 94.0223 359.202 94.1967 358.907 94.118C358.612 94.0392 358.437 93.737 358.516 93.4431L359.804 88.6528Z" fill="#0A7650"/>
<path d="M338.237 118.96C338.316 118.666 338.619 118.491 338.914 118.57C339.209 118.649 339.384 118.951 339.305 119.245L338.017 124.035C337.938 124.329 337.635 124.503 337.34 124.425C337.045 124.346 336.87 124.044 336.949 123.75L338.237 118.96Z" fill="#0A7650"/>
<path d="M363.675 126.123C363.754 125.829 364.057 125.655 364.352 125.733C364.647 125.812 364.822 126.114 364.743 126.408L363.455 131.198C363.376 131.492 363.073 131.667 362.778 131.588C362.483 131.509 362.308 131.207 362.387 130.913L363.675 126.123Z" fill="#0A7650"/>
<path d="M372.523 100.775C372.602 100.482 372.905 100.307 373.2 100.386C373.495 100.465 373.671 100.767 373.591 101.061L372.303 105.851C372.224 106.145 371.921 106.319 371.626 106.241C371.331 106.162 371.156 105.86 371.235 105.566L372.523 100.775Z" fill="#0A7650"/>
<path d="M319.988 104.633C320.067 104.339 320.37 104.164 320.665 104.243C320.96 104.322 321.135 104.624 321.056 104.918L319.768 109.708C319.689 110.002 319.386 110.177 319.091 110.098C318.796 110.019 318.621 109.717 318.7 109.423L319.988 104.633Z" fill="#0A7650"/>
<path d="M379.159 122.266C379.238 121.972 379.541 121.797 379.836 121.876C380.132 121.955 380.307 122.257 380.228 122.551L378.939 127.341C378.86 127.635 378.557 127.81 378.262 127.731C377.967 127.652 377.792 127.35 377.871 127.056L379.159 122.266Z" fill="#0A7650"/>
<path d="M383.534 112.292C383.382 112.029 383.472 111.692 383.737 111.539C384.001 111.387 384.34 111.478 384.492 111.741L386.981 116.036C387.134 116.299 387.043 116.636 386.778 116.789C386.514 116.941 386.176 116.851 386.023 116.587L383.534 112.292Z" fill="#0A7650"/>
<path d="M380.769 96.8632C380.617 96.5997 380.707 96.2627 380.972 96.1105C381.236 95.9583 381.575 96.0486 381.727 96.3122L384.216 100.607C384.368 100.871 384.278 101.208 384.013 101.36C383.749 101.512 383.411 101.422 383.258 101.158L380.769 96.8632Z" fill="#0A7650"/>
<path d="M350.907 77.0261C350.755 76.7625 350.845 76.4255 351.11 76.2734C351.374 76.1212 351.712 76.2115 351.865 76.4751L354.354 80.7699C354.506 81.0335 354.416 81.3705 354.151 81.5226C353.887 81.6748 353.548 81.5845 353.396 81.321L350.907 77.0261Z" fill="#0A7650"/>
<path d="M350.907 77.0261C350.755 76.7625 350.845 76.4255 351.11 76.2734C351.374 76.1212 351.712 76.2115 351.865 76.4751L354.354 80.7699C354.506 81.0335 354.416 81.3705 354.151 81.5226C353.887 81.6748 353.548 81.5845 353.396 81.321L350.907 77.0261Z" fill="#0A7650"/>
<path d="M358.096 106.782C357.944 106.518 358.034 106.181 358.299 106.029C358.563 105.877 358.901 105.967 359.054 106.231L361.543 110.526C361.695 110.789 361.605 111.126 361.34 111.278C361.076 111.431 360.738 111.34 360.585 111.077L358.096 106.782Z" fill="#0A7650"/>
<path d="M335.423 137.089C335.27 136.825 335.361 136.488 335.626 136.336C335.89 136.184 336.228 136.274 336.381 136.537L338.869 140.832C339.022 141.096 338.932 141.433 338.667 141.585C338.403 141.737 338.064 141.647 337.912 141.383L335.423 137.089Z" fill="#0A7650"/>
<path d="M326.338 121.572C326.554 121.357 326.904 121.357 327.12 121.572C327.336 121.787 327.336 122.136 327.12 122.351L323.601 125.858C323.385 126.073 323.035 126.073 322.819 125.858C322.603 125.643 322.603 125.294 322.819 125.079L326.338 121.572Z" fill="#0A7650"/>
<path d="M372.237 113.858C372.453 113.642 372.803 113.642 373.019 113.858C373.235 114.073 373.235 114.422 373.019 114.637L369.5 118.144C369.284 118.359 368.934 118.359 368.718 118.144C368.502 117.928 368.502 117.58 368.718 117.364L372.237 113.858Z" fill="#0A7650"/>
<path d="M283.796 306.072C283.797 305.991 283.797 305.91 283.797 305.828C283.797 293.221 273.682 283 261.205 283C248.727 283 238.612 293.221 238.612 305.828C238.612 317.065 246.646 326.405 257.226 328.304C259.513 336.169 266.71 341.912 275.234 341.912C285.598 341.912 294 333.422 294 322.95C294 315.594 289.855 309.216 283.796 306.072Z" fill="#0A7650"/>
<path d="M255.075 294.046C257.88 289.137 264.893 289.137 267.698 294.046L292.786 337.954C295.591 342.863 292.085 349 286.475 349H261.387H236.299C230.689 349 227.182 342.863 229.987 337.954L255.075 294.046Z" fill="#82C9A0"/>
<path d="M265.942 371H256.468L258.023 323.134H263.962L265.942 371Z" fill="#263843"/>
<path d="M261.569 307.485C261.569 309.01 260.345 310.247 258.836 310.247C257.327 310.247 256.103 309.01 256.103 307.485C256.103 305.96 257.327 304.724 258.836 304.724C260.345 304.724 261.569 305.96 261.569 307.485Z" fill="#0A7650"/>
<path d="M265.213 299.385C265.213 300.91 263.989 302.146 262.48 302.146C260.971 302.146 259.747 300.91 259.747 299.385C259.747 297.86 260.971 296.623 262.48 296.623C263.989 296.623 265.213 297.86 265.213 299.385Z" fill="#0A7650"/>
<path d="M271.772 309.695C271.772 311.22 270.548 312.456 269.039 312.456C267.53 312.456 266.306 311.22 266.306 309.695C266.306 308.169 267.53 306.933 269.039 306.933C270.548 306.933 271.772 308.169 271.772 309.695Z" fill="#0A7650"/>
<path d="M253.917 312.088C253.917 313.105 253.101 313.929 252.095 313.929C251.089 313.929 250.273 313.105 250.273 312.088C250.273 311.071 251.089 310.247 252.095 310.247C253.101 310.247 253.917 311.071 253.917 312.088Z" fill="#0A7650"/>
<path d="M258.654 316.506C258.654 317.523 257.838 318.347 256.832 318.347C255.826 318.347 255.01 317.523 255.01 316.506C255.01 315.49 255.826 314.665 256.832 314.665C257.838 314.665 258.654 315.49 258.654 316.506Z" fill="#0A7650"/>
<path d="M267.035 317.611C267.035 318.628 266.219 319.452 265.213 319.452C264.207 319.452 263.391 318.628 263.391 317.611C263.391 316.594 264.207 315.77 265.213 315.77C266.219 315.77 267.035 316.594 267.035 317.611Z" fill="#0A7650"/>
<path d="M276.145 313.929C276.145 314.946 275.329 315.77 274.323 315.77C273.317 315.77 272.501 314.946 272.501 313.929C272.501 312.912 273.317 312.088 274.323 312.088C275.329 312.088 276.145 312.912 276.145 313.929Z" fill="#0A7650"/>
<path d="M249.544 316.506C249.544 317.523 248.728 318.347 247.722 318.347C246.716 318.347 245.9 317.523 245.9 316.506C245.9 315.49 246.716 314.665 247.722 314.665C248.728 314.665 249.544 315.49 249.544 316.506Z" fill="#0A7650"/>
<path d="M253.917 322.029C253.917 322.639 253.427 323.134 252.824 323.134C252.22 323.134 251.73 322.639 251.73 322.029C251.73 321.419 252.22 320.925 252.824 320.925C253.427 320.925 253.917 321.419 253.917 322.029Z" fill="#0A7650"/>
<path d="M273.594 320.925C273.594 321.535 273.105 322.029 272.501 322.029C271.897 322.029 271.408 321.535 271.408 320.925C271.408 320.315 271.897 319.82 272.501 319.82C273.105 319.82 273.594 320.315 273.594 320.925Z" fill="#0A7650"/>
<path d="M269.95 328.289C269.95 328.899 269.461 329.393 268.857 329.393C268.253 329.393 267.764 328.899 267.764 328.289C267.764 327.679 268.253 327.184 268.857 327.184C269.461 327.184 269.95 327.679 269.95 328.289Z" fill="#0A7650"/>
<path d="M244.443 323.134C244.443 323.744 243.953 324.238 243.349 324.238C242.746 324.238 242.256 323.744 242.256 323.134C242.256 322.524 242.746 322.029 243.349 322.029C243.953 322.029 244.443 322.524 244.443 323.134Z" fill="#0A7650"/>
<path d="M280.153 324.238C280.153 324.849 279.664 325.343 279.06 325.343C278.456 325.343 277.967 324.849 277.967 324.238C277.967 323.628 278.456 323.134 279.06 323.134C279.664 323.134 280.153 323.628 280.153 324.238Z" fill="#0A7650"/>
<path d="M241.163 333.259C241.163 333.564 240.918 333.812 240.616 333.812C240.315 333.812 240.07 333.564 240.07 333.259C240.07 332.954 240.315 332.707 240.616 332.707C240.918 332.707 241.163 332.954 241.163 333.259Z" fill="#0A7650"/>
<path d="M253.917 333.996C253.917 334.301 253.672 334.548 253.37 334.548C253.068 334.548 252.824 334.301 252.824 333.996C252.824 333.691 253.068 333.444 253.37 333.444C253.672 333.444 253.917 333.691 253.917 333.996Z" fill="#0A7650"/>
<path d="M249.544 330.314C249.544 330.619 249.299 330.866 248.997 330.866C248.696 330.866 248.451 330.619 248.451 330.314C248.451 330.009 248.696 329.762 248.997 329.762C249.299 329.762 249.544 330.009 249.544 330.314Z" fill="#0A7650"/>
<path d="M275.052 330.682C275.052 330.987 274.807 331.234 274.505 331.234C274.203 331.234 273.958 330.987 273.958 330.682C273.958 330.377 274.203 330.13 274.505 330.13C274.807 330.13 275.052 330.377 275.052 330.682Z" fill="#0A7650"/>
<path d="M114.871 44.7234C114.872 44.6121 114.873 44.5007 114.873 44.3891C114.873 27.0534 100.867 13 83.591 13C66.3146 13 52.3093 27.0534 52.3093 44.3891C52.3093 59.8388 63.433 72.6815 78.0822 75.2931C81.2486 86.108 91.2133 94.0042 103.016 94.0042C117.367 94.0042 129 82.3308 129 67.931C129 57.8164 123.26 49.0471 114.871 44.7234Z" fill="#0A7650"/>
<path d="M75.1043 28.1883C78.9883 21.4379 88.6983 21.4379 92.5823 28.1883L127.32 88.5617C131.204 95.3121 126.349 103.75 118.581 103.75H83.8433H49.1059C41.338 103.75 36.483 95.3121 40.367 88.5617L75.1043 28.1883Z" fill="#82C9A0"/>
<path d="M90.1501 134H77.032L79.1857 68.1841H87.409L90.1501 134Z" fill="#263843"/>
<path d="M84.0956 46.6674C84.0956 48.7644 82.4014 50.4644 80.3115 50.4644C78.2216 50.4644 76.5274 48.7644 76.5274 46.6674C76.5274 44.5703 78.2216 42.8703 80.3115 42.8703C82.4014 42.8703 84.0956 44.5703 84.0956 46.6674Z" fill="#0A7650"/>
<path d="M89.141 35.5293C89.141 37.6264 87.4468 39.3264 85.3569 39.3264C83.267 39.3264 81.5728 37.6264 81.5728 35.5293C81.5728 33.4322 83.267 31.7322 85.3569 31.7322C87.4468 31.7322 89.141 33.4322 89.141 35.5293Z" fill="#0A7650"/>
<path d="M98.2228 49.705C98.2228 51.8021 96.5286 53.5021 94.4387 53.5021C92.3488 53.5021 90.6546 51.8021 90.6546 49.705C90.6546 47.608 92.3488 45.908 94.4387 45.908C96.5286 45.908 98.2228 47.608 98.2228 49.705Z" fill="#0A7650"/>
<path d="M73.5001 52.9958C73.5001 54.3939 72.3707 55.5272 70.9774 55.5272C69.5842 55.5272 68.4547 54.3939 68.4547 52.9958C68.4547 51.5978 69.5842 50.4644 70.9774 50.4644C72.3707 50.4644 73.5001 51.5978 73.5001 52.9958Z" fill="#0A7650"/>
<path d="M80.0592 59.0711C80.0592 60.4692 78.9298 61.6025 77.5365 61.6025C76.1432 61.6025 75.0138 60.4692 75.0138 59.0711C75.0138 57.6731 76.1432 56.5398 77.5365 56.5398C78.9298 56.5398 80.0592 57.6731 80.0592 59.0711Z" fill="#0A7650"/>
<path d="M91.6637 60.59C91.6637 61.988 90.5343 63.1213 89.141 63.1213C87.7478 63.1213 86.6183 61.988 86.6183 60.59C86.6183 59.1919 87.7478 58.0586 89.141 58.0586C90.5343 58.0586 91.6637 59.1919 91.6637 60.59Z" fill="#0A7650"/>
<path d="M104.277 55.5272C104.277 56.9252 103.148 58.0586 101.755 58.0586C100.361 58.0586 99.2319 56.9252 99.2319 55.5272C99.2319 54.1292 100.361 52.9958 101.755 52.9958C103.148 52.9958 104.277 54.1292 104.277 55.5272Z" fill="#0A7650"/>
<path d="M67.4456 59.0711C67.4456 60.4692 66.3162 61.6025 64.9229 61.6025C63.5296 61.6025 62.4002 60.4692 62.4002 59.0711C62.4002 57.6731 63.5296 56.5398 64.9229 56.5398C66.3162 56.5398 67.4456 57.6731 67.4456 59.0711Z" fill="#0A7650"/>
<path d="M73.5001 66.6653C73.5001 67.5041 72.8225 68.1841 71.9865 68.1841C71.1506 68.1841 70.4729 67.5041 70.4729 66.6653C70.4729 65.8264 71.1506 65.1464 71.9865 65.1464C72.8225 65.1464 73.5001 65.8264 73.5001 66.6653Z" fill="#0A7650"/>
<path d="M100.746 65.1464C100.746 65.9853 100.068 66.6653 99.2319 66.6653C98.3959 66.6653 97.7183 65.9853 97.7183 65.1464C97.7183 64.3076 98.3959 63.6276 99.2319 63.6276C100.068 63.6276 100.746 64.3076 100.746 65.1464Z" fill="#0A7650"/>
<path d="M95.7001 75.272C95.7001 76.1108 95.0224 76.7908 94.1865 76.7908C93.3505 76.7908 92.6728 76.1108 92.6728 75.272C92.6728 74.4331 93.3505 73.7531 94.1865 73.7531C95.0224 73.7531 95.7001 74.4331 95.7001 75.272Z" fill="#0A7650"/>
<path d="M60.382 68.1841C60.382 69.0229 59.7043 69.7029 58.8684 69.7029C58.0324 69.7029 57.3547 69.0229 57.3547 68.1841C57.3547 67.3453 58.0324 66.6653 58.8684 66.6653C59.7043 66.6653 60.382 67.3453 60.382 68.1841Z" fill="#0A7650"/>
<path d="M109.827 69.7029C109.827 70.5418 109.15 71.2218 108.314 71.2218C107.478 71.2218 106.8 70.5418 106.8 69.7029C106.8 68.8641 107.478 68.1841 108.314 68.1841C109.15 68.1841 109.827 68.8641 109.827 69.7029Z" fill="#0A7650"/>
<path d="M55.8411 82.1067C55.8411 82.5261 55.5023 82.8661 55.0843 82.8661C54.6663 82.8661 54.3275 82.5261 54.3275 82.1067C54.3275 81.6873 54.6663 81.3473 55.0843 81.3473C55.5023 81.3473 55.8411 81.6873 55.8411 82.1067Z" fill="#0A7650"/>
<path d="M73.5001 83.1193C73.5001 83.5387 73.1613 83.8787 72.7433 83.8787C72.3254 83.8787 71.9865 83.5387 71.9865 83.1193C71.9865 82.6998 72.3254 82.3598 72.7433 82.3598C73.1613 82.3598 73.5001 82.6998 73.5001 83.1193Z" fill="#0A7650"/>
<path d="M67.4456 78.0565C67.4456 78.4759 67.1068 78.8159 66.6888 78.8159C66.2708 78.8159 65.932 78.4759 65.932 78.0565C65.932 77.6371 66.2708 77.2971 66.6888 77.2971C67.1068 77.2971 67.4456 77.6371 67.4456 78.0565Z" fill="#0A7650"/>
<path d="M102.764 78.5628C102.764 78.9822 102.425 79.3222 102.007 79.3222C101.589 79.3222 101.25 78.9822 101.25 78.5628C101.25 78.1434 101.589 77.8034 102.007 77.8034C102.425 77.8034 102.764 78.1434 102.764 78.5628Z" fill="#0A7650"/>
<path fill-rule="evenodd" clip-rule="evenodd" d="M336.484 378.365C336.154 372.033 330.915 367 324.5 367C317.915 367 312.569 372.304 312.501 378.873C311.111 378.31 309.592 378 308 378C301.373 378 296 383.373 296 390C296 396.627 301.373 402 308 402C311.65 402 314.919 400.371 317.12 397.799C320.651 400.371 325.895 402 331.75 402C342.381 402 351 396.627 351 390C351 384.391 344.826 379.68 336.484 378.365Z" fill="#0A7650"/>
<path fill-rule="evenodd" clip-rule="evenodd" d="M79.8442 126.432C79.4543 118.948 73.2627 113 65.6818 113C57.8997 113 51.5816 119.268 51.5008 127.031C49.8583 126.366 48.0628 126 46.1818 126C38.3494 126 32 132.349 32 140.182C32 148.014 38.3494 154.364 46.1818 154.364C50.4953 154.364 54.3589 152.438 56.96 149.399C61.1325 152.438 67.3305 154.364 74.25 154.364C86.8145 154.364 97 148.014 97 140.182C97 133.553 89.7037 127.986 79.8442 126.432Z" fill="#0A7650"/>
<path fill-rule="evenodd" clip-rule="evenodd" d="M189.844 365.432C189.454 357.948 183.263 352 175.682 352C167.9 352 161.582 358.268 161.501 366.031C159.858 365.366 158.063 365 156.182 365C148.349 365 142 371.349 142 379.182C142 387.014 148.349 393.364 156.182 393.364C160.495 393.364 164.359 391.438 166.96 388.399C171.133 391.438 177.331 393.364 184.25 393.364C196.814 393.364 207 387.014 207 379.182C207 372.553 199.704 366.986 189.844 365.432Z" fill="#0A7650"/>
<path d="M350.418 206.631C350.811 209.84 355.197 210.599 359.664 209.859C361.422 208.639 363.417 208.201 365.213 208.124L365.868 202.983C361.005 200.159 351.007 201.028 350.43 205.555C350.382 205.912 350.379 206.273 350.421 206.631L350.418 206.631ZM367.336 208.257L368.001 203.023C377.605 201.997 374.553 212.312 367.336 208.257ZM392.098 209.168C392.056 208.811 392.059 208.449 392.107 208.092C392.684 203.565 402.682 202.696 407.545 205.52L406.89 210.661C405.094 210.738 403.1 211.177 401.341 212.396C396.874 213.137 392.488 212.377 392.095 209.168L392.098 209.168ZM409.017 210.794L409.681 205.561C419.281 204.537 416.231 214.851 409.015 210.792L409.017 210.794ZM369.097 225.445C369.269 222.217 373.592 221.16 378.098 221.591C379.935 222.686 381.956 222.988 383.752 222.942L384.76 228.03C380.101 231.18 370.067 230.998 369.182 226.521C369.11 226.168 369.082 225.808 369.099 225.448L369.097 225.445ZM385.864 222.665C392.785 218.124 396.535 228.206 386.885 227.838L385.864 222.665ZM328.209 219.998C329.177 216.914 333.621 216.966 337.881 218.492C339.389 220.01 341.278 220.798 343.024 221.202L342.736 226.377C337.446 228.28 327.764 225.62 328.022 221.061C328.039 220.701 328.101 220.345 328.206 220.001L328.209 219.998ZM345.139 221.461C352.97 218.776 354.105 229.474 344.846 226.727L345.14 221.462L345.139 221.461Z" fill="#544533"/>
<path d="M245.211 206.631C245.604 209.84 249.99 210.599 254.457 209.859C256.215 208.639 258.21 208.201 260.006 208.124L260.661 202.983C255.798 200.159 245.8 201.028 245.223 205.555C245.175 205.912 245.172 206.273 245.214 206.631L245.211 206.631ZM262.129 208.257L262.794 203.023C272.398 201.997 269.345 212.312 262.129 208.257ZM286.891 209.168C286.849 208.811 286.852 208.449 286.9 208.092C287.477 203.565 297.475 202.696 302.338 205.52L301.683 210.661C299.887 210.738 297.893 211.177 296.134 212.396C291.667 213.137 287.281 212.377 286.888 209.168L286.891 209.168ZM303.81 210.794L304.474 205.561C314.074 204.537 311.023 214.851 303.808 210.792L303.81 210.794ZM263.89 225.445C264.061 222.217 268.385 221.16 272.891 221.591C274.728 222.686 276.749 222.988 278.545 222.942L279.553 228.03C274.894 231.18 264.86 230.998 263.975 226.521C263.903 226.168 263.875 225.808 263.892 225.448L263.89 225.445ZM280.657 222.665C287.578 218.124 291.328 228.206 281.678 227.838L280.657 222.665ZM223.002 219.998C223.97 216.914 228.414 216.966 232.674 218.492C234.182 220.01 236.071 220.798 237.817 221.202L237.529 226.377C232.239 228.28 222.557 225.62 222.815 221.061C222.832 220.701 222.894 220.345 222.999 220.001L223.002 219.998ZM239.932 221.461C247.763 218.776 248.898 229.474 239.639 226.727L239.933 221.462L239.932 221.461Z" fill="#544533"/>
<path d="M140.004 206.631C140.397 209.84 144.783 210.599 149.25 209.859C151.008 208.639 153.003 208.201 154.799 208.124L155.454 202.983C150.591 200.159 140.593 201.028 140.016 205.555C139.968 205.912 139.965 206.273 140.007 206.631L140.004 206.631ZM156.922 208.257L157.587 203.023C167.19 201.997 164.138 212.312 156.922 208.257ZM181.684 209.168C181.642 208.811 181.645 208.449 181.693 208.092C182.27 203.565 192.268 202.696 197.131 205.52L196.476 210.661C194.68 210.738 192.686 211.177 190.927 212.396C186.46 213.137 182.074 212.377 181.681 209.168L181.684 209.168ZM198.603 210.794L199.267 205.561C208.867 204.537 205.816 214.851 198.601 210.792L198.603 210.794ZM158.683 225.445C158.854 222.217 163.178 221.16 167.684 221.591C169.521 222.686 171.542 222.988 173.338 222.942L174.346 228.03C169.687 231.18 159.653 230.998 158.768 226.521C158.696 226.168 158.668 225.808 158.685 225.448L158.683 225.445ZM175.45 222.665C182.371 218.124 186.121 228.206 176.471 227.838L175.45 222.665ZM117.795 219.998C118.763 216.914 123.207 216.966 127.467 218.492C128.975 220.01 130.864 220.798 132.61 221.202L132.322 226.377C127.032 228.28 117.35 225.62 117.608 221.061C117.625 220.701 117.687 220.345 117.792 220.001L117.795 219.998ZM134.725 221.461C142.556 218.776 143.691 229.474 134.432 226.727L134.726 221.462L134.725 221.461Z" fill="#544533"/>
<path d="M34.7969 206.631C35.1898 209.84 39.5759 210.599 44.0429 209.859C45.8009 208.639 47.7962 208.201 49.5921 208.124L50.2472 202.983C45.3842 200.159 35.386 201.028 34.8089 205.555C34.7611 205.912 34.758 206.273 34.7997 206.631L34.7969 206.631ZM51.7154 208.257L52.3804 203.023C61.9834 201.997 58.9314 212.312 51.7154 208.257ZM76.4768 209.168C76.4351 208.811 76.4383 208.449 76.4861 208.092C77.0631 203.565 87.061 202.696 91.9242 205.52L91.2691 210.661C89.4732 210.738 87.4791 211.177 85.7197 212.396C81.253 213.137 76.8669 212.377 76.4737 209.168L76.4768 209.168ZM93.3955 210.794L94.06 205.561C103.66 204.537 100.609 214.851 93.394 210.792L93.3955 210.794ZM53.4756 225.445C53.6474 222.217 57.9712 221.16 62.4768 221.591C64.3141 222.686 66.3348 222.988 68.1311 222.942L69.1391 228.03C64.48 231.18 54.4462 230.998 53.5612 226.521C53.4889 226.168 53.4609 225.808 53.4778 225.448L53.4756 225.445ZM70.2431 222.665C77.1642 218.124 80.9144 228.206 71.2641 227.838L70.2431 222.665ZM12.5883 219.998C13.5562 216.914 17.9996 216.966 22.26 218.492C23.7678 220.01 25.6568 220.798 27.4027 221.202L27.1149 226.377C21.8254 228.28 12.1432 225.62 12.401 221.061C12.4179 220.701 12.4796 220.345 12.5847 220.001L12.5883 219.998ZM29.518 221.461C37.3488 218.776 38.4844 229.474 29.2251 226.727L29.5192 221.462L29.518 221.461Z" fill="#544533"/>
<circle cx="214.5" cy="215.5" r="62.5" fill="white"/>
<path d="M187 214.833L207.833 235.667L242.556 194" stroke="#0A7650" stroke-width="10"/>
</svg>
