<svg width="429" height="429" viewBox="0 0 429 429" fill="none" xmlns="http://www.w3.org/2000/svg">
<rect width="429" height="429" fill="#49A772"/>
<rect y="184" width="245" height="61" fill="#99775E"/>
<rect x="184" y="429" width="245" height="61" transform="rotate(-90 184 429)" fill="#99775E"/>
<path d="M346.951 272.186C339.919 267.082 329.934 271.418 328.979 279.99L328.487 284.405L321.241 281.779C313.05 278.81 304.68 285.72 306.174 294.216L311.913 326.841C313.408 335.337 323.647 339.048 330.343 333.52L341.709 324.138L371.805 311.07C379.792 307.602 380.986 296.887 373.954 291.783L346.951 272.186Z" fill="#0A7650"/>
<path d="M389 319.902C389 342.021 370.86 359.952 348.484 359.952C326.108 359.952 307.968 342.021 307.968 319.902C307.968 297.783 326.108 279.852 348.484 279.852C370.86 279.852 389 297.783 389 319.902Z" fill="#82C9A0"/>
<path d="M355.567 393H340.834L343.253 320.182H352.489L355.567 393Z" fill="#263843"/>
<path d="M343.726 291.475C344.707 289.794 347.161 289.794 348.142 291.475C349.124 293.155 347.897 295.256 345.934 295.256C343.971 295.256 342.744 293.155 343.726 291.475Z" fill="#82C9A0"/>
<path d="M367.305 294.487C367.081 294.27 367.078 293.915 367.298 293.695C367.517 293.474 367.876 293.471 368.099 293.688L371.736 297.221C371.96 297.438 371.963 297.793 371.743 298.013C371.524 298.234 371.165 298.237 370.942 298.02L367.305 294.487Z" fill="#0A7650"/>
<path d="M340.105 304.569C339.882 304.352 339.879 303.998 340.098 303.777C340.317 303.556 340.676 303.553 340.899 303.77L344.537 307.304C344.76 307.52 344.763 307.875 344.544 308.096C344.324 308.316 343.966 308.32 343.742 308.103L340.105 304.569Z" fill="#0A7650"/>
<path d="M320.839 298.968C320.615 298.751 320.612 298.396 320.832 298.176C321.051 297.955 321.41 297.952 321.633 298.169L325.27 301.702C325.494 301.919 325.497 302.274 325.277 302.494C325.058 302.715 324.699 302.718 324.476 302.501L320.839 298.968Z" fill="#0A7650"/>
<path d="M333.508 312.176C333.729 311.957 334.088 311.957 334.309 312.176C334.53 312.395 334.53 312.749 334.309 312.968L330.703 316.533C330.482 316.751 330.123 316.751 329.902 316.533C329.68 316.314 329.68 315.959 329.902 315.741L333.508 312.176Z" fill="#0A7650"/>
<path d="M366.374 345.224C366.595 345.005 366.954 345.005 367.175 345.224C367.397 345.443 367.397 345.798 367.175 346.016L363.569 349.581C363.348 349.8 362.989 349.8 362.768 349.581C362.546 349.362 362.546 349.008 362.768 348.789L366.374 345.224Z" fill="#0A7650"/>
<path d="M332.941 287.53C333.162 287.311 333.521 287.311 333.743 287.53C333.964 287.748 333.964 288.103 333.743 288.322L330.136 291.887C329.915 292.105 329.556 292.105 329.335 291.887C329.114 291.668 329.114 291.313 329.335 291.094L332.941 287.53Z" fill="#0A7650"/>
<path d="M357.034 296.077C357.115 295.778 357.426 295.601 357.728 295.681C358.03 295.761 358.21 296.068 358.129 296.367L356.809 301.236C356.728 301.535 356.417 301.712 356.115 301.632C355.812 301.552 355.633 301.245 355.714 300.946L357.034 296.077Z" fill="#0A7650"/>
<path d="M334.934 326.884C335.015 326.586 335.326 326.408 335.628 326.488C335.93 326.568 336.11 326.876 336.029 327.174L334.709 332.044C334.628 332.343 334.317 332.52 334.015 332.44C333.713 332.36 333.533 332.053 333.614 331.754L334.934 326.884Z" fill="#0A7650"/>
<path d="M361 334.166C361.081 333.867 361.392 333.69 361.694 333.77C361.997 333.85 362.176 334.157 362.095 334.456L360.775 339.326C360.694 339.625 360.383 339.802 360.081 339.722C359.779 339.642 359.599 339.335 359.68 339.036L361 334.166Z" fill="#0A7650"/>
<path d="M370.067 308.4C370.148 308.101 370.459 307.924 370.761 308.004C371.063 308.084 371.243 308.391 371.162 308.69L369.842 313.559C369.761 313.858 369.45 314.035 369.148 313.955C368.845 313.875 368.666 313.568 368.747 313.269L370.067 308.4Z" fill="#0A7650"/>
<path d="M316.234 312.321C316.315 312.022 316.626 311.845 316.928 311.925C317.231 312.005 317.41 312.312 317.329 312.611L316.009 317.48C315.928 317.779 315.617 317.956 315.315 317.876C315.013 317.796 314.833 317.489 314.914 317.19L316.234 312.321Z" fill="#0A7650"/>
<path d="M376.867 330.245C376.948 329.946 377.259 329.769 377.561 329.849C377.863 329.929 378.043 330.236 377.962 330.535L376.642 335.405C376.561 335.704 376.25 335.881 375.948 335.801C375.645 335.721 375.466 335.414 375.547 335.115L376.867 330.245Z" fill="#0A7650"/>
<path d="M381.35 320.107C381.194 319.839 381.286 319.496 381.558 319.342C381.829 319.187 382.175 319.279 382.332 319.547L384.882 323.913C385.038 324.18 384.945 324.523 384.674 324.678C384.403 324.832 384.057 324.741 383.9 324.473L381.35 320.107Z" fill="#0A7650"/>
<path d="M378.517 304.423C378.36 304.155 378.453 303.812 378.724 303.658C378.995 303.503 379.342 303.595 379.498 303.863L382.048 308.229C382.205 308.497 382.112 308.839 381.841 308.994C381.57 309.148 381.223 309.057 381.067 308.789L378.517 304.423Z" fill="#0A7650"/>
<path d="M347.917 284.258C347.761 283.99 347.854 283.647 348.125 283.493C348.396 283.338 348.742 283.43 348.899 283.698L351.449 288.064C351.605 288.332 351.512 288.674 351.241 288.829C350.97 288.983 350.624 288.892 350.467 288.624L347.917 284.258Z" fill="#0A7650"/>
<path d="M347.917 284.258C347.761 283.99 347.854 283.647 348.125 283.493C348.396 283.338 348.742 283.43 348.899 283.698L351.449 288.064C351.605 288.332 351.512 288.674 351.241 288.829C350.97 288.983 350.624 288.892 350.467 288.624L347.917 284.258Z" fill="#0A7650"/>
<path d="M355.284 314.505C355.127 314.238 355.22 313.895 355.491 313.74C355.762 313.586 356.109 313.677 356.265 313.945L358.815 318.311C358.972 318.579 358.879 318.922 358.608 319.076C358.337 319.231 357.99 319.139 357.834 318.871L355.284 314.505Z" fill="#0A7650"/>
<path d="M332.051 345.313C331.894 345.045 331.987 344.703 332.258 344.548C332.529 344.393 332.876 344.485 333.032 344.753L335.582 349.119C335.739 349.387 335.646 349.729 335.375 349.884C335.104 350.039 334.757 349.947 334.601 349.679L332.051 345.313Z" fill="#0A7650"/>
<path d="M322.741 329.54C322.963 329.321 323.321 329.321 323.543 329.54C323.764 329.759 323.764 330.114 323.543 330.332L319.936 333.897C319.715 334.116 319.356 334.116 319.135 333.897C318.914 333.678 318.914 333.324 319.135 333.105L322.741 329.54Z" fill="#0A7650"/>
<path d="M369.774 321.698C369.995 321.479 370.354 321.479 370.575 321.698C370.797 321.917 370.797 322.272 370.575 322.49L366.969 326.055C366.748 326.274 366.389 326.274 366.168 326.055C365.946 325.836 365.946 325.482 366.168 325.263L369.774 321.698Z" fill="#0A7650"/>
<path d="M77.9644 65.1505C71.1014 60.1298 61.3575 64.3947 60.4253 72.8274L59.9451 77.171L52.8742 74.5876C44.8806 71.6672 36.7117 78.4644 38.1703 86.8227L43.7708 118.916C45.2294 127.275 55.2214 130.925 61.7565 125.487L72.8484 116.258L102.219 103.403C110.014 99.9906 111.179 89.4498 104.317 84.429L77.9644 65.1505Z" fill="#0A7650"/>
<path d="M119 112.09C119 133.85 101.297 151.489 79.4602 151.489C57.623 151.489 39.9205 133.85 39.9205 112.09C39.9205 90.3311 57.623 72.6917 79.4602 72.6917C101.297 72.6917 119 90.3311 119 112.09Z" fill="#82C9A0"/>
<path d="M86.3728 184H71.9947L74.3553 112.366H83.3684L86.3728 184Z" fill="#263843"/>
<path d="M74.8166 84.1256C75.7744 82.4725 78.169 82.4725 79.1268 84.1256C80.0847 85.7787 78.8874 87.845 76.9717 87.845C75.0561 87.845 73.8588 85.7787 74.8166 84.1256Z" fill="#82C9A0"/>
<path d="M97.8273 87.0886C97.6094 86.8752 97.6064 86.5264 97.8205 86.3093C98.0345 86.0922 98.3847 86.0892 98.6025 86.3025L102.152 89.7785C102.37 89.9918 102.373 90.3407 102.159 90.5578C101.945 90.7748 101.595 90.7779 101.377 90.5646L97.8273 87.0886Z" fill="#0A7650"/>
<path d="M71.2831 97.0071C71.0653 96.7938 71.0622 96.4449 71.2763 96.2279C71.4904 96.0108 71.8405 96.0078 72.0583 96.2211L75.6082 99.6971C75.826 99.9104 75.8291 100.259 75.615 100.476C75.401 100.693 75.0508 100.696 74.833 100.483L71.2831 97.0071Z" fill="#0A7650"/>
<path d="M52.481 91.4968C52.2631 91.2835 52.2601 90.9346 52.4742 90.7176C52.6882 90.5005 53.0384 90.4975 53.2562 90.7108L56.8061 94.1868C57.0239 94.4001 57.027 94.7489 56.8129 94.966C56.5988 95.1831 56.2487 95.1861 56.0309 94.9728L52.481 91.4968Z" fill="#0A7650"/>
<path d="M64.845 104.49C65.0609 104.275 65.4111 104.275 65.627 104.49C65.843 104.705 65.843 105.054 65.627 105.269L62.1077 108.776C61.8918 108.991 61.5416 108.991 61.3257 108.776C61.1097 108.561 61.1097 108.212 61.3257 107.997L64.845 104.49Z" fill="#0A7650"/>
<path d="M96.9192 137.001C97.1351 136.786 97.4853 136.786 97.7012 137.001C97.9172 137.216 97.9172 137.565 97.7012 137.78L94.1819 141.287C93.966 141.502 93.6158 141.502 93.3999 141.287C93.1839 141.072 93.1839 140.723 93.3999 140.508L96.9192 137.001Z" fill="#0A7650"/>
<path d="M64.2919 80.2447C64.5079 80.0295 64.8581 80.0295 65.074 80.2447C65.29 80.4599 65.29 80.8088 65.074 81.024L61.5547 84.5307C61.3388 84.7459 60.9886 84.7459 60.7727 84.5307C60.5567 84.3155 60.5567 83.9666 60.7727 83.7514L64.2919 80.2447Z" fill="#0A7650"/>
<path d="M87.8041 88.6528C87.8831 88.3588 88.1864 88.1844 88.4814 88.2632C88.7764 88.3419 88.9515 88.6441 88.8724 88.938L87.5842 93.7283C87.5052 94.0223 87.202 94.1967 86.907 94.118C86.612 94.0392 86.4369 93.737 86.5159 93.4431L87.8041 88.6528Z" fill="#0A7650"/>
<path d="M66.2369 118.96C66.316 118.666 66.6192 118.491 66.9142 118.57C67.2092 118.649 67.3843 118.951 67.3053 119.245L66.0171 124.035C65.9381 124.329 65.6348 124.503 65.3398 124.425C65.0448 124.346 64.8697 124.044 64.9488 123.75L66.2369 118.96Z" fill="#0A7650"/>
<path d="M91.6751 126.123C91.7542 125.829 92.0574 125.655 92.3524 125.733C92.6474 125.812 92.8225 126.114 92.7434 126.408L91.4553 131.198C91.3762 131.492 91.073 131.667 90.778 131.588C90.483 131.509 90.3079 131.207 90.387 130.913L91.6751 126.123Z" fill="#0A7650"/>
<path d="M100.523 100.775C100.602 100.482 100.905 100.307 101.2 100.386C101.495 100.465 101.671 100.767 101.591 101.061L100.303 105.851C100.224 106.145 99.9211 106.319 99.626 106.241C99.331 106.162 99.156 105.86 99.235 105.566L100.523 100.775Z" fill="#0A7650"/>
<path d="M47.9878 104.633C48.0669 104.339 48.3701 104.164 48.6651 104.243C48.9601 104.322 49.1352 104.624 49.0561 104.918L47.768 109.708C47.6889 110.002 47.3857 110.177 47.0907 110.098C46.7957 110.019 46.6206 109.717 46.6997 109.423L47.9878 104.633Z" fill="#0A7650"/>
<path d="M107.159 122.266C107.238 121.972 107.541 121.797 107.837 121.876C108.132 121.955 108.307 122.257 108.228 122.551L106.939 127.341C106.86 127.635 106.557 127.81 106.262 127.731C105.967 127.652 105.792 127.35 105.871 127.056L107.159 122.266Z" fill="#0A7650"/>
<path d="M111.534 112.292C111.382 112.029 111.472 111.692 111.737 111.539C112.001 111.387 112.34 111.478 112.492 111.741L114.981 116.036C115.134 116.299 115.043 116.636 114.778 116.789C114.514 116.941 114.176 116.851 114.023 116.587L111.534 112.292Z" fill="#0A7650"/>
<path d="M108.769 96.8632C108.617 96.5997 108.707 96.2627 108.972 96.1105C109.236 95.9583 109.575 96.0486 109.727 96.3122L112.216 100.607C112.368 100.871 112.278 101.208 112.013 101.36C111.749 101.512 111.411 101.422 111.258 101.158L108.769 96.8632Z" fill="#0A7650"/>
<path d="M78.9072 77.0261C78.7545 76.7625 78.8452 76.4255 79.1096 76.2734C79.3741 76.1212 79.7124 76.2115 79.8651 76.4751L82.3536 80.7699C82.5063 81.0335 82.4157 81.3705 82.1512 81.5226C81.8867 81.6748 81.5485 81.5845 81.3958 81.321L78.9072 77.0261Z" fill="#0A7650"/>
<path d="M78.9072 77.0261C78.7545 76.7625 78.8452 76.4255 79.1096 76.2734C79.3741 76.1212 79.7124 76.2115 79.8651 76.4751L82.3536 80.7699C82.5063 81.0335 82.4157 81.3705 82.1512 81.5226C81.8867 81.6748 81.5485 81.5845 81.3958 81.321L78.9072 77.0261Z" fill="#0A7650"/>
<path d="M86.0963 106.782C85.9436 106.518 86.0342 106.181 86.2987 106.029C86.5632 105.877 86.9014 105.967 87.0541 106.231L89.5426 110.526C89.6953 110.789 89.6047 111.126 89.3402 111.278C89.0757 111.431 88.7375 111.34 88.5848 111.077L86.0963 106.782Z" fill="#0A7650"/>
<path d="M63.4231 137.089C63.2704 136.825 63.361 136.488 63.6255 136.336C63.89 136.184 64.2283 136.274 64.381 136.537L66.8695 140.832C67.0222 141.096 66.9316 141.433 66.6671 141.585C66.4026 141.737 66.0644 141.647 65.9116 141.383L63.4231 137.089Z" fill="#0A7650"/>
<path d="M54.3379 121.572C54.5538 121.357 54.904 121.357 55.1199 121.572C55.3359 121.787 55.3359 122.136 55.1199 122.351L51.6007 125.858C51.3847 126.073 51.0346 126.073 50.8186 125.858C50.6026 125.643 50.6026 125.294 50.8186 125.079L54.3379 121.572Z" fill="#0A7650"/>
<path d="M100.237 113.858C100.453 113.642 100.803 113.642 101.019 113.858C101.235 114.073 101.235 114.422 101.019 114.637L97.5 118.144C97.284 118.359 96.9339 118.359 96.7179 118.144C96.5019 117.928 96.5019 117.58 96.7179 117.364L100.237 113.858Z" fill="#0A7650"/>
<path d="M225.796 59.0716C225.797 58.9906 225.797 58.9096 225.797 58.8285C225.797 46.2206 215.682 36 203.205 36C190.727 36 180.612 46.2206 180.612 58.8285C180.612 70.0646 188.646 79.4047 199.226 81.3041C201.513 89.1695 208.71 94.9121 217.234 94.9121C227.598 94.9121 236 86.4224 236 75.9498C236 68.5938 231.855 62.216 225.796 59.0716Z" fill="#0A7650"/>
<path d="M197.075 47.046C199.88 42.1367 206.893 42.1367 209.698 47.046L234.786 90.954C237.591 95.8633 234.085 102 228.475 102H203.387H178.299C172.689 102 169.182 95.8633 171.987 90.954L197.075 47.046Z" fill="#82C9A0"/>
<path d="M207.942 124H198.468L200.023 76.1339H205.962L207.942 124Z" fill="#263843"/>
<path d="M203.569 60.4854C203.569 62.0105 202.345 63.2469 200.836 63.2469C199.327 63.2469 198.103 62.0105 198.103 60.4854C198.103 58.9602 199.327 57.7239 200.836 57.7239C202.345 57.7239 203.569 58.9602 203.569 60.4854Z" fill="#0A7650"/>
<path d="M207.213 52.3849C207.213 53.9101 205.989 55.1464 204.48 55.1464C202.971 55.1464 201.747 53.9101 201.747 52.3849C201.747 50.8598 202.971 49.6234 204.48 49.6234C205.989 49.6234 207.213 50.8598 207.213 52.3849Z" fill="#0A7650"/>
<path d="M213.772 62.6946C213.772 64.2197 212.548 65.4561 211.039 65.4561C209.53 65.4561 208.306 64.2197 208.306 62.6946C208.306 61.1694 209.53 59.9331 211.039 59.9331C212.548 59.9331 213.772 61.1694 213.772 62.6946Z" fill="#0A7650"/>
<path d="M195.917 65.0879C195.917 66.1046 195.101 66.9289 194.095 66.9289C193.089 66.9289 192.273 66.1046 192.273 65.0879C192.273 64.0711 193.089 63.2469 194.095 63.2469C195.101 63.2469 195.917 64.0711 195.917 65.0879Z" fill="#0A7650"/>
<path d="M200.654 69.5063C200.654 70.523 199.838 71.3473 198.832 71.3473C197.826 71.3473 197.01 70.523 197.01 69.5063C197.01 68.4895 197.826 67.6653 198.832 67.6653C199.838 67.6653 200.654 68.4895 200.654 69.5063Z" fill="#0A7650"/>
<path d="M209.035 70.6109C209.035 71.6276 208.219 72.4519 207.213 72.4519C206.207 72.4519 205.391 71.6276 205.391 70.6109C205.391 69.5941 206.207 68.7699 207.213 68.7699C208.219 68.7699 209.035 69.5941 209.035 70.6109Z" fill="#0A7650"/>
<path d="M218.145 66.9289C218.145 67.9456 217.329 68.7699 216.323 68.7699C215.317 68.7699 214.501 67.9456 214.501 66.9289C214.501 65.9121 215.317 65.0879 216.323 65.0879C217.329 65.0879 218.145 65.9121 218.145 66.9289Z" fill="#0A7650"/>
<path d="M191.544 69.5063C191.544 70.523 190.728 71.3473 189.722 71.3473C188.716 71.3473 187.9 70.523 187.9 69.5063C187.9 68.4895 188.716 67.6653 189.722 67.6653C190.728 67.6653 191.544 68.4895 191.544 69.5063Z" fill="#0A7650"/>
<path d="M195.917 75.0293C195.917 75.6393 195.427 76.1339 194.824 76.1339C194.22 76.1339 193.73 75.6393 193.73 75.0293C193.73 74.4192 194.22 73.9247 194.824 73.9247C195.427 73.9247 195.917 74.4192 195.917 75.0293Z" fill="#0A7650"/>
<path d="M215.594 73.9247C215.594 74.5347 215.105 75.0293 214.501 75.0293C213.897 75.0293 213.408 74.5347 213.408 73.9247C213.408 73.3146 213.897 72.8201 214.501 72.8201C215.105 72.8201 215.594 73.3146 215.594 73.9247Z" fill="#0A7650"/>
<path d="M211.95 81.2887C211.95 81.8988 211.461 82.3933 210.857 82.3933C210.253 82.3933 209.764 81.8988 209.764 81.2887C209.764 80.6786 210.253 80.1841 210.857 80.1841C211.461 80.1841 211.95 80.6786 211.95 81.2887Z" fill="#0A7650"/>
<path d="M186.443 76.1339C186.443 76.7439 185.953 77.2385 185.349 77.2385C184.746 77.2385 184.256 76.7439 184.256 76.1339C184.256 75.5238 184.746 75.0293 185.349 75.0293C185.953 75.0293 186.443 75.5238 186.443 76.1339Z" fill="#0A7650"/>
<path d="M222.153 77.2385C222.153 77.8485 221.664 78.3431 221.06 78.3431C220.456 78.3431 219.967 77.8485 219.967 77.2385C219.967 76.6284 220.456 76.1339 221.06 76.1339C221.664 76.1339 222.153 76.6284 222.153 77.2385Z" fill="#0A7650"/>
<path d="M183.163 86.2594C183.163 86.5644 182.918 86.8117 182.616 86.8117C182.315 86.8117 182.07 86.5644 182.07 86.2594C182.07 85.9544 182.315 85.7071 182.616 85.7071C182.918 85.7071 183.163 85.9544 183.163 86.2594Z" fill="#0A7650"/>
<path d="M195.917 86.9958C195.917 87.3008 195.672 87.5481 195.37 87.5481C195.068 87.5481 194.824 87.3008 194.824 86.9958C194.824 86.6908 195.068 86.4435 195.37 86.4435C195.672 86.4435 195.917 86.6908 195.917 86.9958Z" fill="#0A7650"/>
<path d="M191.544 83.3138C191.544 83.6188 191.299 83.8661 190.997 83.8661C190.696 83.8661 190.451 83.6188 190.451 83.3138C190.451 83.0088 190.696 82.7615 190.997 82.7615C191.299 82.7615 191.544 83.0088 191.544 83.3138Z" fill="#0A7650"/>
<path d="M217.052 83.682C217.052 83.987 216.807 84.2343 216.505 84.2343C216.203 84.2343 215.958 83.987 215.958 83.682C215.958 83.377 216.203 83.1297 216.505 83.1297C216.807 83.1297 217.052 83.377 217.052 83.682Z" fill="#0A7650"/>
<path d="M364.871 64.7234C364.872 64.6121 364.873 64.5007 364.873 64.3891C364.873 47.0534 350.867 33 333.591 33C316.315 33 302.309 47.0534 302.309 64.3891C302.309 79.8388 313.433 92.6815 328.082 95.2931C331.249 106.108 341.213 114.004 353.016 114.004C367.367 114.004 379 102.331 379 87.931C379 77.8164 373.26 69.0471 364.871 64.7234Z" fill="#0A7650"/>
<path d="M325.104 48.1883C328.988 41.4379 338.698 41.4379 342.582 48.1883L377.32 108.562C381.204 115.312 376.349 123.75 368.581 123.75H333.843H299.106C291.338 123.75 286.483 115.312 290.367 108.562L325.104 48.1883Z" fill="#82C9A0"/>
<path d="M340.15 154H327.032L329.186 88.1841H337.409L340.15 154Z" fill="#263843"/>
<path d="M334.096 66.6674C334.096 68.7644 332.401 70.4644 330.311 70.4644C328.222 70.4644 326.527 68.7644 326.527 66.6674C326.527 64.5703 328.222 62.8703 330.311 62.8703C332.401 62.8703 334.096 64.5703 334.096 66.6674Z" fill="#0A7650"/>
<path d="M339.141 55.5293C339.141 57.6264 337.447 59.3264 335.357 59.3264C333.267 59.3264 331.573 57.6264 331.573 55.5293C331.573 53.4322 333.267 51.7322 335.357 51.7322C337.447 51.7322 339.141 53.4322 339.141 55.5293Z" fill="#0A7650"/>
<path d="M348.223 69.705C348.223 71.8021 346.529 73.5021 344.439 73.5021C342.349 73.5021 340.655 71.8021 340.655 69.705C340.655 67.608 342.349 65.908 344.439 65.908C346.529 65.908 348.223 67.608 348.223 69.705Z" fill="#0A7650"/>
<path d="M323.5 72.9958C323.5 74.3939 322.371 75.5272 320.977 75.5272C319.584 75.5272 318.455 74.3939 318.455 72.9958C318.455 71.5978 319.584 70.4644 320.977 70.4644C322.371 70.4644 323.5 71.5978 323.5 72.9958Z" fill="#0A7650"/>
<path d="M330.059 79.0711C330.059 80.4692 328.93 81.6025 327.536 81.6025C326.143 81.6025 325.014 80.4692 325.014 79.0711C325.014 77.6731 326.143 76.5398 327.536 76.5398C328.93 76.5398 330.059 77.6731 330.059 79.0711Z" fill="#0A7650"/>
<path d="M341.664 80.59C341.664 81.988 340.534 83.1213 339.141 83.1213C337.748 83.1213 336.618 81.988 336.618 80.59C336.618 79.1919 337.748 78.0586 339.141 78.0586C340.534 78.0586 341.664 79.1919 341.664 80.59Z" fill="#0A7650"/>
<path d="M354.277 75.5272C354.277 76.9252 353.148 78.0586 351.755 78.0586C350.361 78.0586 349.232 76.9252 349.232 75.5272C349.232 74.1292 350.361 72.9958 351.755 72.9958C353.148 72.9958 354.277 74.1292 354.277 75.5272Z" fill="#0A7650"/>
<path d="M317.446 79.0711C317.446 80.4692 316.316 81.6025 314.923 81.6025C313.53 81.6025 312.4 80.4692 312.4 79.0711C312.4 77.6731 313.53 76.5398 314.923 76.5398C316.316 76.5398 317.446 77.6731 317.446 79.0711Z" fill="#0A7650"/>
<path d="M323.5 86.6653C323.5 87.5041 322.822 88.1841 321.987 88.1841C321.151 88.1841 320.473 87.5041 320.473 86.6653C320.473 85.8265 321.151 85.1465 321.987 85.1465C322.822 85.1465 323.5 85.8265 323.5 86.6653Z" fill="#0A7650"/>
<path d="M350.746 85.1465C350.746 85.9853 350.068 86.6653 349.232 86.6653C348.396 86.6653 347.718 85.9853 347.718 85.1465C347.718 84.3076 348.396 83.6276 349.232 83.6276C350.068 83.6276 350.746 84.3076 350.746 85.1465Z" fill="#0A7650"/>
<path d="M345.7 95.272C345.7 96.1108 345.022 96.7908 344.186 96.7908C343.35 96.7908 342.673 96.1108 342.673 95.272C342.673 94.4331 343.35 93.7531 344.186 93.7531C345.022 93.7531 345.7 94.4331 345.7 95.272Z" fill="#0A7650"/>
<path d="M310.382 88.1841C310.382 89.0229 309.704 89.7029 308.868 89.7029C308.032 89.7029 307.355 89.0229 307.355 88.1841C307.355 87.3453 308.032 86.6653 308.868 86.6653C309.704 86.6653 310.382 87.3453 310.382 88.1841Z" fill="#0A7650"/>
<path d="M359.827 89.7029C359.827 90.5418 359.15 91.2218 358.314 91.2218C357.478 91.2218 356.8 90.5418 356.8 89.7029C356.8 88.8641 357.478 88.1841 358.314 88.1841C359.15 88.1841 359.827 88.8641 359.827 89.7029Z" fill="#0A7650"/>
<path d="M305.841 102.107C305.841 102.526 305.502 102.866 305.084 102.866C304.666 102.866 304.327 102.526 304.327 102.107C304.327 101.687 304.666 101.347 305.084 101.347C305.502 101.347 305.841 101.687 305.841 102.107Z" fill="#0A7650"/>
<path d="M323.5 103.119C323.5 103.539 323.161 103.879 322.743 103.879C322.325 103.879 321.987 103.539 321.987 103.119C321.987 102.7 322.325 102.36 322.743 102.36C323.161 102.36 323.5 102.7 323.5 103.119Z" fill="#0A7650"/>
<path d="M317.446 98.0565C317.446 98.4759 317.107 98.8159 316.689 98.8159C316.271 98.8159 315.932 98.4759 315.932 98.0565C315.932 97.6371 316.271 97.2971 316.689 97.2971C317.107 97.2971 317.446 97.6371 317.446 98.0565Z" fill="#0A7650"/>
<path d="M352.764 98.5628C352.764 98.9822 352.425 99.3222 352.007 99.3222C351.589 99.3222 351.25 98.9822 351.25 98.5628C351.25 98.1434 351.589 97.8034 352.007 97.8034C352.425 97.8034 352.764 98.1434 352.764 98.5628Z" fill="#0A7650"/>
<path fill-rule="evenodd" clip-rule="evenodd" d="M101.844 334.432C101.454 326.948 95.2627 321 87.6818 321C79.8997 321 73.5816 327.268 73.5008 335.031C71.8583 334.366 70.0628 334 68.1818 334C60.3494 334 54 340.349 54 348.182C54 356.014 60.3494 362.364 68.1818 362.364C72.4953 362.364 76.3589 360.438 78.96 357.399C83.1325 360.438 89.3305 362.364 96.25 362.364C108.814 362.364 119 356.014 119 348.182C119 341.553 111.704 335.986 101.844 334.432Z" fill="#0A7650"/>
<path fill-rule="evenodd" clip-rule="evenodd" d="M153.844 127.432C153.454 119.948 147.263 114 139.682 114C131.9 114 125.582 120.268 125.501 128.031C123.858 127.366 122.063 127 120.182 127C112.349 127 106 133.349 106 141.182C106 149.014 112.349 155.364 120.182 155.364C124.495 155.364 128.359 153.438 130.96 150.399C135.133 153.438 141.331 155.364 148.25 155.364C160.814 155.364 171 149.014 171 141.182C171 134.553 163.704 128.986 153.844 127.432Z" fill="#0A7650"/>
<path fill-rule="evenodd" clip-rule="evenodd" d="M362.9 147.605C362.534 140.582 356.723 135 349.609 135C342.306 135 336.377 140.882 336.301 148.168C334.759 147.544 333.074 147.2 331.309 147.2C323.959 147.2 318 153.159 318 160.509C318 167.859 323.959 173.818 331.309 173.818C335.357 173.818 338.983 172.011 341.424 169.159C345.34 172.011 351.156 173.818 357.65 173.818C369.441 173.818 379 167.859 379 160.509C379 154.288 372.153 149.064 362.9 147.605Z" fill="#0A7650"/>
<path d="M77.4101 205.63C77.0172 208.839 72.6311 209.599 68.1641 208.859C66.4062 207.638 64.4108 207.201 62.6149 207.123L61.9598 201.983C66.8228 199.158 76.821 200.028 77.3981 204.555C77.4459 204.912 77.449 205.273 77.4074 205.631L77.4101 205.63ZM60.4917 207.256L59.8266 202.023C50.2236 200.997 53.2756 211.312 60.4917 207.256ZM35.7303 208.168C35.7719 207.81 35.7687 207.449 35.7209 207.092C35.1439 202.565 25.146 201.695 20.2828 204.52L20.9379 209.661C22.7338 209.738 24.728 210.177 26.4874 211.396C30.954 212.136 35.3402 211.377 35.7333 208.167L35.7303 208.168ZM18.8116 209.794L18.147 204.561C8.54722 203.537 11.5976 213.851 18.813 209.792L18.8116 209.794ZM58.7314 224.445C58.5596 221.216 54.2359 220.159 49.7303 220.591C47.8929 221.686 45.8722 221.987 44.0759 221.942L43.0679 227.03C47.727 230.18 57.7608 229.998 58.6458 225.521C58.7181 225.168 58.7461 224.808 58.7293 224.448L58.7314 224.445ZM41.9639 221.665C35.0428 217.124 31.2927 227.206 40.943 226.838L41.9639 221.665ZM99.6188 218.998C98.6508 215.914 94.2074 215.966 89.947 217.492C88.4392 219.01 86.5503 219.798 84.8043 220.202L85.0922 225.376C90.3816 227.28 100.064 224.62 99.806 220.061C99.7891 219.701 99.7274 219.345 99.6224 219L99.6188 218.998ZM82.6891 220.461C74.8582 217.776 73.7226 228.474 82.9819 225.726L82.6879 220.462L82.6891 220.461Z" fill="#544533"/>
<path d="M182.617 205.63C182.224 208.839 177.838 209.599 173.371 208.859C171.613 207.638 169.618 207.201 167.822 207.123L167.167 201.983C172.03 199.158 182.028 200.028 182.605 204.555C182.653 204.912 182.656 205.273 182.614 205.631L182.617 205.63ZM165.699 207.256L165.034 202.023C155.431 200.997 158.483 211.312 165.699 207.256ZM140.937 208.168C140.979 207.81 140.976 207.449 140.928 207.092C140.351 202.565 130.353 201.695 125.49 204.52L126.145 209.661C127.941 209.738 129.935 210.177 131.694 211.396C136.161 212.136 140.547 211.377 140.94 208.167L140.937 208.168ZM124.019 209.794L123.354 204.561C113.754 203.537 116.805 213.851 124.02 209.792L124.019 209.794ZM163.938 224.445C163.767 221.216 159.443 220.159 154.937 220.591C153.1 221.686 151.079 221.987 149.283 221.942L148.275 227.03C152.934 230.18 162.968 229.998 163.853 225.521C163.925 225.168 163.953 224.808 163.936 224.448L163.938 224.445ZM147.171 221.665C140.25 217.124 136.5 227.206 146.15 226.838L147.171 221.665ZM204.826 218.998C203.858 215.914 199.414 215.966 195.154 217.492C193.646 219.01 191.757 219.798 190.011 220.202L190.299 225.376C195.589 227.28 205.271 224.62 205.013 220.061C204.996 219.701 204.934 219.345 204.829 219L204.826 218.998ZM187.896 220.461C180.065 217.776 178.93 228.474 188.189 225.726L187.895 220.462L187.896 220.461Z" fill="#544533"/>
<path d="M223.061 289.41C219.852 289.017 219.092 284.631 219.833 280.164C221.053 278.406 221.49 276.411 221.568 274.615L226.709 273.96C229.533 278.823 228.663 288.821 224.137 289.398C223.78 289.446 223.418 289.449 223.06 289.407L223.061 289.41ZM221.435 272.492L226.668 271.827C227.694 262.224 217.379 265.276 221.435 272.492ZM220.523 247.73C220.881 247.772 221.242 247.769 221.599 247.721C226.126 247.144 226.996 237.146 224.171 232.283L219.03 232.938C218.953 234.734 218.514 236.728 217.296 238.487C216.555 242.954 217.314 247.34 220.524 247.733L220.523 247.73ZM218.897 230.811L224.13 230.147C225.154 220.547 214.84 223.598 218.899 230.813L218.897 230.811ZM204.246 270.731C207.475 270.56 208.532 266.236 208.1 261.73C207.005 259.893 206.704 257.872 206.749 256.076L201.661 255.068C198.512 259.727 198.693 269.761 203.17 270.646C203.523 270.718 203.883 270.746 204.243 270.729L204.246 270.731ZM207.026 253.964C211.567 247.043 201.485 243.293 201.853 252.943L207.026 253.964ZM209.693 311.619C212.777 310.651 212.725 306.207 211.2 301.947C209.681 300.439 208.893 298.55 208.489 296.804L203.315 297.092C201.412 302.382 204.071 312.064 208.63 311.806C208.99 311.789 209.346 311.727 209.691 311.622L209.693 311.619ZM208.231 294.689C210.915 286.858 200.217 285.723 202.965 294.982L208.229 294.688L208.231 294.689Z" fill="#544533"/>
<path d="M223.061 394.617C219.852 394.224 219.092 389.838 219.833 385.371C221.053 383.613 221.49 381.618 221.568 379.822L226.709 379.167C229.533 384.03 228.663 394.028 224.137 394.605C223.78 394.653 223.418 394.656 223.06 394.614L223.061 394.617ZM221.435 377.699L226.668 377.034C227.694 367.431 217.379 370.483 221.435 377.699ZM220.523 352.937C220.881 352.979 221.242 352.976 221.599 352.928C226.126 352.351 226.996 342.353 224.171 337.49L219.03 338.145C218.953 339.941 218.514 341.935 217.296 343.694C216.555 348.161 217.314 352.547 220.524 352.94L220.523 352.937ZM218.897 336.019L224.13 335.354C225.154 325.754 214.84 328.805 218.899 336.02L218.897 336.019ZM204.246 375.938C207.475 375.767 208.532 371.443 208.1 366.937C207.005 365.1 206.704 363.079 206.749 361.283L201.661 360.275C198.512 364.934 198.693 374.968 203.17 375.853C203.523 375.925 203.883 375.953 204.243 375.936L204.246 375.938ZM207.026 359.171C211.567 352.25 201.485 348.5 201.853 358.15L207.026 359.171ZM209.693 416.826C212.777 415.858 212.725 411.414 211.2 407.154C209.681 405.646 208.893 403.757 208.489 402.011L203.315 402.299C201.412 407.589 204.071 417.271 208.63 417.013C208.99 416.996 209.346 416.934 209.691 416.829L209.693 416.826ZM208.231 399.896C210.915 392.065 200.217 390.93 202.965 400.189L208.229 399.895L208.231 399.896Z" fill="#544533"/>
<circle cx="213.5" cy="216.5" r="62.5" fill="white"/>
<path d="M187 214.833L207.833 235.667L242.556 194" stroke="#0A7650" stroke-width="10"/>
</svg>
